<?xml version="1.0" encoding="utf-8"?>
<!-- Generator: Adobe Illustrator 27.4.1, SVG Export Plug-In . SVG Version: 6.00 Build 0)  -->
<svg version="1.1" id="Layer_1" xmlns="http://www.w3.org/2000/svg" xmlns:xlink="http://www.w3.org/1999/xlink" x="0px" y="0px"
	 viewBox="0 0 153.89 114.72" style="enable-background:new 0 0 153.89 114.72;" xml:space="preserve">
<style type="text/css">
	.st0{fill:none;stroke:#ED1C24;stroke-width:0.8;stroke-miterlimit:10;}
	.st1{fill:#F5C8C8;stroke:#ED1C24;stroke-width:0.8;stroke-miterlimit:10;}
	.st2{font-family:'Helvetica';}
	.st3{font-size:4.8px;}
	.st4{fill:none;stroke:#231F20;stroke-width:0.6;stroke-miterlimit:10;}
	.st5{fill:#B4D2FF;stroke:#1B75BC;stroke-width:0.8;stroke-miterlimit:10;}
	.st6{fill:none;stroke:#1B75BC;stroke-width:0.8;stroke-miterlimit:10;}
	.st7{fill:#ED1C24;}
	.st8{font-family:'Helvetica-Bold';}
	.st9{font-size:5.6px;}
	.st10{fill:#1B75BC;}
	.st11{fill:#D1D3D4;stroke:#808080;stroke-width:0.8;stroke-linejoin:round;stroke-miterlimit:10;}
	
		.st12{opacity:0;clip-path:url(#SVGID_00000104691931444575618350000012645789775310898612_);fill:none;stroke:#000000;stroke-width:2.500000e-07;stroke-miterlimit:10;}
	.st13{clip-path:url(#SVGID_00000104691931444575618350000012645789775310898612_);}
	
		.st14{opacity:0;clip-path:url(#SVGID_00000031168200516873498030000015320913469558702521_);fill:none;stroke:#000000;stroke-width:2.500000e-07;stroke-miterlimit:10;}
	.st15{clip-path:url(#SVGID_00000031168200516873498030000015320913469558702521_);}
	
		.st16{clip-path:url(#SVGID_00000031168200516873498030000015320913469558702521_);fill:none;stroke:#000000;stroke-width:0.3582;stroke-miterlimit:10;}
</style>
<path class="st0" d="M45.86,49.98c16.36-4.66,28.96-13.47,37.79-26.42"/>
<g>
	<path class="st1" d="M35.87,46.77c0.03,2.87,0.88,3.66,2.77,5.42c2.28,0.49,4.72-0.61,7.21-2.21c-2.04,1.96-3.15,4.19-3.76,6.54
		c1.25,2.3,3.61,3.42,6.23,4.26c-2.6-0.82-5.1-0.59-7.46,1.14c-0.7,2.34-0.47,4.86,0.55,7.52c-0.78-2.68-2.22-4.76-5.54-5.12
		c-3.03-0.76-4.65,1.42-5.54,5.12l0.55-7.52c-2.09-2.25-4.63-2.39-7.46-1.14l6.05-3.88c0,0,3.63-4.71-3.58-6.92l7.21,2.21
		C34.95,50.63,35.65,49.7,35.87,46.77z"/>
	<line class="st1" x1="23.42" y1="60.78" x2="9.98" y2="60.08"/>
	<line class="st1" x1="30.33" y1="69.45" x2="22.07" y2="79.05"/>
	<line class="st1" x1="41.41" y1="69.45" x2="38.92" y2="82.59"/>
	<line class="st1" x1="25.89" y1="49.98" x2="9.98" y2="43.2"/>
	<line class="st1" x1="9.98" y1="43.2" x2="5.06" y2="46.59"/>
	<line class="st1" x1="17.93" y1="46.59" x2="17.93" y2="36.77"/>
	<line class="st1" x1="9.98" y1="43.2" x2="7.52" y2="32.94"/>
	<line class="st1" x1="17.93" y1="41.68" x2="23.42" y2="38.07"/>
	<line class="st1" x1="16.7" y1="60.43" x2="14.44" y2="69.45"/>
	<line class="st1" x1="9.98" y1="60.08" x2="9.98" y2="60.08"/>
	<line class="st1" x1="9.98" y1="60.08" x2="4.62" y2="54.37"/>
	<line class="st1" x1="14.44" y1="69.45" x2="9.98" y2="72.23"/>
	<line class="st1" x1="9.98" y1="60.08" x2="4.17" y2="64.94"/>
	<line class="st1" x1="14.44" y1="69.45" x2="16.7" y2="75.22"/>
	<path class="st1" d="M30.33,69.45"/>
	<line class="st1" x1="25.36" y1="75.22" x2="26.2" y2="84.73"/>
	<line class="st1" x1="40.17" y1="76.82" x2="45.12" y2="78.91"/>
	<line class="st1" x1="36.05" y1="37.45" x2="35.78" y2="47.05"/>
	<line class="st1" x1="35.87" y1="42.91" x2="33.34" y2="40.67"/>
</g>
<line class="st0" x1="48.32" y1="60.78" x2="51.2" y2="61.81"/>
<line class="st0" x1="48.32" y1="60.78" x2="51.2" y2="58.98"/>
<path class="st0" d="M83.65,23.56c-3.42-3.57-3.57-9.54-0.45-13.12"/>
<path class="st0" d="M83.22,23.37c4.92,0.49,9.22-3.72,10.1-8.38"/>
<line class="st0" x1="83.22" y1="23.37" x2="88.27" y2="13.18"/>
<text transform="matrix(1 0 0 1 0 31.0728)" class="st2 st3">dendrites</text>
<line class="st4" x1="37.1" y1="58.11" x2="60.47" y2="69.45"/>
<text transform="matrix(1 0 0 1 61.9131 72.3315)" class="st2 st3">soma</text>
<text transform="matrix(1 0 0 1 66.9092 44.5552)" class="st2 st3">axon</text>
<g>
	<path class="st5" d="M121.65,28.82c0.03,2.87,0.88,3.66,2.77,5.42c2.28,0.49,4.72-0.61,7.21-2.21c-2.04,1.96-3.15,4.19-3.76,6.54
		c1.25,2.3,3.61,3.42,6.23,4.26c-2.6-0.82-5.1-0.59-7.46,1.14c-0.7,2.34-0.47,4.86,0.55,7.52c-0.78-2.68-2.22-4.76-5.54-5.12
		c-3.03-0.76-4.65,1.42-5.54,5.12l0.55-7.52c-2.09-2.25-4.63-2.39-7.46-1.14l6.05-3.88c0,0,3.63-4.71-3.58-6.92l7.21,2.21
		C120.73,32.68,121.43,31.75,121.65,28.82z"/>
	<path class="st5" d="M131.64,32.02"/>
	<line class="st5" x1="109.2" y1="42.83" x2="95.76" y2="42.13"/>
	<line class="st5" x1="116.11" y1="51.49" x2="107.85" y2="61.1"/>
	<line class="st5" x1="127.19" y1="51.49" x2="124.7" y2="64.64"/>
	<line class="st5" x1="111.67" y1="32.02" x2="95.76" y2="25.25"/>
	<line class="st5" x1="95.76" y1="25.25" x2="90.84" y2="28.64"/>
	<line class="st5" x1="103.71" y1="28.64" x2="103.71" y2="18.81"/>
	<line class="st5" x1="95.76" y1="25.25" x2="93.3" y2="14.98"/>
	<line class="st5" x1="103.71" y1="23.73" x2="109.2" y2="20.12"/>
	<line class="st5" x1="102.48" y1="42.48" x2="100.22" y2="51.49"/>
	<line class="st5" x1="95.76" y1="42.13" x2="95.76" y2="42.13"/>
	<line class="st5" x1="95.76" y1="42.13" x2="90.4" y2="36.41"/>
	<line class="st5" x1="100.22" y1="51.49" x2="95.76" y2="54.27"/>
	<line class="st5" x1="95.76" y1="42.13" x2="89.95" y2="46.98"/>
	<line class="st5" x1="100.22" y1="51.49" x2="102.48" y2="57.27"/>
	<path class="st5" d="M116.11,51.49"/>
	<line class="st5" x1="111.15" y1="57.27" x2="111.98" y2="66.78"/>
	<line class="st5" x1="125.95" y1="58.87" x2="130.9" y2="60.96"/>
	<line class="st5" x1="121.83" y1="19.5" x2="121.56" y2="29.1"/>
	<line class="st5" x1="121.65" y1="24.95" x2="119.12" y2="22.72"/>
	<line class="st5" x1="134.1" y1="42.83" x2="136.98" y2="43.86"/>
	<line class="st5" x1="134.1" y1="42.83" x2="136.98" y2="41.03"/>
	<path class="st5" d="M122.88,40.15"/>
</g>
<path class="st6" d="M131.64,32.02c12.39-9.82,20.99-20.2,21.85-31.73"/>
<text transform="matrix(1 0 0 1 64.3887 12.3198)"><tspan x="0" y="0" class="st2 st3">axon</tspan><tspan x="-4.53" y="5.76" class="st2 st3">terminals</tspan></text>
<g>
	<text transform="matrix(1 0 0 1 22.2412 5.0005)"><tspan x="0" y="0" class="st7 st8 st9">presynaptic</tspan><tspan x="5.45" y="6.72" class="st7 st8 st9"> neuron</tspan></text>
</g>
<g>
	<text transform="matrix(1 0 0 1 104.4258 4.9028)"><tspan x="0" y="0" class="st10 st8 st9">postsynaptic</tspan><tspan x="7.78" y="6.72" class="st10 st8 st9">neuron</tspan></text>
</g>
<line class="st4" x1="90.43" y1="5.7" x2="93.3" y2="13.54"/>
<text transform="matrix(1 0 0 1 81.1094 4.1216)" class="st2 st3">synapse</text>
<polygon class="st11" points="37.85,53.95 46.67,36.09 42.56,34.6 "/>
<text transform="matrix(1 0 0 1 39.9844 32.8374)" class="st2 st3">electrode</text>
<g>
	<g>
		<defs>
			<rect id="SVGID_1_" x="8.88" y="95.97" width="136.25" height="18.75"/>
		</defs>
		<clipPath id="SVGID_00000129167861574581692340000015491947651125042621_">
			<use xlink:href="#SVGID_1_"  style="overflow:visible;"/>
		</clipPath>
		
			<polygon style="opacity:0;clip-path:url(#SVGID_00000129167861574581692340000015491947651125042621_);fill:none;stroke:#000000;stroke-width:2.500000e-07;stroke-miterlimit:10;" points="
			77,105.34 77,105.34 77,105.34 77,105.34 77,105.34 77,105.34 77,105.34 77,105.34 77,105.34 77,105.34 77,105.34 77,105.34 
			77,105.34 77,105.34 77,105.34 77,105.34 77,105.34 77,105.34 77,105.34 77,105.34 77,105.34 77,105.34 77,105.34 77,105.34 
			77,105.34 77,105.34 77,105.34 77,105.34 77,105.34 77,105.34 77,105.34 77,105.34 77,105.34 77,105.34 77,105.34 77,105.34 
			77,105.34 77,105.34 77,105.34 77,105.34 77,105.34 77,105.34 77,105.34 77,105.34 77,105.34 77,105.34 77,105.34 77,105.34 
			77,105.34 77,105.34 77,105.34 77,105.34 77,105.34 77,105.34 77,105.34 77,105.34 77,105.34 77,105.34 77,105.34 77,105.34 
			77,105.34 77,105.34 77,105.34 77,105.34 77,105.34 77,105.34 77,105.34 77,105.34 77,105.34 77,105.34 77,105.34 77,105.34 
			77,105.34 77,105.34 77,105.34 77,105.34 77,105.34 77,105.34 77,105.34 77,105.34 77,105.34 77,105.34 77,105.34 77,105.34 
			77,105.34 77,105.34 77,105.34 77,105.34 77,105.34 77,105.34 77,105.34 77,105.34 77,105.34 77,105.34 		"/>
		<g style="clip-path:url(#SVGID_00000129167861574581692340000015491947651125042621_);">
			<defs>
				<rect id="SVGID_00000063608008093439282740000012037406104209222292_" x="8.99" y="95.91" width="136.25" height="18.75"/>
			</defs>
			<clipPath id="SVGID_00000085251675893751892750000008940335480796674716_">
				<use xlink:href="#SVGID_00000063608008093439282740000012037406104209222292_"  style="overflow:visible;"/>
			</clipPath>
			
				<path style="opacity:0;clip-path:url(#SVGID_00000085251675893751892750000008940335480796674716_);fill:none;stroke:#000000;stroke-width:2.500000e-07;stroke-miterlimit:10;" d="
				M77.11,105.28L77.11,105.28z"/>
			<path style="clip-path:url(#SVGID_00000085251675893751892750000008940335480796674716_);" d="M11.5,105.02H13
				c0.12,0,0.44,0,0.44-0.3c0-0.21-0.19-0.21-0.36-0.21h-2.51c-0.18,0-0.53,0-0.92,0.42c-0.3,0.32-0.55,0.75-0.55,0.81
				c0,0.01,0,0.09,0.11,0.09c0.07,0,0.09-0.04,0.14-0.11c0.44-0.69,0.95-0.69,1.14-0.69h0.74l-0.88,2.88
				c-0.04,0.11-0.09,0.3-0.09,0.33c0,0.1,0.06,0.24,0.26,0.24c0.3,0,0.34-0.25,0.37-0.39L11.5,105.02"/>
			<path style="clip-path:url(#SVGID_00000085251675893751892750000008940335480796674716_);" d="M15.51,109.18
				c-0.03,0.13-0.09,0.34-0.09,0.37c0,0.14,0.11,0.2,0.21,0.2c0.11,0,0.21-0.08,0.24-0.14c0.03-0.06,0.08-0.26,0.11-0.39
				c0.03-0.12,0.1-0.41,0.14-0.56c0.04-0.14,0.07-0.28,0.11-0.42c0.07-0.27,0.07-0.28,0.19-0.48c0.2-0.31,0.51-0.66,1-0.66
				c0.35,0,0.37,0.29,0.37,0.44c0,0.38-0.27,1.07-0.37,1.34c-0.07,0.18-0.09,0.23-0.09,0.34c0,0.33,0.28,0.54,0.6,0.54
				c0.63,0,0.9-0.87,0.9-0.96c0-0.08-0.08-0.08-0.1-0.08c-0.09,0-0.09,0.04-0.12,0.11c-0.14,0.5-0.41,0.76-0.67,0.76
				c-0.13,0-0.16-0.09-0.16-0.22c0-0.14,0.03-0.23,0.14-0.51c0.08-0.19,0.33-0.86,0.33-1.21c0-0.1,0-0.36-0.23-0.55
				c-0.11-0.08-0.29-0.17-0.58-0.17c-0.56,0-0.91,0.37-1.11,0.63c-0.05-0.53-0.5-0.63-0.82-0.63c-0.52,0-0.87,0.32-1.06,0.57
				c-0.04-0.43-0.41-0.57-0.67-0.57c-0.27,0-0.41,0.19-0.5,0.34c-0.14,0.23-0.23,0.59-0.23,0.62c0,0.08,0.09,0.08,0.11,0.08
				c0.09,0,0.09-0.02,0.14-0.19c0.09-0.37,0.21-0.68,0.46-0.68c0.16,0,0.21,0.14,0.21,0.31c0,0.12-0.06,0.35-0.1,0.52
				c-0.04,0.17-0.11,0.43-0.14,0.56l-0.2,0.8c-0.02,0.08-0.06,0.24-0.06,0.26c0,0.14,0.11,0.2,0.21,0.2c0.11,0,0.21-0.08,0.24-0.14
				c0.03-0.06,0.08-0.26,0.11-0.39c0.03-0.12,0.1-0.41,0.14-0.56c0.04-0.14,0.08-0.28,0.11-0.42c0.07-0.26,0.08-0.31,0.26-0.56
				c0.18-0.25,0.47-0.58,0.94-0.58c0.36,0,0.37,0.32,0.37,0.44c0,0.16-0.02,0.24-0.11,0.59L15.51,109.18"/>
			<path style="clip-path:url(#SVGID_00000085251675893751892750000008940335480796674716_);" d="M23.42,101.22
				c-0.04,0.16-0.04,0.18-0.18,0.33c-0.39,0.49-0.76,0.64-1.01,0.64c-0.45,0-0.57-0.49-0.57-0.84c0-0.45,0.29-1.55,0.49-1.96
				c0.28-0.53,0.68-0.86,1.04-0.86c0.58,0,0.71,0.73,0.71,0.79c0,0.05-0.02,0.11-0.03,0.15L23.42,101.22 M25.29,96.16
				c0-0.01,0-0.1-0.12-0.1c-0.13,0-0.99,0.08-1.14,0.1c-0.07,0.01-0.13,0.05-0.13,0.17c0,0.11,0.08,0.11,0.21,0.11
				c0.43,0,0.45,0.06,0.45,0.15l-0.03,0.18L24,98.9c-0.16-0.33-0.42-0.57-0.82-0.57c-1.05,0-2.16,1.32-2.16,2.63
				c0,0.84,0.49,1.43,1.19,1.43c0.18,0,0.63-0.04,1.16-0.67c0.07,0.38,0.39,0.67,0.82,0.67c0.31,0,0.52-0.21,0.66-0.49
				c0.15-0.32,0.27-0.87,0.27-0.89c0-0.09-0.08-0.09-0.11-0.09c-0.09,0-0.1,0.04-0.13,0.16c-0.15,0.58-0.31,1.11-0.68,1.11
				c-0.24,0-0.27-0.23-0.27-0.41c0-0.21,0.02-0.28,0.05-0.43L25.29,96.16z"/>
			<path style="clip-path:url(#SVGID_00000085251675893751892750000008940335480796674716_);" d="M30.96,97.19
				c0.44-0.7,0.82-0.73,1.15-0.74c0.11-0.01,0.12-0.16,0.12-0.17c0-0.07-0.04-0.11-0.12-0.11c-0.23,0-0.49,0.03-0.73,0.03
				c-0.3,0-0.6-0.03-0.89-0.03c-0.05,0-0.17,0-0.17,0.17c0,0.1,0.08,0.11,0.14,0.11c0.24,0.02,0.41,0.11,0.41,0.3
				c0,0.13-0.13,0.33-0.13,0.34l-2.75,4.37l-0.61-4.74c0-0.15,0.21-0.27,0.62-0.27c0.13,0,0.22,0,0.22-0.18
				c0-0.08-0.07-0.1-0.13-0.1c-0.36,0-0.74,0.03-1.11,0.03c-0.16,0-0.33-0.01-0.49-0.01c-0.16,0-0.33-0.02-0.48-0.02
				c-0.06,0-0.17,0-0.17,0.17c0,0.11,0.08,0.11,0.22,0.11c0.5,0,0.51,0.08,0.54,0.3l0.71,5.53c0.03,0.18,0.06,0.21,0.18,0.21
				c0.14,0,0.18-0.04,0.25-0.16L30.96,97.19"/>
			
				<line style="clip-path:url(#SVGID_00000085251675893751892750000008940335480796674716_);fill:none;stroke:#000000;stroke-width:0.3582;stroke-miterlimit:10;" x1="20.66" y1="106.11" x2="32.55" y2="106.11"/>
			<path style="clip-path:url(#SVGID_00000085251675893751892750000008940335480796674716_);" d="M25.42,113.44
				c-0.04,0.16-0.04,0.18-0.18,0.33c-0.39,0.49-0.76,0.64-1.01,0.64c-0.45,0-0.57-0.49-0.57-0.84c0-0.45,0.29-1.55,0.49-1.96
				c0.28-0.53,0.68-0.86,1.04-0.86c0.58,0,0.71,0.73,0.71,0.79c0,0.05-0.02,0.11-0.03,0.15L25.42,113.44 M27.29,108.39
				c0-0.01,0-0.1-0.12-0.1c-0.13,0-0.99,0.08-1.14,0.1c-0.07,0.01-0.13,0.05-0.13,0.17c0,0.11,0.08,0.11,0.21,0.11
				c0.43,0,0.45,0.06,0.45,0.15L26.54,109L26,111.12c-0.16-0.33-0.42-0.57-0.82-0.57c-1.05,0-2.16,1.32-2.16,2.63
				c0,0.84,0.49,1.43,1.19,1.43c0.18,0,0.63-0.04,1.16-0.67c0.07,0.38,0.39,0.67,0.82,0.67c0.31,0,0.52-0.21,0.66-0.49
				c0.15-0.32,0.27-0.87,0.27-0.89c0-0.09-0.08-0.09-0.11-0.09c-0.09,0-0.1,0.04-0.13,0.16c-0.15,0.58-0.31,1.11-0.68,1.11
				c-0.24,0-0.27-0.23-0.27-0.41c0-0.21,0.02-0.28,0.05-0.43L27.29,108.39z"/>
			<path style="clip-path:url(#SVGID_00000085251675893751892750000008940335480796674716_);" d="M29.16,110.93H30
				c0.18,0,0.27,0,0.27-0.18c0-0.1-0.09-0.1-0.25-0.1h-0.79c0.32-1.27,0.37-1.45,0.37-1.51c0-0.15-0.11-0.24-0.26-0.24
				c-0.03,0-0.28,0.01-0.36,0.32l-0.35,1.43h-0.84c-0.18,0-0.27,0-0.27,0.17c0,0.11,0.07,0.11,0.25,0.11h0.79
				c-0.65,2.54-0.68,2.7-0.68,2.86c0,0.48,0.34,0.82,0.82,0.82c0.91,0,1.42-1.31,1.42-1.38c0-0.09-0.07-0.09-0.11-0.09
				c-0.08,0-0.09,0.03-0.13,0.13c-0.39,0.93-0.86,1.15-1.16,1.15c-0.19,0-0.28-0.12-0.28-0.41c0-0.21,0.02-0.28,0.05-0.43
				L29.16,110.93"/>
			<path style="clip-path:url(#SVGID_00000085251675893751892750000008940335480796674716_);" d="M42.28,107.17
				c0.13,0,0.3,0,0.3-0.18c0-0.18-0.17-0.18-0.3-0.18h-5.35c-0.13,0-0.3,0-0.3,0.18c0,0.18,0.17,0.18,0.3,0.18H42.28 M42.27,105.43
				c0.13,0,0.3,0,0.3-0.18c0-0.18-0.17-0.18-0.3-0.18h-5.37c-0.13,0-0.3,0-0.3,0.18c0,0.18,0.17,0.18,0.3,0.18H42.27z"/>
			<path style="clip-path:url(#SVGID_00000085251675893751892750000008940335480796674716_);" d="M51.49,106.3
				c0.15,0,0.31,0,0.31-0.18c0-0.18-0.16-0.18-0.31-0.18h-4.85c-0.15,0-0.31,0-0.31,0.18c0,0.18,0.16,0.18,0.31,0.18H51.49"/>
			<path style="clip-path:url(#SVGID_00000085251675893751892750000008940335480796674716_);" d="M55.53,110.51
				c0-0.03,0-0.04-0.15-0.2c-1.12-1.13-1.41-2.82-1.41-4.19c0-1.56,0.34-3.12,1.44-4.24c0.12-0.11,0.12-0.13,0.12-0.15
				c0-0.06-0.04-0.09-0.09-0.09c-0.09,0-0.9,0.61-1.42,1.75c-0.46,0.99-0.56,1.98-0.56,2.73c0,0.7,0.1,1.78,0.59,2.8
				c0.54,1.1,1.31,1.68,1.4,1.68C55.49,110.6,55.53,110.57,55.53,110.51"/>
			<path style="clip-path:url(#SVGID_00000085251675893751892750000008940335480796674716_);" d="M61.66,103.26
				c0.44-0.7,0.82-0.73,1.15-0.74c0.11-0.01,0.12-0.16,0.12-0.17c0-0.07-0.04-0.11-0.12-0.11c-0.23,0-0.49,0.03-0.73,0.03
				c-0.3,0-0.6-0.03-0.89-0.03c-0.05,0-0.17,0-0.17,0.17c0,0.1,0.08,0.11,0.14,0.11c0.24,0.02,0.41,0.11,0.41,0.3
				c0,0.13-0.13,0.33-0.13,0.34l-2.75,4.37l-0.61-4.74c0-0.15,0.21-0.27,0.62-0.27c0.13,0,0.22,0,0.22-0.18
				c0-0.08-0.07-0.1-0.13-0.1c-0.36,0-0.74,0.03-1.11,0.03c-0.16,0-0.33-0.01-0.49-0.01c-0.16,0-0.33-0.02-0.48-0.02
				c-0.06,0-0.17,0-0.17,0.17c0,0.11,0.08,0.11,0.22,0.11c0.5,0,0.51,0.08,0.54,0.3l0.71,5.53c0.03,0.18,0.06,0.21,0.18,0.21
				c0.14,0,0.18-0.04,0.25-0.16L61.66,103.26"/>
			<path style="clip-path:url(#SVGID_00000085251675893751892750000008940335480796674716_);" d="M71.17,106.3
				c0.15,0,0.31,0,0.31-0.18c0-0.18-0.16-0.18-0.31-0.18h-4.85c-0.15,0-0.31,0-0.31,0.18c0,0.18,0.16,0.18,0.31,0.18H71.17"/>
			<path style="clip-path:url(#SVGID_00000085251675893751892750000008940335480796674716_);" d="M80.58,106.27
				c0.02-0.04,0.04-0.11,0.04-0.13c0-0.01,0-0.1-0.11-0.1c-0.08,0-0.1,0.05-0.12,0.11c-0.58,1.33-0.91,1.93-2.45,1.93h-1.31
				c-0.13,0-0.14,0-0.2-0.01c-0.09-0.01-0.12-0.02-0.12-0.09c0-0.03,0-0.04,0.04-0.21l0.61-2.45h0.89c0.76,0,0.76,0.19,0.76,0.41
				c0,0.06,0,0.17-0.06,0.44c-0.02,0.04-0.03,0.07-0.03,0.1c0,0.04,0.04,0.1,0.12,0.1c0.07,0,0.1-0.04,0.13-0.18l0.51-2.1
				c0-0.05-0.04-0.1-0.11-0.1c-0.08,0-0.1,0.05-0.13,0.16c-0.19,0.68-0.35,0.89-1.17,0.89h-0.84l0.54-2.16
				c0.08-0.31,0.09-0.35,0.48-0.35h1.26c1.09,0,1.36,0.26,1.36,0.99c0,0.21,0,0.23-0.04,0.47c0,0.05-0.01,0.12-0.01,0.16
				c0,0.04,0.03,0.11,0.11,0.11c0.1,0,0.11-0.05,0.13-0.22l0.18-1.55c0.03-0.24-0.02-0.24-0.24-0.24h-4.53c-0.18,0-0.27,0-0.27,0.18
				c0,0.1,0.08,0.1,0.25,0.1c0.33,0,0.58,0,0.58,0.16c0,0.04,0,0.05-0.04,0.22l-1.18,4.74c-0.09,0.35-0.11,0.42-0.82,0.42
				c-0.15,0-0.25,0-0.25,0.17c0,0.11,0.08,0.11,0.25,0.11h4.65c0.21,0,0.22-0.01,0.28-0.15L80.58,106.27"/>
			<path style="clip-path:url(#SVGID_00000085251675893751892750000008940335480796674716_);" d="M83.42,105.91
				c0.06-0.23,0.07-0.29,0.65-0.29c0.19,0,0.26,0,0.26-0.14c0-0.01-0.01-0.09-0.11-0.09c-0.14,0-0.31,0.01-0.46,0.02
				c-0.16,0.01-0.34,0.01-0.5,0.01c-0.13,0-0.3-0.01-0.43-0.01c-0.13,0-0.28-0.02-0.41-0.02c-0.04,0-0.13,0-0.13,0.14
				c0,0.09,0.08,0.09,0.2,0.09c0.01,0,0.13,0,0.24,0.01c0.13,0.01,0.14,0.03,0.14,0.09c0,0.01,0,0.04-0.03,0.14l-0.83,3.33
				c-0.06,0.21-0.07,0.26-0.55,0.26c-0.11,0-0.19,0-0.19,0.13c0,0.09,0.08,0.09,0.19,0.09h3.16c0.16,0,0.16-0.01,0.21-0.13
				c0.06-0.17,0.53-1.39,0.53-1.44c0-0.02-0.01-0.09-0.11-0.09c-0.08,0-0.09,0.03-0.13,0.13c-0.24,0.6-0.51,1.29-1.66,1.29h-0.71
				c-0.19,0-0.2-0.01-0.2-0.06c0-0.01,0-0.04,0.03-0.13L83.42,105.91"/>
			<path style="clip-path:url(#SVGID_00000085251675893751892750000008940335480796674716_);" d="M88.8,106.12
				c0-0.7-0.1-1.78-0.59-2.8c-0.54-1.1-1.31-1.68-1.4-1.68c-0.05,0-0.09,0.04-0.09,0.09c0,0.03,0,0.04,0.17,0.21
				c0.88,0.89,1.39,2.31,1.39,4.19c0,1.53-0.33,3.11-1.44,4.24c-0.12,0.11-0.12,0.13-0.12,0.15c0,0.05,0.04,0.09,0.09,0.09
				c0.09,0,0.9-0.61,1.43-1.75C88.69,107.87,88.8,106.87,88.8,106.12"/>
			<path style="clip-path:url(#SVGID_00000085251675893751892750000008940335480796674716_);" d="M95.35,106.3h2.5
				c0.13,0,0.3,0,0.3-0.18c0-0.18-0.17-0.18-0.3-0.18h-2.5v-2.51c0-0.13,0-0.3-0.18-0.3c-0.18,0-0.18,0.17-0.18,0.3v2.51h-2.51
				c-0.13,0-0.3,0-0.3,0.18c0,0.18,0.17,0.18,0.3,0.18h2.51v2.51c0,0.13,0,0.3,0.18,0.3c0.18,0,0.18-0.17,0.18-0.3V106.3"/>
			<path style="clip-path:url(#SVGID_00000085251675893751892750000008940335480796674716_);" d="M104.02,104.59
				c0.68,0.04,1.19,0.45,1.19,1.24c0,1.06-0.77,2.34-2.11,2.45L104.02,104.59 M102.87,108.27c-0.54-0.03-1.18-0.34-1.18-1.24
				c0-1.08,0.77-2.33,2.11-2.45L102.87,108.27z M104.58,102.36c0-0.02,0.03-0.12,0.03-0.13c0-0.01,0-0.09-0.11-0.09
				c-0.09,0-0.1,0.03-0.13,0.18l-0.52,2.07c-1.43,0.04-2.74,1.24-2.74,2.46c0,0.85,0.63,1.56,1.72,1.62
				c-0.07,0.28-0.13,0.56-0.21,0.84c-0.11,0.42-0.2,0.76-0.2,0.79c0,0.09,0.06,0.1,0.11,0.1c0.04,0,0.06-0.01,0.09-0.04
				c0.02-0.02,0.07-0.23,0.1-0.36l0.34-1.34c1.44-0.04,2.74-1.25,2.74-2.46c0-0.71-0.47-1.53-1.72-1.62L104.58,102.36z"/>
			<path style="clip-path:url(#SVGID_00000085251675893751892750000008940335480796674716_);" d="M108.98,110.51
				c0-0.03,0-0.04-0.15-0.2c-1.12-1.13-1.41-2.82-1.41-4.19c0-1.56,0.34-3.12,1.44-4.24c0.12-0.11,0.12-0.13,0.12-0.15
				c0-0.06-0.04-0.09-0.09-0.09c-0.09,0-0.9,0.61-1.43,1.75c-0.46,0.99-0.56,1.98-0.56,2.73c0,0.7,0.1,1.78,0.59,2.8
				c0.54,1.1,1.31,1.68,1.4,1.68C108.94,110.6,108.98,110.57,108.98,110.51"/>
			<path style="clip-path:url(#SVGID_00000085251675893751892750000008940335480796674716_);" d="M115.11,103.26
				c0.44-0.7,0.82-0.73,1.15-0.74c0.11-0.01,0.12-0.16,0.12-0.17c0-0.07-0.04-0.11-0.12-0.11c-0.23,0-0.49,0.03-0.73,0.03
				c-0.3,0-0.6-0.03-0.89-0.03c-0.05,0-0.17,0-0.17,0.17c0,0.1,0.08,0.11,0.14,0.11c0.24,0.02,0.41,0.11,0.41,0.3
				c0,0.13-0.13,0.33-0.13,0.34l-2.75,4.37l-0.61-4.74c0-0.15,0.21-0.27,0.62-0.27c0.13,0,0.22,0,0.22-0.18
				c0-0.08-0.07-0.1-0.13-0.1c-0.36,0-0.74,0.03-1.11,0.03c-0.16,0-0.33-0.01-0.49-0.01c-0.16,0-0.33-0.02-0.48-0.02
				c-0.06,0-0.17,0-0.17,0.17c0,0.11,0.08,0.11,0.22,0.11c0.5,0,0.51,0.08,0.54,0.3l0.71,5.53c0.03,0.18,0.06,0.21,0.18,0.21
				c0.14,0,0.18-0.04,0.25-0.16L115.11,103.26"/>
			<path style="clip-path:url(#SVGID_00000085251675893751892750000008940335480796674716_);" d="M119.3,106.12
				c0-0.7-0.1-1.78-0.59-2.8c-0.54-1.1-1.31-1.68-1.4-1.68c-0.05,0-0.09,0.04-0.09,0.09c0,0.03,0,0.04,0.17,0.21
				c0.88,0.89,1.39,2.31,1.39,4.19c0,1.53-0.33,3.11-1.44,4.24c-0.12,0.11-0.12,0.13-0.12,0.15c0,0.05,0.04,0.09,0.09,0.09
				c0.09,0,0.9-0.61,1.43-1.75C119.19,107.87,119.3,106.87,119.3,106.12"/>
			<path style="clip-path:url(#SVGID_00000085251675893751892750000008940335480796674716_);" d="M125.85,106.3h2.5
				c0.13,0,0.3,0,0.3-0.18c0-0.18-0.17-0.18-0.3-0.18h-2.5v-2.51c0-0.13,0-0.3-0.18-0.3c-0.18,0-0.18,0.17-0.18,0.3v2.51h-2.51
				c-0.13,0-0.3,0-0.3,0.18c0,0.18,0.17,0.18,0.3,0.18h2.51v2.51c0,0.13,0,0.3,0.18,0.3c0.18,0,0.18-0.17,0.18-0.3V106.3"/>
			<path style="clip-path:url(#SVGID_00000085251675893751892750000008940335480796674716_);" d="M134.51,102.93
				c0.08-0.32,0.11-0.41,0.82-0.41c0.22,0,0.29,0,0.29-0.17c0-0.11-0.1-0.11-0.13-0.11c-0.26,0-0.92,0.03-1.18,0.03
				c-0.27,0-0.92-0.03-1.19-0.03c-0.06,0-0.18,0-0.18,0.18c0,0.1,0.08,0.1,0.25,0.1c0.38,0,0.62,0,0.62,0.17
				c0,0.04,0,0.06-0.02,0.14l-1.21,4.83c-0.08,0.33-0.11,0.42-0.82,0.42c-0.21,0-0.29,0-0.29,0.18c0,0.1,0.11,0.1,0.13,0.1
				c0.26,0,0.91-0.03,1.17-0.03c0.27,0,0.93,0.03,1.2,0.03c0.07,0,0.18,0,0.18-0.17c0-0.11-0.07-0.11-0.27-0.11
				c-0.16,0-0.21,0-0.39-0.02c-0.19-0.02-0.22-0.05-0.22-0.15c0-0.07,0.02-0.14,0.04-0.21L134.51,102.93"/>
			<path style="clip-path:url(#SVGID_00000085251675893751892750000008940335480796674716_);" d="M138.78,110.51
				c0-0.03,0-0.04-0.15-0.2c-1.12-1.13-1.41-2.82-1.41-4.19c0-1.56,0.34-3.12,1.44-4.24c0.12-0.11,0.12-0.13,0.12-0.15
				c0-0.06-0.04-0.09-0.09-0.09c-0.09,0-0.9,0.61-1.43,1.75c-0.46,0.99-0.56,1.98-0.56,2.73c0,0.7,0.1,1.78,0.59,2.8
				c0.54,1.1,1.31,1.68,1.4,1.68C138.74,110.6,138.78,110.57,138.78,110.51"/>
			<path style="clip-path:url(#SVGID_00000085251675893751892750000008940335480796674716_);" d="M141.13,104.78h0.84
				c0.18,0,0.27,0,0.27-0.18c0-0.1-0.09-0.1-0.25-0.1h-0.79c0.32-1.27,0.37-1.45,0.37-1.51c0-0.15-0.11-0.24-0.26-0.24
				c-0.03,0-0.28,0.01-0.36,0.32l-0.35,1.42h-0.84c-0.18,0-0.27,0-0.27,0.17c0,0.11,0.07,0.11,0.25,0.11h0.79
				c-0.65,2.54-0.68,2.7-0.68,2.86c0,0.48,0.34,0.82,0.82,0.82c0.91,0,1.42-1.31,1.42-1.38c0-0.09-0.07-0.09-0.11-0.09
				c-0.08,0-0.09,0.03-0.13,0.13c-0.39,0.93-0.86,1.15-1.17,1.15c-0.19,0-0.28-0.12-0.28-0.41c0-0.21,0.02-0.28,0.05-0.43
				L141.13,104.78"/>
			<path style="clip-path:url(#SVGID_00000085251675893751892750000008940335480796674716_);" d="M145.13,106.12
				c0-0.7-0.1-1.78-0.59-2.8c-0.54-1.1-1.31-1.68-1.4-1.68c-0.05,0-0.09,0.04-0.09,0.09c0,0.03,0,0.04,0.17,0.21
				c0.88,0.89,1.39,2.31,1.39,4.19c0,1.53-0.33,3.11-1.44,4.24c-0.12,0.11-0.12,0.13-0.12,0.15c0,0.05,0.04,0.09,0.09,0.09
				c0.09,0,0.9-0.61,1.43-1.75C145.02,107.87,145.13,106.87,145.13,106.12"/>
		</g>
	</g>
</g>
</svg>
