<?xml version="1.0" encoding="utf-8"?>
<!-- Generator: Adobe Illustrator 20.1.0, SVG Export Plug-In . SVG Version: 6.00 Build 0)  -->
<svg version="1.1" id="Layer_1" xmlns="http://www.w3.org/2000/svg" xmlns:xlink="http://www.w3.org/1999/xlink" x="0px" y="0px"
	 viewBox="0 0 229.1 152.4" style="enable-background:new 0 0 229.1 152.4;" xml:space="preserve">
<style type="text/css">
	.st0{fill:none;stroke:#000000;stroke-width:3;stroke-miterlimit:10;}
	.st1{fill:none;stroke:#000000;stroke-width:1.1;stroke-miterlimit:10;}
	.st2{fill:none;stroke:#000000;stroke-width:0.5;stroke-miterlimit:10;}
	.st3{fill:none;stroke:#000000;stroke-width:4;stroke-miterlimit:10;}
	.st4{fill:none;stroke:#000000;stroke-width:2;stroke-miterlimit:10;}
	.st5{fill:#E6E7E8;stroke:#000000;stroke-width:1.1;stroke-miterlimit:10;}
	.st6{fill:#898989;}
	.st7{fill:none;stroke:#231F20;stroke-width:1.5;stroke-miterlimit:10;}
	.st8{fill:#231F20;}
	.st9{fill:none;stroke:#231F20;stroke-width:2;stroke-miterlimit:10;}
	.st10{font-family:'Helvetica';}
	.st11{font-size:10px;}
	.st12{fill:none;stroke:#000000;stroke-width:1.45;stroke-linejoin:round;stroke-dasharray:2,1;}
	.st13{fill:none;stroke:#EE3333;stroke-width:1.5;stroke-linejoin:round;}
	.st14{fill:#EE3333;}
	.st15{fill:none;stroke:#EE3333;stroke-width:1.5;stroke-miterlimit:10;}
	.st16{fill:#FFFFFF;stroke:#000000;stroke-width:0.81;stroke-linecap:square;stroke-miterlimit:10;}
	.st17{fill:none;stroke:#000000;stroke-width:1.22;stroke-linecap:square;stroke-miterlimit:10;}
	.st18{fill:none;stroke:#77AC30;stroke-width:0.48;stroke-linejoin:round;}
	.st19{fill:none;stroke:#7E2F8E;stroke-width:0.48;stroke-linejoin:round;}
	.st20{fill:none;stroke:#EDB120;stroke-width:0.48;stroke-linejoin:round;}
	.st21{fill:none;stroke:#D95319;stroke-width:0.48;stroke-linejoin:round;}
	.st22{fill:none;stroke:#0072BD;stroke-width:0.48;stroke-linejoin:round;}
	.st23{fill:none;stroke:#262626;stroke-width:0.95;stroke-linecap:square;stroke-linejoin:round;}
	.st24{fill:none;stroke:#262626;stroke-width:1.06;stroke-linecap:square;stroke-linejoin:round;}
	.st25{fill:none;stroke:#EE2222;stroke-width:0.58;stroke-linejoin:round;}
	.st26{fill:none;stroke:#000000;stroke-width:1.59;stroke-linejoin:round;}
	.st27{fill:none;stroke:#000000;stroke-width:1.59;stroke-linejoin:round;stroke-dasharray:2.45,1.23;}
	.st28{fill:none;stroke:#000000;stroke-width:1.59;stroke-linejoin:round;stroke-dasharray:2.05,1.03;}
	.st29{fill:none;stroke:#000000;stroke-width:1.59;stroke-linejoin:round;stroke-dasharray:2.27,1.13;}
	.st30{fill:none;stroke:#000000;stroke-width:1.59;stroke-linejoin:round;stroke-dasharray:2.1,1.05;}
	.st31{fill:none;stroke:#000000;stroke-width:1.59;stroke-linejoin:round;stroke-dasharray:2.09,1.04;}
	.st32{fill:none;stroke:#000000;stroke-width:1.59;stroke-linejoin:round;stroke-dasharray:2.15,1.08;}
	.st33{fill:none;stroke:#000000;stroke-width:1.59;stroke-linejoin:round;stroke-dasharray:2.06,1.03;}
	.st34{fill:none;stroke:#000000;stroke-width:1.59;stroke-linejoin:round;stroke-dasharray:2.34,1.17;}
	.st35{fill:none;stroke:#000000;stroke-width:1.59;stroke-linejoin:round;stroke-dasharray:2.04,1.02;}
	.st36{fill:none;stroke:#000000;stroke-width:1.59;stroke-linejoin:round;stroke-dasharray:2.61,1.31;}
	.st37{fill:none;stroke:#000000;stroke-width:1.59;stroke-linejoin:round;stroke-dasharray:0.24;}
	.st38{font-size:10.8px;}
</style>
<title>Artboard 1</title>
<line class="st0" x1="33.3" y1="110.9" x2="30.3" y2="89.8"/>
<polygon points="29.4,83.5 34.3,91.8 30.4,90.2 27.1,92.8 "/>
<line class="st1" x1="61.6" y1="107.8" x2="63.6" y2="93.6"/>
<polygon points="64.2,89.4 65.8,95.7 63.5,93.9 60.9,95 "/>
<line class="st2" x1="43.4" y1="108.8" x2="40.7" y2="89.1"/>
<polygon points="40.4,86.5 42.4,90 40.8,89.3 39.4,90.4 "/>
<line class="st3" x1="52.5" y1="108.8" x2="52.4" y2="94.4"/>
<polygon points="52.4,87 56.7,97.4 52.4,94.9 48.2,97.4 "/>
<line class="st4" x1="70.3" y1="109.8" x2="75.7" y2="89.5"/>
<polygon points="77.2,84.1 78.3,92.6 75.6,89.9 72,90.9 "/>
<polygon class="st5" points="88.3,77.3 62.8,89.6 2,79.7 30.5,67.4 "/>
<path class="st6" d="M13.2,78.6c1.3,0.2,1.8,0.5,1.2,0.8c-1.1,0.3-2.3,0.3-3.4,0.1c-1.3-0.2-1.8-0.5-1.2-0.8
	C10.9,78.5,12.1,78.4,13.2,78.6z"/>
<path class="st6" d="M45.8,75.8c1.3,0.2,1.8,0.5,1.2,0.8c-1.1,0.3-2.3,0.3-3.4,0.1c-1.3-0.2-1.8-0.5-1.2-0.8
	C43.5,75.6,44.7,75.6,45.8,75.8z"/>
<path class="st6" d="M40.6,70.8c1.3,0.2,1.8,0.5,1.2,0.8c-1.1,0.3-2.3,0.3-3.4,0.1c-1.3-0.2-1.8-0.5-1.2-0.8
	C38.3,70.6,39.5,70.6,40.6,70.8z"/>
<path class="st6" d="M61.3,77.2c1.3,0.2,1.8,0.5,1.2,0.8c-1.1,0.3-2.3,0.3-3.4,0.1c-1.3-0.2-1.8-0.5-1.2-0.8
	C59,77.1,60.1,77.1,61.3,77.2z"/>
<path class="st6" d="M35.9,79.5c1.3,0.2,1.8,0.5,1.2,0.8c-1.1,0.3-2.3,0.3-3.4,0.1c-1.3-0.2-1.8-0.5-1.2-0.8
	C33.6,79.3,34.8,79.3,35.9,79.5z"/>
<path class="st6" d="M77.6,76.9c1.3,0.2,1.8,0.5,1.2,0.8c-1.1,0.3-2.3,0.3-3.4,0.1c-1.3-0.2-1.8-0.5-1.2-0.8
	C75.3,76.7,76.5,76.7,77.6,76.9z"/>
<path class="st6" d="M64.7,84.2c1.3,0.2,1.8,0.5,1.2,0.8c-1.1,0.3-2.3,0.3-3.4,0.1c-1.3-0.2-1.8-0.5-1.2-0.8
	C62.4,84.1,63.6,84,64.7,84.2z"/>
<polygon class="st6" points="31.9,71.4 28.3,72.3 26,71 "/>
<polygon class="st6" points="23.6,75.5 24,76.8 18.7,76 "/>
<polygon class="st6" points="71.6,81.5 66.9,80.3 73.2,80.1 "/>
<polygon class="st6" points="45.9,83.9 40.1,83 45.6,82.5 "/>
<line class="st1" x1="20.4" y1="76.2" x2="18.6" y2="58.7"/>
<line class="st1" x1="26.5" y1="79.7" x2="18.6" y2="58.7"/>
<line class="st1" x1="11.5" y1="77.4" x2="18.6" y2="58.7"/>
<line class="st1" x1="13.9" y1="81.4" x2="18.6" y2="58.7"/>
<polyline class="st7" points="89.4,32.7 84,29.9 18.7,30.3 18.7,59.7 "/>
<polygon class="st8" points="93.7,34.9 88.9,29.4 89.1,32.5 86.4,34.2 "/>
<line class="st1" x1="74.2" y1="78.2" x2="72.6" y2="60.7"/>
<line class="st1" x1="80.3" y1="81.8" x2="72.6" y2="60.7"/>
<line class="st1" x1="65.3" y1="79.3" x2="72.4" y2="60.6"/>
<line class="st1" x1="67.8" y1="83.4" x2="72.6" y2="60.7"/>
<polyline class="st9" points="89.1,49.9 82.6,53.5 72,53.3 72,61 "/>
<polygon class="st8" points="93.4,47.7 86.2,48.6 88.9,50.2 88.9,53.4 "/>
<line class="st1" x1="37.8" y1="71.6" x2="36.1" y2="55.1"/>
<line class="st1" x1="43.9" y1="75.1" x2="36.1" y2="55.1"/>
<line class="st1" x1="28.9" y1="72.8" x2="36.1" y2="55.1"/>
<line class="st1" x1="31.4" y1="76.8" x2="36.1" y2="55.1"/>
<line class="st1" x1="55.3" y1="77.5" x2="53.6" y2="59.9"/>
<line class="st1" x1="61.4" y1="81" x2="53.6" y2="59.9"/>
<line class="st1" x1="46.4" y1="78.7" x2="53.6" y2="59.9"/>
<line class="st1" x1="48.9" y1="82.7" x2="53.6" y2="59.9"/>
<polyline class="st7" points="88.1,38.7 83.5,37.2 53.6,37.3 53.7,61 "/>
<polygon class="st8" points="92.6,40.1 87.1,35.5 87.7,38.6 85.4,40.7 "/>
<polyline class="st7" points="86.9,44.4 83.5,44.9 35.7,45.3 35.7,55.6 "/>
<polygon class="st8" points="91.7,43.8 84.6,42 86.6,44.5 85.4,47.4 "/>
<text transform="matrix(1 0 0 1 19.17 12.18)" class="st10 st11">output weights</text>
<text transform="matrix(1 0 0 1 19.18 24.18)" class="st10 st11">(RLS learning)</text>
<circle class="st1" cx="102.2" cy="41.3" r="9.5"/>
<line class="st1" x1="102.2" y1="35.7" x2="102.2" y2="47.1"/>
<line class="st1" x1="96.6" y1="41.4" x2="107.9" y2="41.4"/>
<path class="st12" d="M90.7,21.3c0.1,0.1,0.2,0.2,0.3,0.3l-0.9,0c0.9,0.8,1.7,0.5,2.3-0.4 M92.2,21.3c0.5-0.9,1-1.9,1.4-2.8
	c0.3-0.9,0.8-1.7,1.4-2.4 M94.9,16.1c1.4-1.4,2.6,4.5,2.8,5.1 M97.6,21c0.4,1.8,0.8,3.7,1.3,5.5c0.2,0.8,0.5,2.7,1.4,3 M100.3,29.5
	c1.4,0.5,2.6-7.3,2.8-8.3 M103,21.5c0.3-1.8,0.7-3.6,1.1-5.4c0.1-0.6,0.6-3.4,1.6-3.2 M105.7,12.9c0.9,0.3,1.2,2.2,1.4,2.9
	c0.5,1.8,0.9,3.6,1.3,5.4 M108.4,21c0.1,0.6,1.4,6.6,2.8,5.4 M111.1,26.3c0.6-0.7,1.1-1.4,1.4-2.3c0.4-1,0.8-1.9,1.4-2.9
	 M113.8,21.3c0.3-0.5,0.8-1.1,1.4-1s1,0.6,1.3,1 M116.5,21.2L116.5,21.2"/>
<path class="st13" d="M90.4,74.8c0.5,0.1,0.9,0,1.2,0.3c0.1,0.1,0.2,0.4,0.3,0.5c0.4,0.3,0.6,0.1,0.9-0.3c0.6-1.1,1-2.2,1.3-3.4
	 M93.9,72.2c0.7-2.2,1.4-4.7,2.7-6.6 M96.6,65.7c1.4-2.1,2.4,1.6,2.7,2.6 M99.3,68c0.6,1.9,0.9,3.9,1.4,5.9c0.2,1.7,0.7,3.4,1.4,5
	 M101.9,78.8c0.7,1.6,1.4-0.8,1.6-1.4c0.5-1.8,0.8-3.6,1.1-5.4 M104.6,72.2c0.3-1.8,0.6-3.6,1-5.4c0.1-0.4,0.7-4.1,1.7-3.6
	 M107.2,63.2c0.9,0.5,1.1,2.3,1.4,3.2c0.5,1.7,0.9,3.4,1.3,5.1 M109.9,71.3c0.3,1.3,0.7,2.6,1.2,3.8c0.3,0.6,0.9,1.6,1.5,0.6
	 M112.6,75.8c1.4-1.9,1.6-4.6,2.7-6.7 M115.3,69.2c0.3-0.5,0.8-1.4,1.5-1.2s1,1.3,1.2,1.8 M117.9,69.7l0.1,0.1"/>
<text transform="matrix(1 0 0 1 90.27 90.02)" class="st14 st10 st11">output</text>
<text transform="matrix(1 0 0 1 90.66 8.69)" class="st10 st11">target</text>
<line class="st15" x1="102.8" y1="51.3" x2="102.8" y2="58.2"/>
<polygon class="st14" points="102.8,63 100.1,56.2 102.8,57.8 105.5,56.2 "/>
<rect x="24.8" y="107.2" class="st16" width="53.6" height="31.4"/>
<path class="st17" d="M25.2,122.8c0.9-1.4,1.7-2.7,2.6-4 M27.8,118.9c0.9-1.3,1.8-2.6,2.7-3.8 M30.4,115.2c0.8-1.1,1.7-2.1,2.7-3
	 M33.1,112.2c0.8-0.8,1.7-1.4,2.7-1.9 M35.7,110.2c0.8-0.4,1.8-0.7,2.7-0.7 M38.4,109.5c0.9,0,1.9,0.2,2.7,0.7 M41,110.2
	c1,0.5,1.9,1.1,2.7,1.9 M43.7,112.1c1,0.9,1.9,1.9,2.7,3 M46.3,115c1,1.2,1.8,2.5,2.7,3.8 M49,118.7c0.9,1.4,1.8,2.8,2.7,4.2
	 M51.7,122.8c0.9,1.4,1.8,2.8,2.7,4.2 M54.3,127c0.9,1.3,1.8,2.6,2.7,3.8 M57,130.7c0.8,1.1,1.7,2.1,2.7,3 M59.6,133.7
	c0.8,0.8,1.7,1.4,2.7,1.9 M62.3,135.6c0.8,0.4,1.8,0.7,2.7,0.7 M64.9,136.3c0.9,0,1.9-0.2,2.7-0.6 M67.5,135.7
	c1-0.5,1.9-1.1,2.7-1.9 M70.2,133.8c1-0.9,1.9-1.9,2.7-3 M72.8,130.8c1-1.2,1.8-2.5,2.7-3.8 M75.5,127.1c0.9-1.4,1.8-2.8,2.7-4.2
	 M78.1,123L78.1,123"/>
<text transform="matrix(1 0 0 1 15.14 147.59)" class="st10 st11">input (100 trials)</text>
<path class="st18" d="M141.4,62c1.7-1,2.8-3.2,3.8-4.9s1.9-3.3,2.8-5c0.6-1,1.1-1.9,1.6-2.8 M149.5,49.5c2.5-4.8,4.7-9.9,6.6-15
	c0.6-1.6,1.3-3.1,2-4.6 M157.9,30.2c0.8-1.6,1.8-3.8,3.4-4.3c1.8-0.6,3.1,1.8,3.8,3.3c0.5,1,1,2.1,1.4,3.2 M166.4,32
	c1,2.5,1.8,5,2.7,7.6c0.4,1.3,0.9,2.5,1.5,3.7c0.4,0.9,1.1,2.7,2.2,2.8c1.2,0.1,1.9-2.2,2.3-3.2 M174.9,43.4c1.4-4.6,2.4-9.3,3-14
	c0.8-4.9,1.6-9.8,2.6-14.6c0.3-1.3,0.6-2.6,1-3.9c0.3-0.9,0.9-3,1.9-2.7 M183.2,8.2c1.2,0,2,2.9,2.3,4c0.5,1.6,0.9,3.3,1.4,5
	c0.8,3.2,1.6,6.5,2.6,9.6c0.5,1.8,1.3,3.5,2.4,5 M191.7,31.6c1.1,1.5,2.6,1.5,4.1,0.9c1.5-0.7,3-1.2,4.5-1.6 M200.1,31
	c2.7-0.5,6.2-0.9,8.6,0.8 M208.6,31.7c1.8,1.2,3,3.3,4.1,5.3c1.1,2.3,2.1,4.7,3,7.1c0.5,1.3,1,2.5,1.5,3.8 M217,47.5
	c0.8,2,1.6,3.9,2.6,5.8c0.8,1.6,1.8,3.6,3.4,4.3c0.9,0.4,2,0.1,2.7-0.6 M225.4,57.1l0.2-0.2 M141.3,57.5c1.2-1.3,2.3-2.8,3.2-4.4
	c1-1.6,2-3.1,3.2-4.5c0.6-0.7,1.2-1.2,1.8-1.8 M149.4,46.9c1.5-1.3,2.8-2.8,3.9-4.5c1.1-1.8,2.2-3.8,3.1-5.7
	c0.5-1.1,1.1-2.2,1.7-3.3 M157.9,33.7c0.8-1.5,1.7-3.4,3.1-4.3c1.7-1.1,3.1,0.6,4.1,2.1c0.5,0.9,1,1.8,1.4,2.8 M166.3,34
	c1,2.3,1.9,4.7,3,7c0.6,1.4,2.3,5.5,4,3.8c0.8-1,1.4-2.2,1.7-3.5 M174.8,41.8c1.4-5.1,2.5-10.3,3.2-15.5c0.8-5.1,1.6-10.3,2.6-15.4
	c0.3-1.4,0.6-2.8,1-4.2c0.3-1.1,0.8-3.2,1.8-3.5 M183.3,3.2c1.9-1,3.6,8.3,3.9,9.7c0.9,3.8,1.7,7.7,2.7,11.5c0.5,2.1,1.2,4.1,2,6.1
	 M191.7,30.1c0.8,1.8,1.8,3.7,3.5,4.3s3.5-0.1,5.1-0.2 M200.1,34.2c3.2-0.3,6,1,8.6,3.2 M208.6,37.2c2.5,2.1,4.8,4.5,6.7,7.1
	c0.7,0.9,1.3,1.9,1.9,2.9 M217,47c0.9,1.5,1.8,3.2,2.7,4.7s1.9,3.6,3.4,4.4c0.9,0.4,2,0.1,2.5-0.7 M225.4,55.6l0.2-0.2 M141.3,55.3
	c2.4-2.8,3.4-6.9,6-9.5c0.7-0.7,1.5-1.3,2.4-1.7 M149.5,44.1c1.6-0.9,3-2.2,4.1-3.7c1.1-1.7,2.1-3.4,3-5.2c0.5-1,1-1.9,1.6-2.8
	 M158,32.6c0.8-1.4,2-3.3,3.5-3.7s2.9,1.5,3.8,2.9c0.5,0.8,0.9,1.7,1.4,2.6 M166.4,34.1c1,2.1,1.9,4.4,2.9,6.5
	c0.6,1.4,2.2,5.2,4,3.8c0.8-0.9,1.4-2,1.7-3.2 M174.8,41.7c1.6-4.6,2.4-9.7,3.3-14.6c0.9-5.1,1.7-10.2,2.7-15.2
	c0.3-1.4,0.6-2.7,1-4.1s0.7-2.9,1.6-3.7 M183.3,4.3c1.4-1.5,2.5,2.4,2.8,3.4c0.6,1.8,1,3.7,1.4,5.6c0.9,3.9,1.7,7.8,2.6,11.7
	c0.5,2.1,1.1,4.2,1.8,6.2 M191.8,30.7c0.5,1.6,1.2,3.2,2.2,4.6c0.9,1.2,2.5,1.8,3.9,1.4c0.8-0.2,1.7-0.5,2.5-0.8 M200.2,36
	c2.8-1,5.8-1,8.6,0 M208.6,35.9c3.6,1.3,5.7,4.8,7.3,8.6c0.5,1.1,0.9,2.2,1.3,3.4 M217.1,47.4c0.9,2.4,1.7,4.8,2.5,7.1
	c0.8,2.2,1.6,4.8,3.1,6.5c1,1.1,2.1,0.7,3-0.4 M225.5,60.8l0.2-0.2 M141.4,56.4c2.1-2.5,3.3-5.9,5.9-7.8c0.8-0.6,1.6-1,2.4-1.5
	 M149.6,47.2c3.4-2,5.1-6.2,6.9-9.9c0.5-1,1.1-2.1,1.7-3.1 M158,34.4c0.8-1.4,1.8-2.9,3.1-3.6s2.8,0.2,3.8,1.4
	c0.6,0.7,1.2,1.5,1.7,2.4 M166.4,34.3c1,1.6,1.9,3.4,2.9,5c0.8,1.3,2.4,4.5,4,3.2c0.8-0.8,1.4-1.9,1.7-3 M174.8,39.9
	c1.6-4.3,2.4-9.2,3.2-13.8c0.9-4.8,1.6-9.7,2.7-14.4c0.3-1.3,0.6-2.7,1-3.9c0.3-1,0.8-2.7,1.7-3.1 M183.3,4.7
	c1.9-1.1,3.6,7.9,3.9,9.2c0.9,3.7,1.6,7.4,2.6,11.1c0.5,2,1.2,3.9,2,5.8 M191.7,30.5c0.8,1.7,1.9,3.3,3.7,3.5s3.4-0.6,4.9-1
	 M200.1,33c1.5-0.5,3.2-0.6,4.7-0.2c1.5,0.5,2.8,1.4,3.9,2.6 M208.6,35.1c2.9,3.1,5.2,6.6,7,10.4c0.6,1.1,1.1,2.3,1.6,3.4 M217,48.6
	c0.9,2,1.8,4.1,2.7,6.1c0.8,1.8,1.7,3.9,3.1,5.2c0.7,0.8,1.9,0.9,2.7,0.2c0,0,0,0,0.1,0 M225.5,60.1l0.2-0.1 M141.4,63.2
	c1.6-1.7,2.5-4.3,3.4-6.5c1-2.4,2-4.9,3.1-7.3c0.6-1.2,1.1-2.4,1.8-3.5 M149.5,46.3c2.1-3.8,4.2-7.6,6.4-11.3
	c0.7-1.2,1.4-2.4,2.2-3.5 M158,31.6c0.9-1.3,2.1-2.8,3.7-2.8s2.8,1.8,3.6,3.3c0.5,0.8,0.9,1.7,1.3,2.6 M166.4,34.3
	c1,2,1.9,4.2,2.9,6.2c0.9,1.7,2.6,4.6,4.2,2.2c0.7-1.1,1.2-2.4,1.5-3.6 M174.8,39.6c1.3-4.5,2.3-9,3-13.6c0.8-4.5,1.6-9.1,2.7-13.6
	c0.3-1.2,0.6-2.5,1-3.7c0.3-0.9,0.9-2.7,1.9-2.7 M183.2,6.1c1.3-0.2,2.1,2.9,2.4,4c0.6,1.7,1,3.5,1.4,5.3c0.9,3.5,1.7,7,2.7,10.4
	c0.5,1.9,1.2,3.8,2.1,5.5 M191.7,31c0.8,1.7,1.9,3.3,3.6,3.6s3.4-0.3,5-0.5 M200.1,34.1c2.9-0.5,5.9-0.6,8.6,0.9 M208.6,34.9
	c3.2,1.7,5.4,5.2,7.1,8.7c0.5,1.2,1,2.3,1.5,3.5 M217,46.7c0.8,2.1,1.6,4.2,2.5,6.3c0.4,1.1,1,2.2,1.5,3.3c0.5,0.9,1.2,2.1,2.1,2.2
	c1.1,0.2,2-1.2,2.5-2.2 M225.5,56.7l0.2-0.3 M141.4,56.9c1.9-3.7,3-8.4,5.7-11.4c0.7-0.8,1.6-1.3,2.6-1.7 M149.5,43.9
	c1.7-0.7,3.2-1.9,4.3-3.4c1.1-1.7,2-3.4,2.8-5.3c0.5-1,1-2,1.5-3 M157.9,32.5c0.8-1.5,1.8-3.5,3.3-4.1c1.7-0.7,3.1,1.4,3.9,2.9
	c0.5,0.9,1,1.9,1.4,2.9 M166.4,33.8c1,2.3,1.9,4.7,2.9,7c0.6,1.4,2.2,5.5,4,3.9c0.8-1,1.4-2.2,1.7-3.4 M174.8,41.7
	c1.4-4.8,2.5-9.7,3.2-14.7c0.9-5,1.6-10,2.7-14.9c0.3-1.4,0.6-2.7,1-4c0.3-1.1,0.8-2.8,1.7-3.4 M183.2,4.9c2-1.6,3.9,7.7,4.2,9.1
	c0.9,3.7,1.6,7.4,2.6,11.1c0.5,2.1,1.1,4.2,1.8,6.3 M191.7,30.9c0.5,1.6,1.2,3.2,2.2,4.6c0.9,1.3,2.6,1.7,3.9,1
	c0.9-0.3,1.6-0.8,2.5-1.2 M200.1,35.4c2.8-1.2,5.9-1,8.6,0.3 M208.6,35.7c3.7,1.7,5.7,5.7,7.3,9.8c0.4,1.1,0.9,2.3,1.3,3.5
	 M217,48.4c0.8,2.3,1.6,4.6,2.4,6.8c0.4,1.1,0.9,2.3,1.4,3.3c0.4,1,1.1,1.9,1.9,2.5c1.2,0.6,2.2-0.7,2.8-1.7 M225.5,59.7l0.2-0.3
	 M141.4,59.7c2-3.7,3-8.5,5.8-11.7c0.7-0.8,1.6-1.4,2.5-1.9 M149.5,46.2c1.7-0.9,3.2-2.3,4.2-4c1.1-1.8,2-3.7,2.9-5.7
	c0.5-1.1,1-2.2,1.6-3.3 M157.9,33.5c0.7-1.7,1.7-3.3,3-4.7c1.6-1.5,3.1-0.1,4.2,1.5c0.6,0.9,1,1.9,1.5,2.9 M166.4,32.9
	c1.1,2.3,1.9,4.7,3,7c0.7,1.6,2.4,5.3,4.1,2.9c0.7-1.1,1.2-2.4,1.5-3.7 M174.8,39.6c1.3-4.5,2.3-9.2,3-13.8
	c0.8-4.6,1.6-9.3,2.6-13.9c0.3-1.2,1.3-6.9,3-6.2 M183.3,5.7c1.3,0.3,2,3.1,2.4,4.4c0.5,1.7,1,3.5,1.4,5.2c0.9,3.5,1.7,7,2.7,10.5
	c0.5,1.9,1.3,3.8,2.1,5.6 M191.7,31.1c0.8,1.7,1.9,3.2,3.6,3.8c1.6,0.4,3.3,0.4,5,0.2 M200.2,35.1c1.4-0.1,2.9-0.3,4.3-0.5
	c1.4-0.4,2.9-0.4,4.3-0.2 M208.6,34.3c3.9,0.8,5.8,6.4,7.3,10.1c0.5,1.2,0.9,2.4,1.3,3.6 M217,47.6c0.8,2.3,1.6,4.5,2.4,6.8
	c0.8,2.1,1.6,4.6,3.2,6.1c0.7,0.8,1.9,0.9,2.7,0.1c0.1-0.1,0.2-0.2,0.3-0.3 M225.5,60.5l0.2-0.2 M141.4,58.4
	c1.2-1.4,2.3-2.9,3.2-4.5c1-1.5,2-2.9,3.2-4.2c0.6-0.6,1.2-1.2,1.8-1.9 M149.5,48c3-3.1,4.8-7.1,6.8-11.1c0.6-1.1,1.1-2.2,1.8-3.2
	 M158,33.9c0.8-1.4,1.9-3.1,3.4-3.4s2.8,1.1,3.7,2.4c0.5,0.8,1,1.7,1.5,2.5 M166.4,35.1c1,2,1.9,4,2.9,6c0.7,1.4,2.4,5,4.1,3.1
	c0.8-1.1,1.3-2.3,1.6-3.5 M174.8,41.2c1.4-5,2.5-10.1,3.2-15.2c0.9-5.2,1.6-10.5,2.7-15.6c0.3-1.4,0.6-2.7,1-4.1
	c0.3-1.1,0.7-2.9,1.7-3.4 M183.3,3c1.9-1.2,3.7,8,4,9.4c0.9,3.7,1.6,7.3,2.6,11c0.5,2,1.2,4.1,2,6 M191.7,29
	c0.8,1.8,1.8,3.6,3.5,4.3s3.5,0.5,5.1,1 M200.1,34.3c1.5,0.4,2.9,1,4.3,1.7c1.5,0.7,2.9,1.4,4.3,2.3 M208.6,38.2
	c2.7,1.9,5,4.3,6.8,7c0.6,0.9,1.2,1.8,1.9,2.6 M217,47.6c1,1.6,2.2,3.1,3.6,4.5c1.6,1.5,3.3,1.7,5,0.4 M225.4,52.5l0.2-0.1
	 M141.4,52.9c1.2-1.1,2.2-2.5,3.4-3.6c0.7-0.6,1.4-1,2.3-1.3c0.9-0.2,1.7-0.1,2.6-0.3 M149.5,47.7c2.2-0.5,3.5-3.1,4.4-5.3
	c1-2.4,1.8-4.9,2.7-7.3c0.5-1.4,1-2.8,1.5-4.1 M157.9,31.4c0.7-1.8,1.6-4.1,3-5.1c1.8-1.2,3.3,1.3,4.1,2.9c0.6,1.1,1.1,2.3,1.5,3.4
	 M166.3,32.1c0.9,2.3,1.7,4.6,2.6,6.9c0.6,1.4,2.2,6.4,4.1,5.3c1-0.6,1.5-2.4,1.9-3.6 M174.8,41.3c1.4-4.8,2.5-9.6,3.2-14.5
	c0.9-4.9,1.6-9.9,2.7-14.8c0.3-1.3,0.6-2.6,1-3.9c0.3-1,0.8-2.9,1.8-3.2 M183.3,5c2-1.1,3.7,8,4,9.4c0.9,3.6,1.6,7.3,2.6,10.9
	c0.5,2,1.2,4,2,5.9 M191.8,30.7c0.8,1.8,1.7,3.7,3.4,4.5s3.6,0,5.2-0.4 M200.2,34.8c1.5-0.5,3.1-0.5,4.6-0.2c1.5,0.4,2.9,1.2,4,2.4
	 M208.6,36.8c2.9,2.7,5,6.6,7,10.2c0.6,1,1.1,2.1,1.6,3.1 M217.1,49.8c0.8,1.6,1.6,3.1,2.5,4.7c0.8,1.6,1.9,3.1,3.3,4.2
	c0.8,0.7,1.9,0.8,2.8,0.3 M225.5,59.1l0.2-0.1 M141.4,57.5c1.3-0.9,2.5-2.1,3.3-3.5c1.1-1.5,2.1-3,3.1-4.5l1.8-2.6 M149.5,47.3
	c2.7-4,5-8.2,6.9-12.6c0.6-1.2,1.1-2.5,1.7-3.6 M158,31.4c0.8-1.6,1.8-3.6,3.2-4.4c1.7-1,3.1,1.1,3.9,2.6c0.5,1.1,1,2.1,1.5,3.3
	 M166.4,32.4c0.9,2.3,1.8,4.7,2.7,7.1c0.7,1.7,2.5,6.6,4.4,3.7c0.7-1.3,1.2-2.7,1.5-4.1 M174.8,39.7c1.2-4.7,2.2-9.5,2.9-14.3
	c0.8-4.9,1.6-9.8,2.6-14.6c0.2-1.1,1.5-7.4,3.1-5.9 M183.3,4.7c0.7,0.7,1.1,1.5,1.4,2.4c0.3,1,0.6,1.9,0.9,2.9
	c0.5,2.1,1,4.1,1.4,6.2c0.9,4,1.6,8.1,2.7,12.1c0.5,2.2,1.3,4.3,2.3,6.3 M191.7,34.3c0.8,1.6,2,3.1,3.8,2.7s3.2-1.7,4.8-2.5
	 M200.2,34.6c2.6-1.6,6-1.6,8.6,0 M208.6,34.5c3.4,2.1,5.3,6.4,7,10.3c0.6,1.3,1.1,2.7,1.6,4 M217.1,48.4c0.9,2.1,1.7,4.3,2.7,6.3
	c0.7,1.4,2.1,4.2,3.8,3.5c0.9-0.6,1.7-1.4,2.1-2.4 M225.5,56.1l0.2-0.3"/>
<path class="st19" d="M141.4,9.4c1.2-1.9,2.3,1.3,2.7,2.4c0.6,1.7,1,3.5,1.4,5.3c0.9,3.7,1.6,7.4,2.5,11.1c0.5,2,1,3.9,1.7,5.8
	 M149.5,33.5c0.6,1.5,1.7,4.5,3.5,3.6c1.5-0.8,2.5-3,3.4-4.5c0.6-1,1.1-1.9,1.7-2.8 M158,30c0.9-1.4,2.2-3.4,3.8-3.4
	s2.8,2.1,3.5,3.6c0.5,1,0.9,2,1.3,3.1 M166.5,33c1.3,3.5,2.3,7.1,3.2,10.7s1.9,7.4,3,11c0.5,2,1.3,4,2.3,5.8 M174.8,60.2
	c0.3,0.6,0.8,1.2,1.4,1.3s1.1-0.5,1.5-1c0.7-1.2,1.3-2.6,1.7-4c1-2.9,1.7-6,2.5-9c0.5-1.7,0.9-3.4,1.5-5 M183.3,43
	c0.5-1.5,1.5-5.1,3.2-5c0.9,0.1,1.6,1.1,2,1.8s1,1.7,1.5,2.6c0.5,1,1.1,2,1.9,2.8 M191.7,45.1c0.8,0.9,1.8,1.3,2.7,0.5
	c0.8-0.8,1.4-1.8,1.9-2.9c1-2.3,1.9-4.6,2.6-6.9c0.5-1.3,0.9-2.6,1.4-3.9 M200.1,32.3c0.8-2.1,1.6-4.5,3-6.1
	c1.9-2.1,3.4,0.7,4.2,2.6c0.5,1.2,1,2.6,1.4,3.9 M208.5,32.1c1,3.2,1.8,6.4,2.7,9.7c0.4,1.5,0.8,3,1.3,4.5c0.4,1.6,1,3.1,1.8,4.5
	c0.4,0.7,1,1.3,1.7,0.7c0.6-0.7,1-1.4,1.2-2.3 M217,49.7c0.9-2.8,1.6-5.8,2-8.7c0.5-3.1,1-6.2,1.4-9.3c0.9-6.1,1.6-12.1,2.6-18.2
	c0.3-1.8,0.6-3.5,1-5.2c0.2-1.6,0.8-3.2,1.5-4.7 M225.4,3.9l0.2-0.3 M141.3,3.7c1.3-1.5,2.4,3.1,2.7,4c0.5,2,0.9,4,1.4,6.1
	c0.9,4.1,1.7,8.3,2.5,12.3c0.5,2.3,1.1,4.6,1.8,6.8 M149.5,32.3c0.5,1.5,1.4,4.3,3,4.2s2.8-2.4,3.7-3.6c0.6-0.9,1.2-1.7,1.9-2.5
	 M157.9,30.5c1-1.2,2.3-2.6,3.9-2.2s2.6,2.2,3.4,3.7c0.5,1,0.9,2,1.4,3 M166.4,34.6c1.3,3.2,2.4,6.5,3.3,9.8c1,3.3,1.9,6.7,3,10
	c0.5,1.9,1.3,3.7,2.4,5.3 M174.8,59.5c2.2,3.2,4-2.7,4.6-4.6c0.9-3,1.7-6.1,2.5-9.2c0.5-1.7,0.9-3.3,1.5-4.9 M183.3,41.2
	c0.6-1.6,1.9-5.2,3.7-3.3c1.4,1.3,2.1,3.6,3,5.4c0.5,1.1,1.1,2.1,1.9,3 M191.7,46c2,2.4,3.7-0.8,4.5-2.8c1-2.4,1.8-4.9,2.6-7.4
	c0.5-1.5,1-2.9,1.5-4.3 M200.1,31.9c0.8-2.1,1.5-4.5,2.9-6.2c1.8-2.3,3.4,0.2,4.3,2.2c0.5,1.2,1,2.5,1.4,3.7 M208.6,31.1
	c1,3.2,1.9,6.5,2.7,9.8c0.7,3.2,1.7,6.4,2.9,9.5c0.3,0.8,0.7,1.5,1.3,2.1c0.8,0.5,1.4-0.3,1.7-1 M217,51.8c1.3-2.4,1.8-5.6,2.3-8.3
	c0.6-2.9,1-5.8,1.4-8.8c0.9-5.9,1.7-11.9,2.6-17.8c0.4-3.2,1.1-6.4,2.2-9.5 M225.4,7.8l0.2-0.4 M141.3,7.8c1.1-2.1,2.2,0.3,2.7,1.6
	c0.6,1.8,1.1,3.5,1.4,5.3c0.9,3.8,1.6,7.6,2.5,11.3c0.5,2,1,4.1,1.6,6 M149.4,31.6c0.6,1.7,1.2,4.2,2.7,5.2s3.1-1.3,4-2.6
	c0.6-0.9,1.2-1.8,1.9-2.7 M157.9,31.7c0.9-1.2,2.2-2.9,3.8-2.7s2.7,2,3.5,3.5c0.5,0.9,0.9,1.8,1.4,2.8 M166.3,34.9
	c2.7,6.1,4.3,12.7,6.5,19.1c0.5,1.7,1.3,3.4,2.2,4.9 M174.8,58.7c0.7,1.1,1.7,1.6,2.7,0.6c0.8-1,1.4-2.1,1.8-3.3
	c1-2.5,1.8-5,2.6-7.5c0.5-1.4,1-2.8,1.6-4.1 M183.3,44.7c0.6-1.4,1.4-3.3,2.8-3.9s2.7,0.9,3.8,1.8c0.6,0.6,1.3,1.1,2.1,1.4
	 M191.7,44c2.1,0.8,3.5-1.9,4.4-3.7c1-2.1,1.8-4.3,2.7-6.5c0.5-1.2,1-2.5,1.5-3.7 M200.2,30.4c0.7-1.7,1.8-4.6,3.6-5.1
	c1.9-0.6,3.2,2.9,3.8,4.5c0.5,1.2,0.9,2.5,1.3,3.8 M208.6,33c1,3.1,1.8,6.3,2.6,9.5c0.8,3,1.5,6.4,3,9.1c0.4,0.7,1,1.6,1.8,1.1
	c0.6-0.6,1.1-1.4,1.3-2.2 M217.1,51c0.9-2.8,1.6-5.7,2-8.6c0.5-3,0.9-6,1.4-9c0.9-6.3,1.6-12.6,2.7-18.8c0.3-1.6,0.6-3.3,0.9-4.9
	s0.7-3.6,1.6-4.8 M225.5,5.1l0.2-0.2 M141.4,4.6c1.8-1.2,3.6,9.2,3.9,10.6c0.8,4.1,1.6,8.2,2.5,12.2c0.5,2.2,1.1,4.4,1.9,6.5
	 M149.5,33.4c0.6,1.5,1.7,3.9,3.5,3.1c1.4-0.6,2.4-2.3,3.3-3.6c0.6-0.8,1.2-1.7,1.8-2.5 M158,30.5c1-1.3,2.2-3,3.8-3s2.8,2,3.6,3.5
	c0.5,1,0.9,2,1.3,3.1 M166.4,33.6c1.3,3.4,2.2,7,3.2,10.6s1.9,7.2,3,10.7c0.5,1.9,1.3,3.7,2.4,5.3 M174.8,60c2.1,2.9,3.9-2,4.6-3.9
	c1-2.7,1.7-5.5,2.5-8.3c0.5-1.6,1-3.2,1.5-4.7 M183.3,43.6c0.6-1.6,1.3-4.1,2.8-4.8s3.1,1.7,3.9,2.9c0.5,0.8,1.2,1.6,1.9,2.2
	 M191.7,43.7c2.1,1.8,3.6-0.7,4.6-2.7c1-2.2,1.9-4.5,2.7-6.9c0.4-1.2,0.9-2.5,1.4-3.7 M200.2,31c0.8-2,1.6-4.6,3.2-5.9
	c2-1.7,3.4,1.6,4.1,3.3c0.5,1.3,0.9,2.6,1.3,3.9 M208.6,31.7c1,3.3,1.8,6.7,2.7,10.1c0.7,3.2,1.6,6.3,2.9,9.4
	c0.3,0.6,0.8,1.7,1.5,1.7s1.2-1.1,1.5-1.8 M217.1,51.5c1-2.7,1.7-5.6,2.1-8.5c0.5-2.9,1-5.9,1.4-8.8c0.9-6,1.6-11.9,2.6-17.8
	c0.3-1.6,0.6-3.2,0.9-4.8c0.3-1.6,0.8-3.1,1.5-4.5 M225.5,7.3l0.2-0.3 M141.4,5.2c1.3-1.6,2.4,2.5,2.6,3.4c0.6,1.9,1,3.9,1.4,5.9
	c0.8,3.8,1.5,7.5,2.4,11.3c0.5,2.1,1.1,4.2,1.8,6.3 M149.5,31.7c0.6,1.5,1.5,4.1,3.2,3.8c1.5-0.2,2.7-2.2,3.6-3.5
	c0.6-0.8,1.2-1.7,1.8-2.4 M158,29.8c1-1.2,2.2-2.6,3.8-2.6s2.7,1.7,3.5,3.1c0.5,0.9,0.9,1.8,1.3,2.8 M166.4,32.8
	c1.3,3.3,2.4,6.7,3.4,10.1c1,3.5,1.9,6.9,3,10.3c0.5,1.9,1.2,3.6,2.2,5.3 M174.8,58.3c0.7,1.2,1.8,2,2.8,0.8
	c0.8-1.1,1.4-2.3,1.8-3.6c1-2.6,1.7-5.3,2.5-8c0.5-1.5,1-3.1,1.5-4.5 M183.3,43.3c0.6-1.5,1.8-4.9,3.7-3.5c1.4,1,2.2,3.2,3.1,4.7
	c0.5,1,1.1,1.9,1.9,2.6 M191.7,47c2.2,2.2,3.8-1.8,4.6-3.8c1-2.5,1.8-5.2,2.6-7.8c0.5-1.5,1-3.1,1.5-4.6 M200.1,31.4
	c0.7-2.1,1.5-4.7,3-6.3c1.9-2.1,3.5,1,4.2,2.8c0.5,1.3,1,2.6,1.4,4 M208.6,31.3c1,3.3,1.9,6.6,2.7,9.9c0.7,3.3,1.7,6.6,2.9,9.8
	c0.3,0.8,0.7,1.6,1.2,2.2c0.8,0.7,1.4,0,1.8-0.8 M217.1,52.7c1.3-2.3,1.8-5.5,2.3-8.3c0.6-3,1-6,1.4-9c0.9-5.9,1.6-11.9,2.6-17.8
	c0.5-3.2,0.9-6.9,2.3-9.8 M225.5,8.1l0.2-0.4 M141.4,6.3c1.3-2.2,2.4,2.1,2.7,3.1c0.5,2,1,4,1.4,5.9c0.8,4.1,1.6,8.2,2.5,12.3
	c0.5,2.2,1,4.3,1.7,6.5 M149.5,33.7c0.5,1.5,1.4,4.4,3,4.4s2.9-2.4,3.7-3.7c0.6-0.9,1.2-1.9,1.9-2.8 M157.9,31.9
	c0.9-1.3,2.1-2.8,3.6-3s2.8,1.6,3.6,3.1c0.5,0.9,1,1.9,1.4,2.9 M166.3,34.5c1.2,3.2,2.3,6.4,3.2,9.7c1,3.3,1.9,6.6,3,9.9
	c0.5,1.8,1.3,3.5,2.4,5 M174.8,58.8c2.2,2.7,4-3.1,4.5-4.9c0.9-2.8,1.6-5.7,2.5-8.6c0.5-1.6,1-3.2,1.6-4.8 M183.3,40.9
	c0.7-1.7,2-4.5,3.8-2.6c1.3,1.4,2,3.4,3,5.1c0.5,1,1.1,1.8,1.9,2.6 M191.7,45.8c2.2,2,3.8-2.1,4.5-3.9c1-2.4,1.8-5,2.6-7.5
	c0.5-1.5,1-2.9,1.5-4.4 M200.2,30.5c0.7-2,1.5-4.6,3.1-5.9c2-1.8,3.5,1.7,4.2,3.4c0.5,1.3,0.9,2.6,1.3,3.9 M208.6,31.4
	c1,3.3,1.9,6.8,2.7,10.2c0.7,3.4,1.7,6.7,2.9,9.9c0.3,0.7,0.7,1.9,1.5,2.1s1.3-1,1.6-1.7 M217,52.4c1.1-3,1.8-6.1,2.2-9.2
	c0.5-3.2,1-6.5,1.4-9.7c0.9-6.5,1.6-13.1,2.6-19.6c0.3-1.7,0.6-3.5,0.9-5.2c0.3-1.8,0.8-3.6,1.5-5.2 M225.5,3.7l0.2-0.3 M141.4,6.3
	c1.3-1.7,2.4,2.3,2.7,3.3c0.5,1.9,1,3.8,1.4,5.7c0.8,3.7,1.5,7.5,2.4,11.2c0.5,2.1,1.1,4.1,1.8,6.1 M149.5,32.1c0.6,1.5,1.5,4,3.1,4
	c1.5,0,2.8-2,3.6-3.2c0.6-0.8,1.2-1.7,1.8-2.5 M158,30.6c0.9-1.2,2-2.7,3.4-3.2c1.7-0.6,3,0.8,3.9,2.3c0.5,0.9,1,1.8,1.3,2.8
	 M166.4,32.1c1.3,3.4,2.4,6.9,3.3,10.5c1,3.6,1.9,7.3,3,10.9c0.5,2,1.3,3.9,2.3,5.7 M174.8,58.9c2.1,3.4,3.9-2.3,4.5-4.3
	c0.9-2.9,1.6-5.9,2.5-8.8c0.4-1.6,1-3.3,1.7-4.8 M183.3,41.4c0.4-0.8,0.9-2.2,1.9-2.2s1.6,1.3,2,2c1,2,1.8,4.2,2.8,6.3
	c0.5,1,1.1,2.2,2,2.7 M191.7,50c2.2,1.3,3.8-4.6,4.4-6.2c0.9-2.8,1.7-5.6,2.6-8.4c0.5-1.7,1-3.3,1.6-5 M200.2,30.9
	c0.7-1.9,1.5-4.5,3.1-5.7c2-1.5,3.5,1.7,4.2,3.4c0.5,1.2,0.9,2.5,1.4,3.7 M208.6,31.7c1,3.1,1.8,6.2,2.7,9.4
	c0.7,3.1,1.6,6.1,2.9,8.9c0.3,0.6,0.8,1.7,1.5,1.7s1.2-1.1,1.5-1.8 M217.1,50.4c1-2.7,1.7-5.4,2.1-8.2c0.5-2.9,1-5.9,1.4-8.8
	c0.8-5.7,1.6-11.4,2.5-17c0.3-1.7,0.6-3.3,1-4.9c0.3-1.4,0.6-3.2,1.6-4.2 M225.5,7.3l0.2-0.2 M141.4,4c1.3-1,2.3,4.3,2.5,5.2
	c0.5,2.3,0.9,4.6,1.3,6.9c0.8,4.5,1.5,9,2.4,13.4c0.5,2.5,1.1,4.9,2,7.2 M149.6,36.3c0.3,1,0.8,2,1.4,2.7c0.9,0.7,1.7,0.1,2.4-0.6
	c1.2-1.7,2.3-3.5,3.1-5.4c0.5-1,1.1-2.1,1.7-3 M158,30.3c0.9-1.4,2.2-3.7,4-3.3s2.6,2.6,3.4,4.1c0.5,1.1,0.9,2.2,1.3,3.3
	 M166.4,33.9c1.2,3.5,2.2,7.1,3.2,10.6s1.9,7.4,3,11c0.5,2,1.3,3.9,2.3,5.6 M174.8,60.9c2.4,3.7,4.2-3.5,4.7-5.5
	c0.9-3.3,1.6-6.8,2.4-10.2c0.4-1.9,0.9-3.8,1.4-5.6 M183.3,40.2c0.3-1.2,0.7-2.3,1.2-3.4c0.4-0.9,1-2.2,1.9-2.3s1.7,1.3,2.2,2.1
	s1,1.9,1.5,2.9c0.5,1.1,1.1,2.1,1.9,3.1 M191.7,42.5c0.7,1,1.7,1.5,2.7,0.7c0.8-0.8,1.4-1.8,1.8-2.9c1-2.3,1.8-4.8,2.6-7.2
	c0.5-1.4,0.9-2.7,1.4-4.1 M200.2,29.5c0.7-2,1.6-4.8,3.2-6c2-1.6,3.5,2.4,4.1,4.1c0.5,1.3,0.9,2.7,1.3,4.1 M208.6,31.1
	c1,3.4,1.8,6.9,2.6,10.3c0.7,3.5,1.7,6.9,2.8,10.2c0.3,0.9,0.7,1.7,1.4,2.4c0.9,0.7,1.5-0.5,1.9-1.3 M217.1,53
	c1.1-2.6,1.8-5.3,2.1-8c0.5-2.9,1-5.8,1.4-8.7c0.8-5.6,1.6-11.3,2.6-16.9c0.3-1.6,0.6-3.2,0.9-4.7c0.3-1.3,0.7-3.2,1.6-4.1
	 M225.5,10.7l0.2-0.2 M141.4,6.5c1.7-1.1,3.5,9.6,3.7,10.9c0.8,4.3,1.6,8.5,2.5,12.8c0.5,2.3,1.1,4.5,2,6.7 M149.5,36.5
	c0.3,1,0.9,1.8,1.7,2.4c0.9,0.4,1.7-0.4,2.3-1.1c1.2-1.7,2.2-3.4,3-5.3c0.5-1,1-1.9,1.5-2.9 M157.9,29.9c0.8-1.5,2-3.6,3.6-4
	s3,1.9,3.7,3.4c0.5,1.1,0.9,2.1,1.3,3.2 M166.4,32c1.3,3.7,2.3,7.5,3.3,11.3s1.8,7.5,2.9,11.2c0.6,1.9,1.2,4.3,2.4,5.8 M174.8,60.1
	c2.3,3,4.1-5.3,4.5-6.9c0.9-3.5,1.6-7.1,2.4-10.6c0.4-2,1-3.9,1.7-5.8 M183.3,37.2c0.4-0.9,1-2.8,2-2.8s1.7,1.8,2.1,2.7
	c1,2.4,1.7,4.9,2.6,7.3c0.4,1.4,1.1,2.7,1.8,3.9 M191.7,48.1c0.4,0.5,0.8,1.1,1.4,1.2s1.1-0.5,1.5-1.1c0.8-1.3,1.4-2.7,1.8-4.1
	c1-2.9,1.7-5.9,2.5-8.9c0.4-1.7,0.9-3.3,1.4-5 M200.1,30.8c0.7-2.4,1.4-5.5,3-7.4c2.1-2.5,3.7,2.4,4.3,4.1c0.5,1.5,0.9,3,1.3,4.6
	 M208.6,31.4c0.9,3.4,1.7,6.9,2.5,10.4c0.7,3.4,1.7,6.8,2.9,10.1c0.3,0.7,0.8,1.9,1.5,2.1s1.4-1.2,1.7-1.9 M217.1,52.5
	c1-2.9,1.8-5.9,2.2-9c0.5-3,1-6.1,1.4-9.1c0.9-6.4,1.7-12.9,2.7-19.3c0.3-1.7,0.6-3.4,0.9-5.1c0.3-1.6,0.7-3.3,1.4-4.8 M225.5,5.5
	l0.2-0.3 M141.4,8.2c1.2-1.6,2.3,2.1,2.6,3c0.5,1.7,0.9,3.5,1.3,5.2c0.9,3.8,1.6,7.6,2.5,11.3c0.5,2,1.1,4,1.9,5.9 M149.5,33.3
	c0.6,1.5,1.7,3.8,3.5,2.9c1.4-0.7,2.4-2.4,3.3-3.7c0.6-0.8,1.2-1.6,1.8-2.3 M158,30.3c1.1-1.2,2.5-2.3,4-1.7s2.5,2.2,3.3,3.6
	c0.5,0.9,0.9,1.9,1.3,2.8 M166.4,34.7c2.6,6.2,4.1,12.9,6.3,19.3c0.5,1.8,1.3,3.5,2.3,5 M174.8,58.8c2.2,2.8,3.9-3.6,4.4-5.3
	c0.9-3.2,1.7-6.5,2.5-9.7c0.4-1.7,1-3.4,1.7-5 M183.3,39.2c0.4-0.9,1.1-2.6,2.1-2.2c0.9,0.3,1.5,1.8,1.9,2.7c1,2.2,1.7,4.5,2.6,6.8
	c0.4,1.2,1.1,2.4,1.9,3.3 M191.7,49.6c2.2,2.2,4-4.1,4.5-5.8c0.9-2.9,1.7-5.8,2.5-8.8c0.5-1.7,1-3.4,1.5-5 M200.1,30.6
	c0.7-2,1.5-5.1,3.2-6.3c2-1.4,3.5,2.7,4.1,4.3c0.5,1.4,0.9,2.8,1.3,4.2 M208.6,32.1c0.9,3.3,1.7,6.6,2.6,9.9s1.5,6.9,3,9.9
	c0.4,0.7,1,1.8,1.8,1.3c0.6-0.6,1.1-1.5,1.3-2.3 M217,51.3c0.9-3,1.6-6.1,2-9.2c0.5-3.2,0.9-6.3,1.4-9.5c0.9-6.4,1.6-12.8,2.6-19.2
	c0.3-1.7,0.6-3.4,0.9-5.1s0.7-3.8,1.7-5 M225.4,3.6l0.2-0.2"/>
<path class="st20" d="M141.4,36.3c0.6,3.4,1.2,6.8,2,10.2c0.4,1.6,0.7,3.2,1.2,4.7c0.4,1.2,1,3.6,2.3,3.9c1.4,0.3,2.4-2.7,2.8-3.8
	 M149.5,51.8c1.3-3.5,2.3-7.1,3.2-10.8c1-3.7,1.9-7.3,3.1-10.9c0.6-2,1.4-3.9,2.3-5.7 M158,24.8c0.8-1.5,1.7-3.3,3.1-3.9
	c1.7-0.8,3.1,0.8,4.1,2.2c0.5,0.9,1,1.8,1.4,2.7 M166.4,25.4c1.5,3.4,2.7,6.9,3.6,10.5c1.1,3.8,2,7.5,3.1,11.3c0.6,2,1.2,4,1.9,5.9
	 M174.8,52.7c0.5,1.2,1.1,3.5,2.4,4c1.4,0.6,2.3-2.3,2.6-3.4c1-3.4,1.9-6.9,2.4-10.4c0.4-2.1,0.8-4.2,1.2-6.2 M183.3,37.6
	c0.6-3.5,1.3-7,2.1-10.5c0.4-1.7,0.8-3.4,1.3-5.1c0.4-1.2,1.1-3.7,2.4-3.9c1.4-0.2,2.4,2.8,2.9,4 M191.7,21.7
	c1.3,3.4,2.4,6.9,3.3,10.5c1,3.7,2,7.3,3.2,10.9c0.6,2,1.4,3.9,2.2,5.7 M200.2,48.5c0.7,1.5,1.7,3.4,3.1,4.1
	c1.6,0.9,3.1-0.6,4.1-2.1c0.6-0.9,1.1-1.9,1.5-2.8 M208.7,48.1c1.5-3.5,2.6-7.1,3.6-10.8c1.1-4,2-8.1,3.1-12.1
	c0.6-2.1,1.2-4.2,1.9-6.2 M217.1,19.5c0.4-1.1,1.4-4.2,2.9-3.6c1.2,0.6,1.8,3,2.2,4.3c1,3.6,1.8,7.3,2.4,11c0.4,2,0.7,4.1,1.1,6.1
	 M225.5,36.4l0.2,0.9 M141.4,38.1c0.6,3.3,1.2,6.5,2,9.7c0.3,1.5,0.8,3,1.3,4.5c0.4,1.1,1.2,3.4,2.5,3s2-2.8,2.4-4 M149.5,51.8
	c1.3-3.4,2.2-7.1,3.2-10.7s1.9-7.2,3.1-10.7c0.6-1.9,1.4-3.8,2.3-5.6 M158,25.2c0.8-1.5,1.8-3.3,3.2-3.8s3,0.8,3.9,2.1
	c0.5,0.8,1,1.7,1.5,2.6 M166.4,25.6c1.5,3.3,2.7,6.7,3.7,10.2c1,3.5,2,6.9,3,10.4c0.6,2,1.2,3.9,1.9,5.8 M174.9,51.7
	c0.5,1.2,1.2,3.5,2.5,3.7s2.1-2.5,2.5-3.6c1-3.2,1.8-6.5,2.4-9.9c0.4-2,0.8-4,1.2-6 M183.3,36.7c0.7-3.4,1.3-6.8,2.1-10.2
	c0.4-1.6,0.8-3.2,1.3-4.8c0.4-1.2,1.1-3.5,2.4-3.7c1.4-0.2,2.4,2.6,2.9,3.8 M191.8,21.4c1.3,3.5,2.4,7.1,3.2,10.7
	c1,3.7,2,7.4,3.1,11c0.6,2,1.4,4,2.2,6 M200.2,48.7c0.6,1.7,1.6,3.3,2.9,4.6c1.6,1.3,3.2,0.1,4.2-1.5c0.6-0.9,1.1-1.9,1.5-3
	 M208.6,49.3c1.5-3.5,2.6-7.2,3.6-10.9c1.1-4.1,2.1-8.2,3.2-12.3c0.6-2.1,1.1-4.2,1.9-6.2 M217,20.4c0.5-1.4,1.1-3.3,2.1-4.1
	c1.4-1.1,2.3,1.3,2.8,2.5c1.1,3.2,1.9,6.5,2.5,9.8c0.4,2,0.8,3.9,1.2,5.9 M225.5,33.6l0.2,0.9 M141.4,35.8c0.6,3.3,1.2,6.6,2,9.8
	c0.4,1.5,0.7,3,1.2,4.4c0.4,1.2,1,3.2,2.1,3.7c1.4,0.7,2.5-2.1,3-3.2 M149.5,50.9c1.3-3.3,2.4-6.7,3.3-10.1c1-3.4,1.9-6.8,3.1-10.1
	c0.6-1.9,1.4-3.7,2.2-5.5 M157.9,25.6c0.6-1.6,1.7-3.1,3-4.2c1.6-1.1,3.1,0,4.2,1.5c0.6,0.9,1.1,1.8,1.5,2.7 M166.4,25.3
	c1.5,3.4,2.7,7,3.7,10.6c1.1,3.8,2,7.7,3.1,11.5c0.6,2,1.1,4,1.9,6 M174.9,53c0.5,1.3,1.1,3.6,2.4,4s2.2-2.2,2.6-3.3
	c1.1-3.4,1.9-6.8,2.5-10.3c0.4-2.1,0.8-4.1,1.2-6.2 M183.3,38.1c0.6-3.4,1.3-6.9,2.1-10.3c0.4-1.7,0.8-3.4,1.3-5
	c0.4-1.2,1-3.4,2.2-3.9c1.5-0.6,2.6,2.4,3,3.6 M191.7,22.1c1.3,3.4,2.4,6.9,3.3,10.4c1,3.6,2,7.2,3.1,10.7c0.6,2,1.4,3.9,2.2,5.8
	 M200.1,48.6c0.7,1.6,1.6,3.5,3,4.5c1.6,1.2,3.1-0.1,4.1-1.7c0.6-0.9,1.1-1.9,1.5-2.9 M208.6,48.9c1.5-3.7,2.8-7.5,3.7-11.4
	c1-3.9,2-7.9,3-11.9c0.6-2.2,1.2-4.4,1.9-6.5 M217,19.7c0.5-1.4,1-3.3,2.1-4.2c1.4-1.1,2.3,1.4,2.8,2.6c1.1,3.3,1.9,6.7,2.5,10.1
	c0.4,2,0.8,4.1,1.2,6.1 M225.5,33.3l0.2,0.9 M141.4,34.8c0.6,3.4,1.3,6.7,2,10.1c0.4,1.5,0.7,3.1,1.2,4.5c0.4,1.3,0.9,3.2,2,4
	c1.4,1,2.5-1.8,3-2.9 M149.4,50.9c1.3-3.2,2.4-6.5,3.2-9.8c1-3.4,2-6.8,3.2-10.2c0.6-1.8,1.4-3.6,2.2-5.3 M157.8,26
	c0.6-1.6,1.7-2.9,3-4c1.6-1,3,0,4.1,1.5c0.6,0.8,1.2,1.7,1.6,2.6 M166.4,25.6c1.5,3.4,2.8,6.9,3.7,10.5c1.1,3.7,2,7.5,3,11.2
	c0.6,2,1.1,4,1.9,6 M174.8,52.9c0.5,1.3,1.1,3.6,2.4,4.1c1.4,0.6,2.3-2.2,2.6-3.3c1-3.3,1.8-6.7,2.4-10.2c0.4-2.1,0.8-4.2,1.2-6.3
	 M183.2,38.1c0.7-3.6,1.3-7.2,2.1-10.7c0.4-1.7,0.8-3.4,1.3-5c0.4-1.3,1-3.5,2.1-4.2c1.5-0.9,2.6,2.2,3.1,3.4 M191.7,21.2
	c1.3,3.5,2.5,7.1,3.4,10.8c1,3.6,2,7.2,3.1,10.7c0.6,2,1.4,4,2.2,5.9 M200.2,48.2c0.6,1.8,1.6,3.4,2.8,4.8c1.5,1.4,3.1,0.6,4.2-1
	c0.6-0.9,1.1-1.9,1.5-2.9 M208.6,49.5c1.6-3.8,2.8-7.7,3.7-11.7c1-3.9,1.9-7.9,2.9-11.9c0.6-2.3,1.2-4.6,2-6.8 M217,19.6
	c0.5-1.4,1-3.5,2.2-4.3c1.4-1,2.4,1.9,2.8,3c1.1,3.4,1.9,6.8,2.5,10.3c0.4,2.1,0.8,4.2,1.2,6.3 M225.5,34l0.2,0.9 M141.4,36.1
	c0.6,3.3,1.2,6.5,2,9.8c0.3,1.5,0.8,3.1,1.3,4.6c0.4,1,1.2,3.3,2.4,3.1s2.1-2.7,2.5-4 M149.5,49.9c1.2-3.2,2.2-6.6,3.1-9.9
	s1.9-6.7,3.2-10c0.6-1.7,1.4-3.4,2.4-5 M158,25.3c0.8-1.4,1.9-3,3.3-3.5s2.9,0.8,3.8,2.1c0.6,0.8,1.1,1.7,1.5,2.6 M166.4,26.1
	c1.5,3.4,2.8,6.9,3.7,10.5c1.1,3.7,2,7.5,3,11.3c0.6,2,1.1,4,1.9,6 M174.8,53.5c0.4,1.2,1.2,3.7,2.5,3.9s2.2-2.7,2.5-3.8
	c1-3.5,1.8-7,2.4-10.5c0.4-2.1,0.8-4.2,1.2-6.3 M183.3,37.6c0.6-3.5,1.3-7.1,2.1-10.5c0.4-1.6,0.8-3.3,1.3-4.9
	c0.4-1.2,1.1-3.6,2.4-3.8c1.4-0.2,2.4,2.7,2.9,3.9 M191.7,21.9c1.3,3.5,2.4,7,3.3,10.5c1,3.6,2,7.3,3.1,10.9c0.6,2,1.4,3.9,2.2,5.8
	 M200.2,48.8c0.6,1.7,1.6,3.2,2.9,4.4c1.6,1.3,3.2,0,4.2-1.6c0.6-1,1.1-2,1.5-3 M208.6,49c1.5-3.8,2.8-7.7,3.7-11.7
	c1-3.9,1.9-7.9,2.9-11.8c0.6-2.3,1.2-4.5,2-6.8 M217.1,19.3c0.5-1.3,1.1-3.7,2.4-4.2c1.4-0.6,2.3,2.5,2.7,3.6
	c1,3.6,1.8,7.2,2.4,10.8c0.4,2.1,0.8,4.1,1.1,6.2 M225.5,34.7l0.2,1 M141.4,36.1c0.6,3.4,1.2,6.8,1.9,10.2c0.4,1.7,0.8,3.4,1.3,5.1
	c0.4,1.2,1,3.6,2.2,4c1.4,0.5,2.4-2.6,2.9-3.8 M149.5,52.1c1.3-3.4,2.2-7,3.2-10.6s2-7.2,3.2-10.7c0.6-1.9,1.4-3.7,2.2-5.5
	 M158,25.5c0.6-1.6,1.7-2.9,3-4c1.6-1,3.1-0.1,4.1,1.4c0.6,0.8,1.1,1.7,1.5,2.6 M166.5,25.2c1.5,3.4,2.8,6.9,3.7,10.6
	c1.1,3.7,2,7.5,3,11.3c0.6,2,1.1,4,1.9,6 M174.9,52.5c0.5,1.3,1.1,3.3,2.2,4.1c1.4,1,2.4-1.9,2.8-3c1.1-3.4,1.9-6.9,2.5-10.4
	c0.4-2,0.8-4.1,1.1-6.1 M183.3,38.1c0.6-3.5,1.3-7.1,2-10.6c0.4-1.8,0.8-3.6,1.3-5.3c0.4-1.3,1-3.5,2.1-4.2c1.5-0.9,2.7,2.4,3.1,3.6
	 M191.7,21.1c1.3,3.5,2.4,7,3.3,10.6c1,3.6,2,7.3,3.2,10.9c0.6,2,1.4,3.9,2.2,5.7 M200.2,47.9c0.7,1.6,1.6,3.4,3,4.3
	c1.7,1.1,3.1-0.3,4.1-1.8c0.6-0.9,1.1-1.9,1.5-2.9 M208.7,47.9c1.4-3.5,2.6-7.2,3.6-10.9c1.1-4,2-8,3.1-11.9c0.6-2.1,1.2-4.1,2-6.1
	 M217.1,19.4c0.4-1.1,1.3-3.8,2.7-3.5c1.4,0.3,2,2.8,2.4,4.1c1,3.4,1.8,6.8,2.4,10.2c0.4,2.1,0.8,4.1,1.2,6.2 M225.6,35.5l0.2,0.9
	 M141.5,37.2c0.6,3.3,1.2,6.6,2,9.8c0.4,1.5,0.7,3,1.2,4.4c0.4,1.2,1,3.3,2.2,3.7c1.4,0.5,2.4-2.2,2.9-3.4 M149.6,52.1
	c1.3-3.4,2.4-6.9,3.3-10.5c1-3.6,2-7.2,3.1-10.7c0.6-1.9,1.3-3.8,2.2-5.7 M158,25.6c0.6-1.6,1.6-3,2.9-4.2c1.6-1.2,3.1-0.1,4.2,1.4
	c0.6,0.9,1.1,1.8,1.5,2.7 M166.4,25.2c1.5,3.4,2.7,6.9,3.6,10.5c1.1,3.7,2,7.5,3.1,11.2c0.6,2,1.2,4,1.9,5.9 M174.9,52.3
	c0.4,1.2,1.2,3.6,2.5,3.7s2.1-2.5,2.5-3.7c1-3.3,1.8-6.7,2.4-10.1c0.4-2,0.8-4,1.2-6 M183.3,37.1c0.6-3.3,1.3-6.5,2-9.8
	c0.4-1.6,0.8-3.2,1.3-4.8c0.4-1.2,1.1-3.3,2.3-3.6c1.5-0.3,2.5,2.5,3,3.7 M191.8,22.3c1.3,3.4,2.4,6.9,3.4,10.4c1,3.5,2,7,3.1,10.4
	c0.6,1.9,1.4,3.9,2.2,5.7 M200.2,48.5c0.7,1.6,1.6,3.6,3,4.5c1.7,1.2,3.2-0.6,4.1-2.2c0.5-1,1-2,1.4-3 M208.6,48.2
	c1.4-3.6,2.6-7.4,3.5-11.1c1.1-4,2-8.1,3.1-12.2c0.6-2.1,1.2-4.3,2-6.3 M217.1,19.1c0.4-1.2,1.1-3.4,2.4-3.8
	c1.4-0.4,2.3,2.3,2.6,3.4c1,3.2,1.8,6.5,2.4,9.9c0.4,2,0.8,4,1.2,6 M225.5,33.7l0.2,0.9 M141.4,35.4c0.6,3.2,1.2,6.5,2,9.7
	c0.4,1.5,0.7,3,1.2,4.5c0.4,1.2,1,3.4,2.3,3.6c1.4,0.3,2.3-2.4,2.8-3.6 M149.6,50c1.2-3.3,2.3-6.6,3.2-10c1-3.4,2-6.8,3.1-10.2
	c0.6-1.8,1.4-3.6,2.2-5.3 M158,24.8c0.8-1.5,1.8-3.2,3.2-3.8c1.6-0.7,3,0.7,3.9,2.1c0.6,0.9,1.1,1.8,1.5,2.7 M166.4,25.5
	c1.5,3.4,2.7,7,3.7,10.6c1.1,3.7,2,7.5,3.1,11.2c0.6,2,1.2,4,1.9,5.9 M174.9,52.8c0.5,1.2,1.2,3.6,2.4,3.9s2.2-2.3,2.6-3.4
	c1-3.3,1.8-6.7,2.4-10.1c0.4-2.1,0.8-4.2,1.2-6.3 M183.3,37.8c0.7-3.6,1.3-7.2,2.1-10.8c0.4-1.6,0.8-3.3,1.3-4.9
	c0.4-1.3,1-3.6,2.3-4.1c1.5-0.5,2.5,2.6,3,3.8 M191.8,21.4c1.3,3.6,2.4,7.3,3.3,11c1,3.7,2,7.5,3.1,11.2c0.6,2,1.4,4,2.2,6
	 M200.3,49.1c0.7,1.7,1.6,3.6,3,4.7c1.7,1.3,3.2-0.2,4.2-1.8c0.6-1,1.1-2,1.5-3 M208.8,49.4c1.4-3.6,2.6-7.3,3.6-11
	c1.1-4.1,2.1-8.2,3.2-12.3c0.6-2.1,1.2-4.2,1.9-6.3 M217.2,20.3c0.5-1.4,1-3.3,2.1-4.1c1.4-1.1,2.3,1.5,2.8,2.6
	c1.1,3.3,1.9,6.8,2.4,10.2c0.4,2.1,0.8,4.1,1.2,6.2 M225.5,34.3l0.2,0.9 M141.4,36c0.6,3.3,1.2,6.7,2,10c0.4,1.6,0.8,3.1,1.2,4.6
	c0.4,1.2,1,3.4,2.2,3.7c1.4,0.3,2.3-2.5,2.8-3.6 M149.5,51.1c1.3-3.5,2.3-7,3.2-10.5c1-3.6,2-7.3,3.1-10.8c0.6-1.9,1.4-3.8,2.2-5.5
	 M157.9,24.5c0.8-1.5,1.8-3.3,3.3-3.7s3,1.1,3.8,2.5c0.6,0.9,1.1,1.8,1.5,2.7 M166.4,25.6c1.5,3.4,2.7,6.8,3.7,10.4
	c1.1,3.6,2,7.2,3,10.8c0.6,2,1.2,4,1.9,5.9 M174.8,52.2c0.5,1.3,1.1,3.3,2.3,3.9c1.4,0.7,2.3-2,2.7-3.1c1.1-3.3,1.9-6.6,2.5-10
	c0.4-2,0.8-4,1.2-6 M183.3,37.9c0.7-3.4,1.3-6.9,2.1-10.2c0.4-1.6,0.8-3.2,1.3-4.8c0.4-1.2,1-3.4,2.2-3.9c1.5-0.6,2.6,2.4,3,3.6
	 M191.7,22.1c1.3,3.4,2.4,7,3.3,10.5c1,3.6,2,7.2,3.1,10.7c0.6,2,1.4,3.9,2.2,5.8 M200.1,48.8c0.6,1.7,1.6,3.3,2.9,4.5
	c1.6,1.3,3.1,0.2,4.2-1.3c0.6-0.9,1.1-1.9,1.5-2.8 M208.6,49.5c1.5-3.7,2.8-7.6,3.7-11.5c1-3.9,1.9-7.8,2.9-11.7
	c0.6-2.3,1.2-4.5,2-6.7 M217.1,20.1c0.5-1.4,1-3.3,2.1-4.2c1.3-1.2,2.3,1,2.8,2.2c1.1,3.2,2,6.5,2.5,9.8c0.4,2,0.8,3.9,1.2,5.9
	 M225.5,32.9l0.2,0.9 M141.4,34.9c0.6,3.3,1.3,6.7,2,10c0.4,1.5,0.7,3.1,1.2,4.6c0.4,1.3,0.9,3.2,2,4c1.4,1,2.6-2,3-3.1 M149.4,50.7
	c1.3-3.4,2.4-6.8,3.2-10.3c1-3.5,2-7.1,3.1-10.5c0.6-1.9,1.4-3.7,2.2-5.4 M157.9,24.8c0.8-1.5,1.7-3.2,3-4c1.6-0.9,3,0.2,4.1,1.7
	c0.6,0.9,1.1,1.8,1.5,2.7 M166.3,24.8c1.5,3.5,2.8,7,3.7,10.7c1.1,3.9,2,7.8,3.1,11.7c0.6,2.1,1.1,4.2,1.8,6.3 M174.7,53
	c0.4,1.6,1.1,3,2,4.4c1.3,1.5,2.4-0.7,2.9-2c1.1-3.2,2-6.6,2.5-9.9c0.4-2,0.8-4.1,1.2-6.1 M183.1,40.2c0.7-3.5,1.3-7.1,2.1-10.6
	c0.4-1.7,0.8-3.5,1.3-5.1c0.4-1.4,0.9-3.4,2-4.4c1.5-1.3,2.7,1.6,3.2,2.8 M191.5,22.5c1.3,3.4,2.5,6.8,3.4,10.4
	c1,3.5,1.9,6.9,3.1,10.3c0.6,1.9,1.4,3.8,2.2,5.7 M200,48.5c0.7,1.6,1.6,3.4,3,4.2c1.6,1,3.1-0.4,4.1-1.9c0.6-0.9,1.1-1.8,1.5-2.8
	 M208.4,48.3c1.5-3.6,2.7-7.4,3.6-11.2c1-3.9,2-7.9,3-11.9c0.6-2.2,1.2-4.4,1.9-6.5 M216.8,19.3c0.5-1.3,1.1-3.4,2.3-4
	c1.4-0.7,2.2,1.8,2.6,2.9c1.1,3.3,1.9,6.6,2.5,10c0.4,2,0.8,4,1.2,5.9 M225.2,33.3l0.2,0.9"/>
<path class="st21" d="M141.4,55.9c2-0.4,3.3-3.2,4.2-5c1-2.2,1.9-4.5,2.7-6.8c0.5-1.3,0.9-2.6,1.4-3.9 M149.5,40.7
	c1.8-5.3,3.6-10.7,6.2-15.5c0.7-1.3,1.5-2.5,2.4-3.7 M158,21.7c1.1-1.4,2.6-2.5,4.4-2.4s3.1,1.4,4.3,2.8 M166.4,21.9
	c3.4,4.1,5.2,10,7,15.3c0.6,1.7,1.1,3.4,1.6,5 M174.9,41.6c0.8,2.5,1.6,5,2.5,7.5c0.7,2.3,1.7,4.5,3.1,6.5c0.8,1,1.9,1.7,3.1,1
	 M183.3,56.7c1.9-1,3.1-4,4.1-6.1c1.1-2.4,2.1-5,3-7.5c0.5-1.3,1-2.6,1.5-3.9 M191.7,39.6c1.7-4.7,3.8-9.2,6.3-13.6
	c0.7-1.1,1.5-2.2,2.4-3.2 M200.2,23.1c1.2-1.3,2.7-2.4,4.4-2.4s3.1,1.2,4.3,2.6 M208.7,23c3.3,3.8,5.2,9.4,7.1,14.4
	c0.5,1.4,1,2.8,1.6,4.3 M217.1,41.2c0.8,2.2,1.6,4.4,2.5,6.6c0.8,2.2,1.9,4.3,3.3,6.3c0.7,1,1.7,1.9,2.9,1.8 M225.6,55.9h0.2
	 M141.5,55.4c2-0.3,3.3-3,4.2-4.9c1-2.2,1.9-4.4,2.7-6.6c0.5-1.3,0.9-2.5,1.4-3.8 M149.6,40.6c1.8-5.2,3.5-10.6,6.1-15.3
	c0.7-1.3,1.5-2.6,2.5-3.7 M158,21.8c1.2-1.4,2.7-2.5,4.4-2.3s3.1,1.4,4.2,2.8 M166.5,22c3.4,4.1,5.2,10,7,15.2
	c0.6,1.7,1.1,3.4,1.6,5 M174.9,41.7c0.8,2.5,1.6,5.1,2.5,7.5c0.7,2.3,1.7,4.4,3.1,6.4c0.8,1,1.9,1.7,3,1.2 M183.3,56.9
	c1.9-0.8,3.1-3.5,4.1-5.5c1.1-2.3,2.1-4.8,3.1-7.2c0.5-1.3,1-2.6,1.5-3.8 M191.8,40.7c1.7-4.9,3.8-9.7,6.2-14.2
	c0.7-1.3,1.5-2.5,2.4-3.6 M200.2,23.1c1.1-1.4,2.6-2.6,4.2-2.7s3.2,1,4.4,2.3 M208.7,22.5c1.7,2,3,4.3,4,6.7
	c1.1,2.5,2.1,5.1,3.1,7.7c0.5,1.5,1,2.9,1.6,4.3 M217.1,40.8c0.8,2.2,1.6,4.4,2.4,6.6c0.8,2.3,1.9,4.4,3.3,6.3
	c0.8,0.9,1.8,1.8,2.9,1.5 M225.5,55.1h0.2 M141.5,55.9c1.9-0.7,3.1-3.4,4.1-5.4c1.1-2.3,1.9-4.6,2.8-7c0.5-1.3,0.9-2.6,1.4-3.9
	 M149.6,40.1c1.8-5,3.6-10.1,6.1-14.7c0.7-1.3,1.5-2.5,2.5-3.6 M158,22c1.2-1.4,2.7-2.5,4.4-2.4s3.1,1.3,4.2,2.7 M166.4,22.1
	c3.4,4,5.3,9.9,7,15.1c0.6,1.7,1.1,3.4,1.6,5.1 M174.9,41.8c0.8,2.6,1.6,5.1,2.5,7.7c0.7,2.3,1.7,4.5,3.1,6.5c0.8,1,1.9,1.8,3,1.1
	 M183.3,57.2c2-1,3.2-4,4.1-6.1c1.1-2.4,2-4.9,3-7.4l1.5-4.1 M191.8,40.1c1.8-4.8,3.6-9.7,6.1-14c0.7-1.2,1.5-2.4,2.5-3.4
	 M200.2,22.8c1-1.4,2.6-2.2,4.4-2.3c1.7,0.1,3.1,1.3,4.3,2.6 M208.7,22.9c3.3,3.8,5.2,9.4,7.1,14.4c0.5,1.4,1,2.8,1.6,4.3
	 M217.1,41.1c0.8,2.2,1.6,4.4,2.5,6.5c0.8,2.2,1.9,4.3,3.2,6.2c0.8,0.9,1.8,1.8,2.9,1.5 M225.6,55.4h0.2 M141.5,55.3
	c1.9-0.6,3.2-3.2,4.1-5.1c1.1-2.2,2-4.5,2.8-6.8c0.5-1.2,0.9-2.5,1.4-3.8 M149.6,40.1c1.8-5,3.6-10,6.1-14.5
	c0.7-1.3,1.5-2.5,2.5-3.7 M158,22.1c1.1-1.4,2.6-2.6,4.3-2.6s3.2,1.2,4.3,2.6 M166.5,21.9c1.7,2.2,3,4.7,4,7.3
	c1.1,2.6,2,5.4,2.9,8.1c0.6,1.7,1.1,3.4,1.6,5.1 M174.9,41.8c0.8,2.6,1.6,5.1,2.5,7.6c0.7,2.3,1.7,4.5,3,6.6c0.8,1.1,1.8,1.9,3,1.2
	 M183.2,57.3c2-0.9,3.2-4.1,4.1-6.2c1.1-2.4,2-5,2.9-7.5c0.5-1.4,1-2.7,1.5-4.1 M191.7,40c1.6-4.8,3.7-9.4,6.1-13.8
	c0.7-1.2,1.5-2.3,2.5-3.4 M200.1,23c1-1.4,2.6-2.2,4.3-2.4c1.7,0.1,3.3,1,4.4,2.4 M208.6,22.8c3.4,3.8,5.3,9.4,7.1,14.3
	c0.5,1.4,1,2.8,1.5,4.2 M217.1,40.8c0.8,2.3,1.6,4.5,2.5,6.7c0.8,2.3,1.9,4.5,3.2,6.5c0.7,1,1.7,2.1,2.9,2 M225.5,56h0.2
	 M141.4,55.4c2-0.3,3.3-3.1,4.2-5c1-2.2,1.9-4.5,2.7-6.8c0.5-1.3,0.9-2.6,1.4-3.9 M149.5,40.1c1.8-5.1,3.5-10.4,6.1-15.1
	c0.7-1.3,1.5-2.5,2.5-3.6 M158,21.7c1.1-1.4,2.7-2.2,4.4-2.2c1.7,0.3,3.2,1.2,4.2,2.6 M166.4,21.8c3.4,4,5.3,9.8,7,15
	c0.6,1.7,1.1,3.4,1.6,5.1 M174.9,41.4c0.8,2.6,1.6,5.1,2.5,7.7c0.7,2.3,1.7,4.6,3.1,6.6c0.8,1,1.9,1.8,3,1.2 M183.3,56.9
	c1.9-0.9,3.1-3.7,4.1-5.8c1.1-2.4,2.1-4.9,3-7.3l1.5-3.9 M191.7,40.4c1.7-4.8,3.7-9.5,6.2-14c0.7-1.2,1.5-2.4,2.4-3.5 M200.1,23.1
	c1-1.4,2.6-2.3,4.3-2.5c1.7,0.2,3.3,1.1,4.3,2.5 M208.6,22.9c3.4,3.8,5.3,9.4,7.1,14.3c0.5,1.4,1,2.8,1.5,4.3 M217,41
	c0.8,2.2,1.6,4.5,2.5,6.6c0.8,2.3,1.9,4.4,3.3,6.4c0.7,1,1.7,1.9,2.9,1.8 M225.4,55.8h0.2 M141.4,55.8c2-0.4,3.3-3.2,4.2-5
	c1-2.2,1.9-4.5,2.7-6.8c0.5-1.3,0.9-2.6,1.4-3.9 M149.5,40.6c1.8-5.2,3.5-10.5,6.1-15.2c0.7-1.3,1.5-2.6,2.5-3.7 M157.9,21.9
	c1.4-2.4,4.5-3.2,6.8-1.8c0.7,0.4,1.3,1,1.8,1.8 M166.4,21.7c1.7,2.2,3.1,4.6,4.1,7.1c1.1,2.6,2,5.3,2.9,8c0.6,1.7,1.1,3.4,1.6,5.1
	 M174.8,41.5c0.8,2.5,1.6,5.1,2.5,7.6c0.7,2.3,1.7,4.5,3.1,6.5c0.8,1,1.9,1.8,3.1,1.1 M183.2,56.7c1.9-1,3.1-3.8,4.1-5.9
	c1.1-2.4,2.1-4.9,3-7.4l1.5-3.9 M191.6,40c1.7-4.8,3.8-9.4,6.2-13.9c0.7-1.2,1.5-2.4,2.4-3.5 M200.1,22.8c1.2-1.3,2.7-2.5,4.4-2.4
	s3.1,1.3,4.2,2.7 M208.5,22.9c3.3,3.8,5.2,9.4,7.1,14.3c0.5,1.4,1,2.8,1.5,4.2 M216.9,41c0.8,2.2,1.6,4.4,2.5,6.6
	c0.8,2.3,1.9,4.4,3.3,6.4c0.7,1,1.7,1.9,2.9,1.7 M225.4,55.7h0.2 M141.3,56.1c2-0.6,3.2-3.4,4.1-5.3c1.1-2.3,1.9-4.7,2.8-7.1
	c0.5-1.3,0.9-2.7,1.4-4 M149.4,40.2c1.8-5.1,3.5-10.4,6.1-15c0.7-1.3,1.5-2.5,2.5-3.6 M157.8,21.8c1-1.4,2.6-2.3,4.4-2.4
	c1.7,0,3.1,1.2,4.3,2.6 M166.3,21.8c1.7,2.2,3,4.7,4,7.3c1.1,2.6,2,5.4,2.9,8.1c0.6,1.7,1.1,3.3,1.6,5 M174.7,41.8
	c0.8,2.4,1.6,4.9,2.4,7.2c0.7,2.3,1.8,4.4,3.1,6.4c0.8,1,1.9,1.6,3,1 M183.1,56.5c1.9-0.9,3.1-3.6,4.1-5.6c1.1-2.3,2.1-4.8,3-7.2
	c0.5-1.3,1-2.6,1.5-4 M191.5,40.1c1.8-4.8,3.6-9.8,6.1-14.1c0.7-1.3,1.5-2.4,2.5-3.5 M199.9,22.7c1.2-1.3,2.7-2.4,4.4-2.3
	s3.1,1.3,4.2,2.7 M208.4,22.9c3.3,3.9,5.2,9.4,7.1,14.4c0.5,1.4,1,2.8,1.6,4.3 M216.8,41.1c0.8,2.2,1.6,4.4,2.5,6.6
	c0.9,2.2,2,4.4,3.5,6.3c0.6,1,1.7,1.7,2.9,1.8 M225.5,55.8h0.2 M141.4,55.4c2-0.3,3.3-2.9,4.2-4.8c1-2.2,1.9-4.4,2.7-6.7
	c0.5-1.3,0.9-2.5,1.4-3.8 M149.5,40.6c1.8-5.2,3.5-10.5,6.1-15.2c0.7-1.3,1.5-2.5,2.5-3.6 M158,22c1-1.4,2.6-2.2,4.4-2.3
	c1.7,0.2,3.3,1.2,4.3,2.6 M166.4,22.1c3.4,4,5.3,9.9,7,15.1c0.6,1.7,1.1,3.4,1.6,5.1 M174.9,41.7c0.8,2.6,1.6,5.1,2.5,7.7
	c0.7,2.3,1.7,4.4,3,6.4c0.8,1.1,1.9,1.8,3.1,1.1 M183.3,57c1.9-1,3.1-4,4.1-6.1c1.1-2.5,2.1-5,3-7.5l1.5-4 M191.7,39.8
	c1.7-4.8,3.7-9.4,6.2-13.8c0.7-1.2,1.5-2.4,2.4-3.4 M200.2,22.8c1.2-1.3,2.6-2.5,4.3-2.6s3.2,1.1,4.3,2.5 M208.6,22.5
	c3.3,3.9,5.2,9.5,7.1,14.4c0.5,1.4,1,2.8,1.5,4.2 M217,40.7c0.8,2.2,1.6,4.5,2.5,6.7c0.8,2.3,1.9,4.4,3.2,6.4c0.7,1,1.7,2,2.8,2
	 M225.5,55.9h0.2 M141.4,55.8c2-0.2,3.3-3.1,4.2-4.9c1-2.2,1.9-4.5,2.7-6.8c0.5-1.3,0.9-2.6,1.4-3.9 M149.5,40.6
	c1.8-5.2,3.5-10.5,6.1-15.2c0.7-1.3,1.5-2.6,2.5-3.7 M158,21.9c1.2-1.4,2.7-2.5,4.4-2.4s3.1,1.4,4.2,2.8 M166.4,22.1
	c3.4,4.1,5.2,10,7,15.2c0.6,1.6,1.1,3.3,1.6,4.9 M174.9,41.6c0.8,2.4,1.6,4.7,2.4,7c0.7,2.3,1.8,4.4,3.1,6.4c0.8,1,1.9,1.7,3,1.2
	 M183.3,56.2c1.9-0.8,3.2-3.5,4.1-5.5c1.1-2.3,2.1-4.7,3-7.2c0.5-1.3,1-2.6,1.5-3.9 M191.7,40.1c1.7-4.8,3.7-9.4,6.1-13.9
	c0.7-1.3,1.5-2.4,2.5-3.5 M200.1,22.9c1.2-1.4,2.6-2.6,4.3-2.6s3.2,1.1,4.3,2.4 M208.6,22.5c1.7,2.1,3,4.4,4,6.9
	c1.1,2.5,2.1,5,3,7.6c0.5,1.5,1.1,3,1.6,4.4 M217,40.9c0.8,2.3,1.6,4.6,2.5,6.9c0.8,2.3,1.9,4.5,3.2,6.6c0.7,1,1.7,2,2.9,2
	 M225.5,56.3h0.2 M141.4,56.6c2-0.4,3.3-3.3,4.1-5.2c1-2.3,1.9-4.7,2.7-7.1c0.5-1.4,0.9-2.8,1.4-4.1 M149.5,40.6
	c1.8-5.2,3.5-10.7,6.1-15.4c0.7-1.3,1.5-2.5,2.5-3.7 M157.9,21.7c1.2-1.3,2.7-2.5,4.4-2.4s3.1,1.3,4.3,2.6 M166.4,21.8
	c3.4,4,5.3,9.8,7,15c0.6,1.6,1.1,3.3,1.6,4.9 M174.8,41.2c0.8,2.6,1.6,5.1,2.5,7.6c0.7,2.4,1.8,4.6,3.1,6.7c0.8,1,1.8,1.9,3,1.4
	 M183.2,57c2-0.7,3.3-3.8,4.2-5.8c1.1-2.3,2-4.8,2.9-7.2l1.6-4 M191.7,40.5c1.8-4.8,3.6-9.7,6.1-14.1c0.7-1.3,1.5-2.4,2.5-3.5
	 M200.2,23.1c1-1.4,2.6-2.2,4.4-2.4c1.7,0.2,3.3,1.1,4.3,2.5 M208.6,23c3.3,3.7,5.2,9.3,7.1,14.1c0.5,1.4,1,2.7,1.5,4.1 M217.1,40.8
	c0.8,2.2,1.6,4.3,2.5,6.4c0.8,2.1,1.9,4,3.2,5.8c0.6,1,1.7,1.5,2.9,1.5 M225.5,54.5h0.2"/>
<path class="st22" d="M141.4,36.9c1.8,3.5,3.9,6.7,6.3,9.8c0.6,0.7,1.3,1.4,2,2 M149.5,48.5c2.4,2.2,5.4,3.6,8.6,4.1 M158,52.6
	c2.8,0.5,5.8,0.5,8.6,0.1 M166.4,52.7c3.2-0.4,6.2-1.6,8.6-3.7 M174.9,49.2c3-2.5,5.1-6.2,7.1-9.7c0.5-0.9,1-1.9,1.6-2.8
	 M183.3,36.9c1.8-3.6,4-7.1,6.5-10.3c0.6-0.8,1.3-1.5,2.1-2.2 M191.7,24.6c2.4-2.3,5.4-3.8,8.6-4.5 M200.2,20.1
	c2.8-0.6,5.8-0.6,8.6-0.1 M208.6,20c3.2,0.5,6.2,2,8.6,4.2 M217.1,24.1c2.9,2.6,5,6.2,7.1,9.8c0.5,0.9,1,1.8,1.6,2.8 M225.5,36.3
	l0.2,0.3 M141.4,37c1.8,3.4,3.9,6.7,6.3,9.7c0.6,0.7,1.3,1.4,2,2 M149.5,48.5c2.4,2.2,5.4,3.6,8.6,4.1 M158,52.6
	c2.8,0.5,5.8,0.5,8.6,0.1 M166.4,52.7c3.2-0.4,6.2-1.7,8.6-3.7 M174.8,49.2c3-2.5,5.1-6.2,7.1-9.7c0.5-0.9,1-1.9,1.6-2.8
	 M183.3,36.9c1.8-3.6,4-7.1,6.5-10.3c0.6-0.8,1.3-1.5,2.1-2.1 M191.7,24.7c2.4-2.3,5.4-3.8,8.6-4.5 M200.2,20.2
	c2.8-0.6,5.8-0.7,8.6-0.1 M208.6,20c3.2,0.5,6.2,2,8.6,4.2 M217,24.1c2.9,2.6,5.1,6.2,7.1,9.7c0.5,0.9,1,1.8,1.6,2.8 M225.5,36.3
	l0.2,0.3 M141.4,36.9c1.8,3.5,3.9,6.7,6.3,9.8c0.6,0.7,1.3,1.4,2,2 M149.5,48.5c2.4,2.2,5.4,3.6,8.6,4.1 M158,52.6
	c2.8,0.5,5.8,0.5,8.6,0.1 M166.4,52.7c3.2-0.4,6.2-1.6,8.6-3.7 M174.8,49.2c3-2.5,5.1-6.2,7.1-9.8c0.5-0.9,1-1.9,1.6-2.8
	 M183.3,36.9c1.8-3.6,4-7,6.6-10.2c0.6-0.7,1.3-1.5,2-2.1 M191.7,24.7c2.4-2.3,5.4-3.9,8.6-4.6 M200.1,20.1c2.8-0.6,5.8-0.7,8.6-0.1
	 M208.6,20c3.2,0.5,6.2,2,8.6,4.2 M217,24c2.9,2.6,5.1,6.2,7.1,9.8c0.5,0.9,1,1.8,1.6,2.8 M225.4,36.3l0.2,0.3 M141.4,37
	c1.8,3.5,3.9,6.7,6.3,9.8c0.6,0.7,1.3,1.4,2,2 M149.5,48.6c2.4,2.1,5.4,3.5,8.6,4 M158,52.6c2.8,0.5,5.8,0.5,8.6,0.1 M166.4,52.7
	c3.2-0.4,6.2-1.7,8.6-3.7 M174.8,49.2c3-2.5,5.1-6.2,7.1-9.7c0.5-0.9,1-1.9,1.6-2.8 M183.3,36.9c1.8-3.6,4-7,6.6-10.2
	c0.6-0.8,1.3-1.5,2-2.1 M191.7,24.7c2.4-2.3,5.4-3.9,8.6-4.6 M200.1,20.2c2.8-0.6,5.8-0.7,8.6-0.1 M208.6,20c3.2,0.5,6.2,2,8.6,4.2
	 M217,24c2.9,2.6,5.1,6.2,7.1,9.8c0.5,0.9,1,1.9,1.6,2.8 M225.4,36.3l0.2,0.3 M141.4,36.9c1.8,3.5,3.9,6.8,6.3,9.8
	c0.6,0.7,1.3,1.4,2,2 M149.5,48.6c2.4,2.1,5.4,3.5,8.6,4 M157.9,52.6c2.8,0.5,5.8,0.5,8.6,0.1 M166.4,52.7c3.2-0.3,6.2-1.6,8.6-3.7
	 M174.8,49.2c3-2.5,5.1-6.2,7.1-9.8c0.5-0.9,1-1.9,1.6-2.8 M183.3,36.9c1.8-3.6,4-7.1,6.6-10.3c0.6-0.7,1.3-1.5,2-2.1 M191.7,24.7
	c2.4-2.3,5.4-3.8,8.6-4.5 M200.1,20.2c2.8-0.6,5.8-0.7,8.6-0.1 M208.6,20c3.2,0.5,6.2,2,8.6,4.2 M217,24.1c2.9,2.6,5,6.2,7.1,9.8
	c0.5,0.9,1,1.8,1.6,2.8 M225.4,36.3l0.2,0.3 M141.4,36.9c1.8,3.4,3.9,6.7,6.3,9.7c0.6,0.7,1.3,1.4,2,2 M149.5,48.5
	c2.4,2.2,5.4,3.6,8.6,4.1 M157.9,52.6c2.8,0.5,5.8,0.5,8.6,0.1 M166.4,52.7c3.2-0.3,6.2-1.6,8.6-3.6 M174.8,49.2
	c3-2.5,5.1-6.2,7.1-9.7c0.5-0.9,1-1.9,1.6-2.8 M183.3,37c1.8-3.6,4-7.1,6.5-10.3c0.6-0.8,1.3-1.5,2.1-2.2 M191.7,24.7
	c2.4-2.3,5.4-3.8,8.6-4.5 M200.2,20.2c2.8-0.6,5.8-0.6,8.6-0.1 M208.6,20.1c3.2,0.5,6.2,2,8.6,4.2 M217,24.1
	c2.9,2.6,5.1,6.2,7.1,9.8c0.5,0.9,1,1.8,1.6,2.8 M225.5,36.4l0.2,0.3 M141.4,37c1.8,3.4,3.9,6.7,6.3,9.7c0.6,0.7,1.3,1.4,2,2
	 M149.5,48.5c2.4,2.2,5.4,3.6,8.6,4.1 M158,52.6c2.8,0.5,5.8,0.5,8.6,0.1 M166.4,52.7c3.2-0.4,6.2-1.6,8.6-3.7 M174.8,49.2
	c3-2.5,5.1-6.2,7.1-9.7c0.5-0.9,1-1.9,1.6-2.8 M183.3,37c1.8-3.7,4-7.1,6.5-10.3c0.6-0.8,1.3-1.5,2.1-2.2 M191.7,24.6
	c2.4-2.2,5.4-3.8,8.6-4.5 M200.2,20.2c2.8-0.6,5.8-0.7,8.6-0.1 M208.6,20.1c3.2,0.5,6.2,2,8.6,4.2 M217,24.1c2.9,2.6,5,6.2,7.1,9.8
	c0.5,0.9,1,1.8,1.6,2.8 M225.5,36.4l0.2,0.3 M141.4,37c1.8,3.4,3.9,6.7,6.3,9.7c0.6,0.7,1.3,1.4,2,2 M149.5,48.5
	c2.4,2.2,5.4,3.6,8.6,4.1 M158,52.6c2.8,0.5,5.8,0.5,8.6,0.1 M166.4,52.7c3.2-0.3,6.2-1.6,8.6-3.7 M174.8,49.2
	c3-2.5,5.1-6.2,7.1-9.7c0.5-0.9,1-1.9,1.6-2.8 M183.3,37c1.8-3.6,4-7.1,6.6-10.3c0.6-0.8,1.3-1.5,2-2.1 M191.7,24.7
	c2.4-2.3,5.4-3.9,8.6-4.6 M200.1,20.1c2.8-0.6,5.8-0.7,8.6-0.1 M208.6,20c3.2,0.5,6.2,2,8.6,4.2 M217,24.1c2.9,2.6,5.1,6.2,7.1,9.8
	c0.5,0.9,1,1.9,1.6,2.8 M225.4,36.4l0.2,0.3 M141.4,37c1.8,3.5,3.9,6.7,6.3,9.7c0.6,0.7,1.3,1.4,2,2 M149.5,48.6
	c2.4,2.1,5.4,3.5,8.6,4 M158,52.6c2.8,0.5,5.8,0.5,8.6,0.1 M166.4,52.7c3.2-0.4,6.2-1.6,8.6-3.7 M174.8,49.2c3-2.5,5.1-6.2,7.1-9.7
	c0.5-0.9,1-1.9,1.6-2.8 M183.3,37c1.8-3.6,4-7.1,6.5-10.3c0.6-0.8,1.3-1.5,2.1-2.2 M191.7,24.7c2.4-2.3,5.4-3.8,8.6-4.5 M200.2,20.2
	c2.8-0.6,5.8-0.7,8.6-0.1 M208.6,20c3.2,0.5,6.2,2,8.6,4.2 M217,24.1c2.9,2.6,5.1,6.2,7.1,9.8c0.5,0.9,1,1.8,1.6,2.8 M225.5,36.3
	l0.2,0.3 M141.4,36.9c1.8,3.5,3.9,6.7,6.3,9.8c0.6,0.7,1.3,1.4,2,2 M149.5,48.6c2.4,2.2,5.4,3.5,8.6,4 M158,52.6
	c2.8,0.5,5.8,0.5,8.6,0.1 M166.4,52.7c3.2-0.3,6.2-1.6,8.6-3.6 M174.8,49.2c3-2.5,5.1-6.1,7.1-9.7c0.5-0.9,1-1.9,1.6-2.8
	 M183.3,37.1c1.8-3.7,4-7.1,6.5-10.4c0.6-0.8,1.3-1.5,2.1-2.2 M191.7,24.7c2.4-2.3,5.4-3.8,8.6-4.5 M200.2,20.2
	c2.8-0.6,5.8-0.6,8.6-0.1 M208.6,20.1c3.2,0.5,6.2,2,8.6,4.2 M217,24.1c2.9,2.6,5.1,6.2,7.1,9.7c0.5,0.9,1,1.8,1.6,2.8 M225.5,36.3
	l0.2,0.3"/>
<path class="st23" d="M141.3,64h84.2 M141.3,64v-0.8 M149.4,64h8.1h8.1h8.1h8.1h8.1h8.1h8.1h8.1h11.7v-1.8"/>
<text transform="matrix(6.123234e-17 -1 1 6.123234e-17 136.9 67.0098)" class="st10 st11">PC projections</text>
<path class="st24" d="M141.1,132.2h87.5 M141.1,132.2v-0.7 M228.6,132.2v-1.7"/>
<path class="st25" d="M141.2,99.8c2.6,1.6,5.4,6.6,8.6,3 M149.7,103c1.5-1.9,2.8-4,3.7-6.3c1-2.1,1.9-4.3,3.1-6.4
	c0.6-1.2,1.3-2.2,2.2-3.2 M158.4,87.3c3.6-4,6.5,2.2,7.6,4.9c0.5,1.2,0.9,2.3,1.3,3.5 M167.2,95.2c1.4,3.9,2.4,7.9,3.5,11.9
	s2,7.8,3.1,11.6c0.6,2.1,1.3,4.2,2.3,6.2 M175.9,124.6c0.5,1,1.6,3.3,3.1,2.3c1.3-0.9,1.8-2.9,2.2-4.2c1-3.2,1.8-6.4,2.5-9.7
	c0.4-1.9,0.8-3.8,1.2-5.7 M184.6,108.3c0.7-3.6,1.4-7.1,2.2-10.7c0.7-3.5,1.7-7,3-10.3c0.6-1.3,2-3.9,3.7-2.2 M193.4,85
	c1,1,1.8,2.2,2.2,3.5c0.6,1.3,1.1,2.6,1.6,3.9c1.1,2.9,2,5.8,3.1,8.6c0.6,1.5,1.3,2.9,2,4.3 M202.2,105c1.6,3.1,4.6,7.1,8.9,6
	 M211,111c3.6-0.8,5.6-4.8,7.3-7.5c0.6-0.9,1.1-1.8,1.7-2.7 M219.7,101.1c1-1.6,2.2-3.8,4.2-4.6c2.1-0.9,3.8,1.1,4.8,2.6
	 M228.5,98.8l0.2,0.2 M141.3,99.3c1.3,2,2.4,4.2,3.6,6.3c1.1,1.7,2.9,4.1,4.9,1.9 M149.7,107.6c1.8-1.8,2.7-4.4,3.7-6.7
	s1.9-4.7,3-6.9c0.6-1.4,1.4-2.7,2.2-4 M158.4,90.2c0.9-1.3,2.5-3.2,4.3-2.3s2.6,3.1,3.3,4.7c0.5,1.1,0.9,2.2,1.2,3.3 M167.2,95.5
	c2.5,7.4,3.9,15.1,6.2,22.5c0.6,1.9,1.2,4.4,2.7,5.8 M176,123.7c2.4,2.6,4.6-6.2,4.9-7.5c1-3.6,1.8-7.2,2.6-10.9
	c0.5-2,0.9-4.1,1.4-6.1 M184.7,99.9c0.6-2.6,1.3-5.2,2.2-7.8c0.8-2.3,1.6-5.1,3.4-6.9c0.8-1,2.2-1.2,3.3-0.4c0,0,0.1,0,0.1,0.1
	 M193.5,84.7c1.2,1,2.1,2.4,2.6,3.8c0.6,1.5,1.2,2.9,1.7,4.4c1,3,1.9,6,2.9,9.1c0.5,1.7,1.1,3.3,1.6,5 M202.2,106.5
	c0.7,2.1,1.5,4.1,2.4,6c0.7,1.4,1.9,3.7,3.8,4c1,0,2-0.4,2.7-1.1 M210.9,115.6c2.8-2.3,4.5-5.7,6.7-8.6c0.7-0.9,1.4-1.8,2.2-2.5
	 M219.7,104.7c1.1-1.3,2.8-1.8,4.5-1.3c1.7,0.6,3.1,2,4.5,3.1 M228.4,106.3l0.2,0.1 M141.3,106.6c1.2,0.9,2.7,2,4.4,1.8
	c1.8-0.2,3.2-1.8,4.2-3.1 M149.7,105.5c2.9-3.7,4.8-8.1,7-12.2c0.6-1.1,1.3-2.3,2-3.3 M158.5,90.2c1-1.6,2.8-3.8,4.7-1.8
	c1.5,1.6,2.3,4,3,6c0.4,1.2,0.8,2.5,1.2,3.7 M167.2,97.6c2.4,7.7,4,15.6,6.5,23.3c0.6,2.1,1.4,4.2,2.4,6.1 M176,126.7
	c0.3,0.6,0.9,1.5,1.6,1.7s1.4-0.6,1.7-1.2c0.9-1.6,1.5-3.3,1.9-5c1-3.5,1.7-7.1,2.4-10.7c0.4-2,0.8-4.1,1.2-6.1 M184.7,106.3
	c0.7-3.3,1.4-6.6,2.1-9.9s1.5-6.5,3.1-9.4c0.7-1.3,2.1-2.9,3.7-1.6 M193.5,85.2c2.1,1.5,3.1,4.5,4.1,6.8c1.1,2.6,2.1,5.2,3.1,7.7
	c0.6,1.4,1.1,2.9,1.8,4.3 M202.2,103.6c0.8,1.9,1.6,3.7,2.6,5.4c0.8,1.5,2,3.5,3.8,4.1c0.9,0.3,1.9,0.1,2.6-0.5 M211,112.8
	c2.1-1.4,3.3-4.2,4.3-6.4c1.1-2.4,2-4.9,2.9-7.3c0.5-1.4,1.1-2.8,1.7-4.2 M219.7,95.2c0.5-1.2,1-2.3,1.6-3.4
	c0.4-0.8,1.3-2.3,2.4-2.2s1.9,1.8,2.3,2.6c0.5,1.2,1,2.4,1.4,3.7c0.5,1.5,0.9,2.9,1.3,4.4 M228.5,99.7l0.2,0.7 M141.3,101
	c0.7,2.7,1.4,5.3,2.1,8c0.4,1.4,0.8,2.7,1.3,4.1c0.4,1.3,1.1,2.5,2,3.5c1.3,1.1,2.5-0.4,3.1-1.4 M149.8,115.4
	c1.5-2.6,2.8-5.4,3.7-8.3c1.1-3,2.2-6.1,3.3-9.1c0.6-1.6,1.2-3.1,1.9-4.7 M158.5,93.7c0.8-1.9,1.7-4.2,3.4-5.7
	c2.2-1.9,3.7,1.3,4.3,2.9c0.5,1.2,0.9,2.5,1.2,3.8 M167.3,94c1.4,4.7,2.3,9.5,3.3,14.3s1.9,9.5,3,14.3c0.6,2.5,1.2,5.3,2.6,7.5
	 M176,129.7c0.5,0.8,1.3,1.6,2.2,0.6c0.7-0.8,1.1-1.8,1.4-2.8c0.7-2.1,1.2-4.2,1.7-6.4c0.9-4.5,1.7-9,2.4-13.6
	c0.4-2.5,0.8-5,1.2-7.5 M184.7,101c0.6-3.6,1.2-7.1,2-10.7c0.4-1.8,0.8-3.6,1.3-5.3c0.4-1.5,0.9-3.3,2-4.5c1.6-1.6,3,1.1,3.6,2.2
	 M193.5,82.5c1.5,3.1,2.7,6.4,3.7,9.7c1,3.3,2,6.6,3.1,9.9c0.6,1.9,1.3,3.8,2.1,5.7 M202.3,107.4c0.9,2.1,1.8,4.4,3.5,6
	s3.8,1.1,5.4-0.6 M211,113c3.2-3.1,5-7.4,7-11.2c0.6-1.1,1.2-2.2,1.9-3.2 M219.7,98.8c1.2-1.9,3.1-3.9,5.2-1.6
	c1.7,1.9,2.6,4.5,3.8,6.7 M228.5,103.6l0.2,0.3 M141.3,104.3c0.7,1.4,2.1,4.5,4.2,4.1c2-0.4,3.4-2.9,4.3-4.3 M149.7,104.3
	c2.6-3.7,4.7-7.7,7-11.5c0.6-1,1.3-2,2-3 M158.5,90c1.2-1.6,3-3.2,4.8-1.2c1.5,1.6,2.2,3.9,2.9,5.9c0.4,1.2,0.8,2.4,1.2,3.6
	 M167.3,97.7c1.2,3.9,2.2,7.9,3.1,11.8s1.9,7.9,3.1,11.8c0.6,2,1.2,4.3,2.6,6 M176,127c2.5,3.3,4.6-3.4,5.1-5c1-3.1,1.8-6.2,2.5-9.3
	c0.4-1.9,0.9-3.8,1.3-5.6 M184.8,107.9c0.9-3.8,1.7-7.7,2.6-11.5c0.8-3.6,1.8-7.1,3-10.5c0.4-1,1.6-4.5,3.3-3.8 M193.6,82
	c1.4,0.4,2.1,2.4,2.6,3.5c0.6,1.5,1.2,3,1.7,4.5c1,2.8,1.8,5.7,2.8,8.6c0.6,1.8,1.2,3.5,1.9,5.3 M202.3,103.4
	c0.9,2.1,1.8,4.5,3.5,6.2c2,2,4,0.6,5.5-1.2 M211.1,108.6c2.4-2.8,3.8-6.2,6.3-8.9c0.6-0.8,1.5-1.3,2.4-1.7 M219.7,98
	c2.3-0.7,4.1,1.6,5.2,3.2c1.4,2,2.5,4.2,3.7,6.3 M228.4,107.2l0.2,0.3 M141.2,107.8c0.9,1.6,2.1,3.9,4,4.5s3.6-1.5,4.6-2.8
	 M149.6,109.7c3.1-4.6,4.6-10.1,6.8-15.1c0.6-1.5,1.3-2.9,2.1-4.2 M158.4,90.7c0.8-1.3,2.3-3.7,4.2-2.7c1.8,0.9,2.7,3.3,3.4,4.9
	c0.5,1.2,0.9,2.4,1.3,3.6 M167.1,96c1.3,4,2.3,8,3.3,12s1.9,8.2,3.1,12.3c0.6,2.2,1.2,4.6,2.5,6.6 M175.9,126.6
	c0.4,0.7,1.2,1.5,2,0.8c0.7-0.7,1.2-1.6,1.4-2.5c0.7-1.9,1.3-3.9,1.7-5.9c0.9-4.1,1.7-8.2,2.5-12.3c0.4-2.3,0.9-4.7,1.4-7
	 M184.7,100.5c0.6-2.8,1.2-5.5,2-8.2c0.3-1.2,0.8-2.5,1.3-3.7c0.5-1,1.2-2.5,2.5-2.7s2.4,1.2,3.1,2.1 M193.4,87.9
	c1.6,2.4,2.9,4.9,3.8,7.7c1.1,2.9,2.2,5.8,3.3,8.8c0.6,1.6,1.2,3.1,1.8,4.7 M202.1,108.5c0.9,2.1,1.8,4.7,3.7,6.3
	c2.2,1.8,4.1-0.6,5.2-2.2 M210.9,112.8c2.7-3.8,4.6-8,7-12c0.6-1,1.3-2,2-3 M219.7,98.1c1-1.4,2.6-3.9,4.7-3.5s3.4,3.1,4.2,4.7
	 M228.5,98.9l0.2,0.3 M141.3,99.5c1,2.1,2.2,4.2,3.5,6.1c0.6,0.7,1.4,1.7,2.6,1.5s1.9-1.2,2.5-2 M149.7,105.4c3-4,4.4-9,6.8-13.3
	c0.6-1.1,1.3-2.2,2.1-3.3 M158.4,89.1c1.2-1.5,3.2-3.6,5.3-2.1s2.9,4.3,3.6,6.5 M167.2,92.9c1.3,4.1,2.4,8.2,3.3,12.3
	c1,4.2,1.9,8.5,3,12.7c0.6,2,1.1,4.7,2.6,6.3 M175.9,124.1c1.5,1.8,2.7-1,3.2-2.1c0.7-1.7,1.2-3.5,1.7-5.3c1-3.7,1.8-7.3,2.6-11
	c0.5-2.1,1-4.3,1.5-6.4 M184.7,100c0.6-2.6,1.3-5.2,2.1-7.8c0.7-2.3,1.6-5.2,3.5-6.9c0.9-0.9,2.4-0.8,3.3,0.1c0,0,0.1,0.1,0.1,0.1
	 M193.4,85.4c2.1,1.8,3.1,4.7,4,7.1c1.1,2.8,2.1,5.7,3.1,8.6c0.6,1.6,1.1,3.2,1.8,4.8 M202.2,105.4c0.7,1.9,1.5,3.7,2.5,5.5
	c0.8,1.3,2,3.4,3.9,3.5c1-0.1,1.9-0.5,2.6-1.3 M210.9,113.2c3.1-2.8,5-6.9,7-10.4c0.6-1,1.2-2,1.9-3 M219.6,100.1
	c0.8-1.2,2.2-3.3,4-3s3,2.9,3.6,4.3c0.5,1,0.9,1.9,1.3,2.9 M228.4,103.8l0.2,0.4 M141.2,104.7c0.8,2.1,1.6,4.2,2.5,6.2
	c0.5,1.2,1.8,5,3.8,4.8c1.2-0.1,1.9-1.8,2.3-2.7 M149.6,113.4c1.4-3.2,2.6-6.6,3.4-10.1c1-3.5,1.9-7,3.1-10.5
	c0.6-1.9,1.4-3.7,2.4-5.4 M158.4,87.7c1.1-1.7,2.8-3.2,4.6-1.4c1.6,1.6,2.4,3.9,3.1,5.8c0.4,1.2,0.8,2.5,1.2,3.7 M167.1,95.3
	c1.2,4,2.2,8,3.1,12s1.9,8,3.1,11.9c0.6,2,1.2,4.2,2.6,5.9 M175.9,124.8c1.6,2.1,3-0.2,3.6-1.7c0.7-1.9,1.3-3.8,1.8-5.8
	c1-4,1.7-8.1,2.4-12.2c0.4-2.4,0.8-4.8,1.2-7.3 M184.6,98.8c0.6-3.9,1.3-7.7,2.1-11.6c0.4-1.8,0.8-3.6,1.2-5.4
	c0.4-1.5,0.9-3.8,2.1-4.9c1.7-1.5,3,2.2,3.5,3.2 M193.4,79.7c2.6,6.2,4,12.8,6.5,19c0.7,1.7,1.5,3.4,2.4,5 M202.1,103.4
	c0.9,1.6,2.2,3.5,4.1,4.2s3.5-0.4,4.8-1.5 M210.9,106.3c2.5-2.1,5-6.3,8.9-5.2 M219.6,101.2c1.5,0.5,3,1.2,4.5,2
	c1.5,0.7,3,1.5,4.5,2.4 M228.4,105.4l0.2,0.1 M141.2,105.7c1.4,1,2.7,2.4,4.4,2.9c1.8,0.6,3.2-0.7,4.2-2 M149.6,106.8
	c1.5-2.2,2.7-4.5,3.7-7c1-2.4,2-4.8,3-7.1c0.6-1.4,1.4-2.8,2.2-4.1 M158.3,88.9c1.1-1.7,2.8-3.2,4.6-1.3c1.5,1.6,2.3,3.9,3,5.9
	c0.4,1.2,0.9,2.4,1.2,3.6 M167,96.5c2.3,7.1,3.9,14.4,6.3,21.4c0.5,1.9,1.4,3.8,2.6,5.4 M175.8,123.1c2.7,3.5,4.8-4.1,5.2-5.8
	c1-3.5,1.7-7,2.4-10.5c0.4-2.1,0.8-4.1,1.2-6.2 M184.5,101.5c0.7-3.7,1.4-7.4,2.2-11.1c0.8-3.4,1.4-7.1,3-10.3
	c0.3-0.7,0.8-1.8,1.7-2.1s1.6,0.6,2,1.2 M193.3,79c2,2.8,2.9,6.6,3.9,9.8c1.1,3.5,2.1,7.1,3.1,10.6c0.6,1.9,1.2,3.9,1.9,5.8
	 M202,104.7c0.7,2,1.5,3.9,2.4,5.8c0.8,1.4,2,3.5,3.9,3.8c1,0.1,1.9-0.2,2.6-0.9 M210.8,113.6c1.8-1.5,3.3-3.4,4.3-5.6
	c1.1-2.1,2.1-4.3,3.1-6.6c0.5-1.2,1-2.4,1.6-3.5 M219.6,98.3c0.6-1.3,1.9-4.9,3.9-4.9s3.1,3.7,3.6,5.1s1,2.6,1.4,4 M228.3,101.9
	l0.2,0.5 M141.2,102.9c0.7,2.2,1.5,4.4,2.5,6.6c0.8,1.6,2.3,4.5,4.3,2.3c0.8-0.9,1.4-2,1.8-3.1 M149.6,109.1
	c2.6-5.7,3.9-11.8,6.3-17.5c0.6-1.6,1.5-3.1,2.6-4.4 M158.3,87.3c3.8-4.3,6.8,4.2,7.7,6.6c0.4,1.2,0.8,2.5,1.2,3.7 M167.1,97.1
	c1.2,3.9,2.2,7.8,3.2,11.7s1.9,7.9,3.1,11.8c0.6,2,1.2,4.4,2.6,6 M175.8,126.4c1.8,2.3,3.1-1.7,3.5-3c0.7-2.1,1.2-4.3,1.6-6.5
	c0.9-4.4,1.7-8.8,2.4-13.3c0.4-2.6,0.9-5.1,1.3-7.7 M184.6,96.9c0.6-3.3,1.2-6.7,2-10c0.4-1.6,0.8-3.3,1.3-4.9
	c0.4-1.6,1.1-3.1,2.2-4.4c1.5-1.6,2.9,0.6,3.6,1.8 M193.4,79.2c1.6,3.2,2.9,6.5,3.8,10c1,3.4,2,6.9,3.1,10.3c0.6,2,1.3,3.9,2,5.8
	 M202.1,104.8c1.3,3.3,4,10,8.9,6.9 M210.9,111.8c3.2-1.9,5.2-5.4,7.2-8.3c0.6-0.8,1.1-1.7,1.7-2.5 M219.7,101.3
	c1.8-2.6,5.3-7.6,8.9-4.3 M228.4,96.8l0.2,0.2"/>
<path class="st26" d="M141.2,102.8l0.8,0.8"/>
<path class="st27" d="M142.9,104.4c0.8,0.7,1.8,1.2,2.8,1.3c1.2-0.1,2.3-0.7,3.1-1.7"/>
<path class="st26" d="M149.2,103.5c0.2-0.3,0.4-0.6,0.6-0.9"/>
<path class="st26" d="M149.6,102.9c0.2-0.3,0.4-0.6,0.6-0.9"/>
<path class="st28" d="M150.8,101.1c2.1-3.6,3.4-7.6,5.4-11.2c0.4-0.7,0.8-1.4,1.3-2.1"/>
<path class="st26" d="M157.8,87.4c0.2-0.3,0.5-0.5,0.8-0.8"/>
<path class="st26" d="M158.4,86.8c0.3-0.2,0.6-0.4,0.9-0.6"/>
<path class="st29" d="M160.4,86.3c3,1.1,5.2,10.1,5.7,11.8c0.3,1,0.5,2,0.8,3"/>
<path class="st26" d="M167.1,101.6l0.3,1.1"/>
<path class="st26" d="M167.1,102l0.3,1.1"/>
<path class="st30" d="M167.7,104c1.6,6.6,2.9,13.2,5.3,19.6c0.4,1.4,1,2.7,1.8,3.9"/>
<path class="st26" d="M175.1,127.9c0.3,0.3,0.6,0.4,0.9,0.6"/>
<path class="st26" d="M175.9,128.4c0.3,0.2,0.7,0.1,1.1-0.1"/>
<path class="st31" d="M177.7,127.7c2.9-3.5,5.4-16.9,5.8-18.8c0.3-1.6,0.7-3.1,1-4.7"/>
<path class="st26" d="M184.6,103.7l0.2-1.1"/>
<path class="st26" d="M184.6,103.5l0.2-1.1"/>
<path class="st32" d="M185.1,101.4c1.4-6.8,2.6-13.9,5-20.4c0.4-1.4,1.1-2.6,2-3.7"/>
<path class="st26" d="M192.5,76.9c0.3-0.2,0.7-0.2,1.1-0.1"/>
<path class="st26" d="M193.4,76.7c0.4,0.1,0.7,0.2,1,0.5"/>
<path class="st33" d="M195,78c0.5,0.9,1,1.8,1.3,2.8c0.7,1.7,1.2,3.4,1.7,5.1c1,3.6,1.9,7.1,2.8,10.7c0.4,1.5,0.7,3,1.1,4.5"/>
<path class="st26" d="M202.1,101.6l0.3,1.1"/>
<path class="st26" d="M202.1,102l0.3,1.1"/>
<path class="st34" d="M202.7,104.1c0.5,2,1.1,4.1,1.7,6.1c0.8,2.5,1.6,5.3,3.2,7.5c0.4,0.7,1.1,1.2,1.9,1.3"/>
<path class="st26" d="M210.1,119.1c0.4-0.1,0.7-0.2,1-0.5"/>
<path class="st26" d="M210.9,118.8c0.3-0.2,0.6-0.4,0.8-0.7"/>
<path class="st35" d="M212.4,117.3c1-1.5,1.8-3.1,2.5-4.7c1-2,1.8-4.1,2.8-6.1c0.4-0.8,0.8-1.6,1.3-2.4"/>
<path class="st26" d="M219.2,103.6c0.2-0.3,0.4-0.6,0.6-0.9"/>
<path class="st26" d="M219.6,102.9c0.2-0.3,0.4-0.6,0.6-0.9"/>
<path class="st36" d="M221.1,101c0.7-0.8,1.7-1.3,2.8-1.4c1.3,0.2,2.6,0.8,3.5,1.8"/>
<path class="st26" d="M227.8,101.9l0.8,0.8"/>
<line class="st37" x1="228.4" y1="102.5" x2="228.6" y2="102.7"/>
<text transform="matrix(0.93 0 0 1 164.6201 145.6201)" class="st10 st38">time (ms)</text>
<text transform="matrix(0 -1.08 1 0 136.6299 120.2002)" class="st10 st11">output</text>
</svg>
