<svg id="Layer_1" data-name="Layer 1" xmlns="http://www.w3.org/2000/svg" viewBox="0 0 281.73 147.27"><defs><style>.cls-1,.cls-12,.cls-13,.cls-2,.cls-9{stroke:#000;}.cls-1,.cls-9{stroke-linejoin:round;}.cls-1{stroke-width:1.2px;}.cls-11,.cls-12,.cls-13,.cls-14,.cls-2,.cls-4,.cls-5,.cls-7{fill:none;stroke-miterlimit:10;}.cls-2{stroke-width:1.5px;}.cls-15,.cls-3{font-size:11px;font-family:ArialMT, Arial;}.cls-11,.cls-4{stroke:#231f20;}.cls-4{stroke-width:2px;}.cls-5{stroke:#009444;}.cls-5,.cls-7{stroke-width:1.75px;}.cls-6{fill:#009444;}.cls-7{stroke:#93d;}.cls-8{fill:#93d;}.cls-9{fill:#fff;stroke-width:1.56px;}.cls-10{fill:#231f20;}.cls-11{stroke-width:1.2px;}.cls-12{stroke-width:1.1px;}.cls-13,.cls-14{stroke-linecap:square;stroke-width:2.05px;}.cls-14{stroke:#a7a9ac;}.cls-15{fill:#a7a9ac;}</style></defs><title>supertrexPanel</title><circle class="cls-1" cx="212.48" cy="58.48" r="2.69"/><line class="cls-2" x1="127.64" y1="112.44" x2="136.77" y2="109.38"/><path d="M135.5,109.81l-2.42-2,.07-.09,4.73.26,4.69-.5-4,2.42-3.62,3.06h-.1Z"/><text class="cls-3" transform="translate(66.15 111.95)">exploratory<tspan x="14.06" y="13.2">noise</tspan></text><circle class="cls-4" cx="110.25" cy="47.69" r="33.3"/><path class="cls-5" d="M83.24,49.25c11.17,32.33,36,43.36,48.28,47.36"/><path class="cls-6" d="M130,96.11l-.92-3.57.12,0L133.56,96l4.79,2.7-5.48-.44-5.51.45-.09-.08Z"/><path class="cls-5" d="M104.24,70.25c21.39,4.66,25.57,11.69,28.53,16.58"/><path class="cls-6" d="M131.88,85.49l1-3.56.13,0,2,5.14,2.82,4.72-4.54-3.11-5-2.35,0-.12Z"/><path class="cls-5" d="M133.4,56.25C129.92,66,135.28,72.38,140.92,81"/><path class="cls-6" d="M140.05,79.69l1.68-3.28.12.05.95,5.45,1.8,5.2-3.82-4-4.43-3.31v-.12Z"/><path class="cls-7" d="M107.92,70.57c32.59,3.23,43.3,2.84,52.85-3.09"/><path class="cls-8" d="M159.42,68.3,156,66.84l0-.12,5.37-1.31,5.06-2.15-3.69,4.08-3,4.64-.12,0Z"/><path class="cls-7" d="M134.92,56.57c7.84,0,17.61,1.32,24.59,1.06"/><path class="cls-8" d="M157.93,57.68l-2.41-2.79.09-.09L161,56l5.49.28-5.1,2.05-4.73,2.86-.12,0Z"/><path class="cls-7" d="M127.92,26.57c8.91,0,23.25,13.08,33,19.54"/><path class="cls-8" d="M159.62,45.23l-.17-3.69h.13l3.53,4.26,4.14,3.62L162,47.87l-5.49-.68-.07-.1Z"/><g id="layer1"><path id="path4952" class="cls-9" d="M44.42,28.26a13.11,13.11,0,0,0-8.21,1.26,10.41,10.41,0,0,0-4.4-1.68c-4.62-.73-9.38.89-10.62,3.63a3.21,3.21,0,0,0-.16.6c-4.16-.26-8.14,1.29-9.26,3.75s1,4.95,4.74,6a4.16,4.16,0,0,0-.52.82c-1.24,2.74,1.51,5.55,6.13,6.28a14,14,0,0,0,6.45-.48,8.78,8.78,0,0,0,5.57,2.8c3.67.58,7.39-.34,9.4-2.11a11.84,11.84,0,0,0,2.74.79c4.62.73,9.37-.9,10.61-3.63A3.38,3.38,0,0,0,56,42.37,5.51,5.51,0,0,0,58.41,40c1.24-2.74-1.51-5.55-6.13-6.28a14.23,14.23,0,0,0-1.46-.15C51.1,31.17,48.5,28.9,44.42,28.26Z"/></g><text class="cls-3" transform="translate(23.84 42.33)">input</text><path class="cls-4" d="M52.85,49.38c6,.47,2,7.56,6.83,9.56,1,.41,7.21-.38,12.24-1"/><path class="cls-10" d="M70.5,58.11l-2-2.69.09-.07,4.87,1.38,5,.58-4.78,1.57-4.49,2.33-.1,0Z"/><path class="cls-4" d="M55.37,33.79a12.23,12.23,0,0,1,10.9-3,19.24,19.24,0,0,1,7.18,3.66"/><path class="cls-10" d="M72.29,33.58l.65-3.31.12,0,2.21,4.55L78.17,39l-4.35-2.52-4.73-1.8,0-.1Z"/><circle class="cls-1" cx="83.55" cy="47.08" r="2.69"/><circle class="cls-1" cx="111.35" cy="30.28" r="2.69"/><circle class="cls-1" cx="126.26" cy="26.1" r="2.69"/><circle class="cls-1" cx="106.36" cy="68.39" r="2.69"/><circle class="cls-1" cx="133.05" cy="55.08" r="2.69"/><path class="cls-11" d="M84.95,48.32c4.73,3.27,6.49,9.28,9.28,14.3,1.78,3.2,3.48,3.37,5.64,3.77"/><path class="cls-10" d="M98.71,66.13l-.54-2.73.09,0,3.11,2.78,3.5,2.23-4.11-.56-4.17.11-.06-.07Z"/><path class="cls-11" d="M106.92,69.57c11.15,0,7.66-2.94,16.32-4.91,3.57-.81,4.21-2.4,5.2-4.37"/><path class="cls-10" d="M127.86,61.34l-2.77-.24V61l3.54-2.21,3.12-2.74-1.68,3.79-1.06,4-.08,0Z"/><path class="cls-11" d="M111.35,32.72c4.73,3.27.49,9.28,3.28,14.3,2.1,3.77,7.11,3.84,11.63,4.82"/><path class="cls-10" d="M125.08,51.61l-.57-2.72.09,0,3.15,2.74,3.53,2.19-4.12-.51-4.17.16-.06-.07Z"/><path class="cls-11" d="M106.35,66.92c2.13-5.34,13.59-16.8,17.86-20.64,3.25-2.93,1.69-8.52,1.42-13.52"/><path class="cls-10" d="M125.73,34l-2.49,1.25,0-.09L125,31.38l1.22-4,.56,4.11,1.22,4,0,.08Z"/><circle class="cls-1" cx="102.47" cy="45.97" r="2.69"/><path class="cls-11" d="M103.53,47.2c2.72-3.28,4.14-7.13,5.25-11.18"/><path class="cls-10" d="M108.42,37.15l-2.67.8,0-.09,2.47-3.36,1.89-3.69-.17,4.15.51,4.14-.06.07Z"/><path class="cls-11" d="M110.09,29.6c-10.16-3.66-12,3.38-10.33,9.71"/><path class="cls-10" d="M99.46,38.15l1.65-2.24.08.05,0,4.17.71,4.09-2.36-3.41-2.9-3v-.09Z"/><path class="cls-11" d="M99.45,46.95c-3.88-1-6.63-1.65-9.75-1.63"/><path class="cls-10" d="M90.89,45.32l1.66,2.23-.08.06-4-1.17-4.12-.51,4-1.26L92,42.77l.08,0Z"/><path class="cls-11" d="M123.91,26.2c-3.31.86-5.15.58-7,.88"/><path class="cls-10" d="M118.17,26.86l2.31,1.56-.05.08-4.17.21-4.06.88,3.31-2.5,2.88-3h.09Z"/><path class="cls-11" d="M133.46,53.58c-2.38-5.23.19-11.29.37-17,.11-3.49-1.13-4.25-2.68-5.32"/><path class="cls-10" d="M132.1,32l-.77,2.67-.09,0-1.49-3.9-2.08-3.59,3.4,2.38,3.76,1.82,0,.09Z"/><circle class="cls-12" cx="149.89" cy="98.65" r="11.54"/><line class="cls-12" x1="149.97" y1="91.84" x2="149.97" y2="105.66"/><line class="cls-12" x1="143.06" y1="98.75" x2="156.88" y2="98.75"/><ellipse class="cls-4" cx="92.65" cy="112.62" rx="34.95" ry="16.1"/><path class="cls-2" d="M160.88,94.58c8.75-6.4,16.61-10.07,17.43-20.9"/><path d="M178.18,75l-2.68,1.67-.06-.09,1.7-4.43,1-4.62,1.07,4.59,1.8,4.39,0,.09Z"/><circle class="cls-12" cx="178.05" cy="56.25" r="11.54"/><line class="cls-12" x1="178.14" y1="49.43" x2="178.14" y2="63.25"/><line class="cls-12" x1="171.23" y1="56.34" x2="185.05" y2="56.34"/><text class="cls-3" transform="translate(224.46 38.58)">output</text><path class="cls-13" d="M214.93,55.61c.46-1.85,2-12.22,4.88-12.06,2.67.14,4.29,9.66,4.86,11.51s1.87,8.84,4.86,8.33c2.22-.38,3.63-5.52,4.86-7.07,1.68-2.12,2.59-2.3,4.86-1.06,1.91,1,2.65,2.59,4.86,1.2,2.51-1.58,2.64-5.65,4.86-7.47,2.85-2.33,3.92,1.27,4.86,3.83,1.32,3.61,1.88,11.53,4.88,14.12s4.26-4.41,4.86-6.62c.42-1.52.79-3.06,1.17-4.59"/><path class="cls-14" d="M214.93,90.76c.48-1.9,2-12.23,5-12.06,2.74.15,4.41,9.61,5,11.51s2,8.85,5,8.33c2.28-.39,3.72-5.49,5-7.07,1.73-2.13,2.7-2.3,5-1.06,1.94,1,2.76,2.59,5,1.2,2.55-1.58,2.74-5.64,5-7.47,2.89-2.34,4,1.24,5,3.83,1.37,3.63,2,11.52,5,14.12s4.37-4.37,5-6.62c.43-1.52.82-3.06,1.21-4.59"/><text class="cls-15" transform="translate(223.36 113.48)">target</text><line class="cls-2" x1="189.66" y1="56.89" x2="204.48" y2="56.89"/><path d="M203.13,56.89l-1.64-2.7.09-.06L206,55.88l4.61,1-4.61,1-4.41,1.75-.09,0Z"/><text class="cls-3" transform="translate(78.02 9.44)">recurrent net</text><path class="cls-2" d="M179.26,44.41c-2-20-13.3-34.14-40.8-23.81"/><path d="M139.73,20.16,142.27,22l-.06.09-4.74,0-4.65.79,3.89-2.67L140.13,17h.1Z"/><line class="cls-5" y1="139.74" x2="12.79" y2="139.74"/><path class="cls-6" d="M11.22,139.74l-1.92-3.15.11-.07,5.14,2,5.37,1.18-5.37,1.18-5.14,2-.11-.05Z"/><text class="cls-3" transform="translate(23.41 143.69)">Reward-modulated plasticity</text><line class="cls-7" x1="174.13" y1="138.76" x2="186.92" y2="138.76"/><path class="cls-8" d="M185.35,138.76l-1.92-3.15.11-.07,5.14,2,5.37,1.18-5.37,1.18-5.14,2-.11-.05Z"/><text class="cls-3" transform="translate(195.52 142.72)">Hebbian plasticity</text></svg>