<svg id="Layer_1" data-name="Layer 1" xmlns="http://www.w3.org/2000/svg" xmlns:xlink="http://www.w3.org/1999/xlink" viewBox="0 0 356.88 156.06"><defs><style>.cls-1{fill:#b3b3b3;}.cls-1,.cls-10,.cls-11,.cls-12,.cls-17,.cls-2{stroke:#000;}.cls-1,.cls-10,.cls-11,.cls-12,.cls-15,.cls-16,.cls-17,.cls-2,.cls-6,.cls-9{stroke-miterlimit:10;}.cls-1,.cls-10,.cls-11,.cls-12,.cls-17{stroke-width:1.16px;}.cls-2{stroke-width:1.01px;fill:url(#linear-gradient);}.cls-3{fill:url(#linear-gradient-2);}.cls-4{fill:#231f20;}.cls-5{fill:#eaa;}.cls-10,.cls-11,.cls-12,.cls-15,.cls-16,.cls-17,.cls-20,.cls-21,.cls-22,.cls-23,.cls-24,.cls-25,.cls-6,.cls-9{fill:none;}.cls-6{stroke:#c88;stroke-width:1.71px;stroke-dasharray:3.88 3.88;}.cls-7{fill:#99d599;}.cls-8{fill:#aae;}.cls-9{stroke:#77c;stroke-width:0.89px;stroke-dasharray:2.97 2.97;}.cls-11{stroke-dasharray:3.41 3.41;}.cls-12{stroke-dasharray:3.28 2.81;}.cls-13{fill:#24d;}.cls-14{opacity:0.5;fill:url(#linear-gradient-3);}.cls-15,.cls-16{stroke:#393;stroke-width:0.98px;}.cls-16{stroke-dasharray:2.73 2.73;}.cls-17{stroke-dasharray:3.06 3.06;}.cls-18{fill:#d33;}.cls-19{fill:#282;}.cls-20{stroke:#262626;stroke-linecap:square;stroke-width:1px;}.cls-20,.cls-21,.cls-22,.cls-23,.cls-24,.cls-25{stroke-linejoin:round;}.cls-21{stroke:#aaa;}.cls-21,.cls-22,.cls-23,.cls-24,.cls-25{stroke-width:2px;}.cls-22{stroke:#888;}.cls-23{stroke:#666;}.cls-24{stroke:#444;}.cls-25{stroke:#222;}</style><linearGradient id="linear-gradient" x1="11.16" y1="97.22" x2="11.16" y2="97.22" gradientUnits="userSpaceOnUse"><stop offset="0" stop-color="#87c879"/><stop offset="0.12" stop-color="#7fc375"/><stop offset="0.16" stop-color="#70ba6d"/><stop offset="0.23" stop-color="#47a257"/><stop offset="0.33" stop-color="#067d35"/><stop offset="0.34" stop-color="#007932"/><stop offset="0.4" stop-color="#077d36"/><stop offset="0.48" stop-color="#1c8842"/><stop offset="0.59" stop-color="#3d9955"/><stop offset="0.7" stop-color="#6bb26f"/><stop offset="0.83" stop-color="#a6d191"/><stop offset="0.87" stop-color="#b7da9b"/></linearGradient><linearGradient id="linear-gradient-2" x1="31.68" y1="100.47" x2="74.31" y2="100.47" gradientTransform="translate(-0.4 2.42) rotate(-5.48)" gradientUnits="userSpaceOnUse"><stop offset="0.04" stop-color="#007932"/><stop offset="0.04" stop-color="#047a34"/><stop offset="0.05" stop-color="#127e3b"/><stop offset="0.05" stop-color="#278346"/><stop offset="0.05" stop-color="#2e854a"/><stop offset="0.19" stop-color="#49975c"/><stop offset="0.44" stop-color="#73b277"/><stop offset="0.67" stop-color="#91c68b"/><stop offset="0.86" stop-color="#a3d298"/><stop offset="1" stop-color="#aad69c"/></linearGradient><linearGradient id="linear-gradient-3" x1="30.89" y1="89.57" x2="73.52" y2="89.57" xlink:href="#linear-gradient-2"/></defs><title>WBalPanel</title><polygon class="cls-1" points="121.48 142.71 4.2 138.38 51.44 66.4 162.99 70.52 121.48 142.71"/><path class="cls-2" d="M11.16,97.22" transform="translate(-2.5)"/><path class="cls-3" d="M81.58,78.87l-27,37.27-2.52-.64L39,82l.35-.53C40.79,86.12,50.11,89,61,87.88c10.24-1,18.46-5.13,19.87-9.63" transform="translate(-2.5)"/><path class="cls-4" d="M12.28,121.29,2.56,115l.81-1.33,8.58,5.56,3-4.93,1.15.74Z" transform="translate(-2.5)"/><path class="cls-4" d="M19.17,110l-2.33-1.51-2.65,4.35-1.09-.71-3.51-8.66.61-1,6.3,4.08.83-1.35,1.09.71-.83,1.35,2.33,1.51Zm-3.42-2.22-4.38-2.84,2.47,6Z" transform="translate(-2.5)"/><polygon class="cls-1" points="118.38 95.47 1.08 91.79 50.23 19.62 162.95 23.15 118.38 95.47"/><ellipse class="cls-5" cx="110.94" cy="43.92" rx="33.78" ry="19.58"/><ellipse class="cls-6" cx="110.94" cy="43.92" rx="33.78" ry="19.58"/><path class="cls-7" d="M59.07,70.36c-11.42,0-20.69,4.05-20.69,9.05l-.24.16c0,5,9.26,9.05,20.69,9.05s20.69-4.05,20.69-9.05l.11-.12c0-5-9.26-9.05-20.69-9.05" transform="translate(-2.5)"/><ellipse class="cls-8" cx="53.67" cy="51.06" rx="17.69" ry="10.19"/><ellipse class="cls-9" cx="53.67" cy="51.06" rx="17.69" ry="10.19"/><path class="cls-4" d="M132.45,26.07l-.66,2.65q-.18.69-.4,1.35t-.5,1.25a3.9,3.9,0,0,0,.61,1.15.92.92,0,0,0,.7.38.59.59,0,0,0,.47-.22,1.12,1.12,0,0,0,.24-.59h.33v.19a3.11,3.11,0,0,1-.27,1.47.88.88,0,0,1-.81.48,1.07,1.07,0,0,1-.92-.47,5.54,5.54,0,0,1-.65-1.78,5,5,0,0,1-1.47,1.72,3.27,3.27,0,0,1-1.87.53,3.53,3.53,0,0,1-2.72-1.2,4.34,4.34,0,0,1-1.09-3,4.18,4.18,0,0,1,1.12-2.89,3.45,3.45,0,0,1,2.64-1.24,2.72,2.72,0,0,1,2,.73,4.13,4.13,0,0,1,1.07,2.18l.61-2.66ZM130,29.8a6.88,6.88,0,0,0-1-2.63,1.88,1.88,0,0,0-3.19.17,5,5,0,0,0-.6,2.64,5.48,5.48,0,0,0,.57,2.76,1.81,1.81,0,0,0,1.65,1,1.77,1.77,0,0,0,1.54-.83A9.13,9.13,0,0,0,130,29.8Z" transform="translate(-2.5)"/><path class="cls-4" d="M134.5,39.93V32.54h5.19v.87h-4.24v2.26h4v.87h-4v2.52h4.41v.87Z" transform="translate(-2.5)"/><line class="cls-10" x1="109.89" y1="43.92" x2="111.63" y2="43.92"/><line class="cls-11" x1="115.04" y1="43.92" x2="140.65" y2="43.92"/><line class="cls-10" x1="142.35" y1="43.92" x2="144.1" y2="43.92"/><line class="cls-10" x1="53.42" y1="50.25" x2="54.84" y2="50.25"/><line class="cls-12" x1="57.65" y1="50.25" x2="68.42" y2="50.25"/><line class="cls-10" x1="69.83" y1="50.25" x2="71.25" y2="50.25"/><path class="cls-4" d="M67.6,32.38,66.95,35q-.18.69-.4,1.35T66,37.63a3.9,3.9,0,0,0,.61,1.15.92.92,0,0,0,.7.38.59.59,0,0,0,.47-.22,1.12,1.12,0,0,0,.24-.59h.33v.19A3.11,3.11,0,0,1,68.12,40a.88.88,0,0,1-.81.48,1.07,1.07,0,0,1-.92-.47,5.54,5.54,0,0,1-.65-1.78A5,5,0,0,1,64.27,40a3.27,3.27,0,0,1-1.87.53,3.53,3.53,0,0,1-2.72-1.2,4.34,4.34,0,0,1-1.09-3,4.18,4.18,0,0,1,1.12-2.89,3.45,3.45,0,0,1,2.64-1.24,2.72,2.72,0,0,1,2,.73A4.13,4.13,0,0,1,65.39,35L66,32.38ZM65.16,36.1a6.88,6.88,0,0,0-1-2.63,1.88,1.88,0,0,0-3.19.17,5,5,0,0,0-.6,2.64A5.48,5.48,0,0,0,61,39.06a1.81,1.81,0,0,0,1.65,1,1.77,1.77,0,0,0,1.54-.83A9.13,9.13,0,0,0,65.16,36.1Z" transform="translate(-2.5)"/><path class="cls-4" d="M69.79,46.23V38.84h.95v7.39Z" transform="translate(-2.5)"/><path class="cls-4" d="M28.24,46.58l-9.66-6.41.82-1.32,8.52,5.65L31,39.6l1.14.76Z" transform="translate(-2.5)"/><path class="cls-4" d="M35.68,32.11l1.14.76-4.11,6.58a2.53,2.53,0,0,1-.73-.69,5.4,5.4,0,0,1-.78-1.66,15.36,15.36,0,0,1-.46-2.57A16.58,16.58,0,0,0,30.05,31,3,3,0,0,0,29,29.46a1.84,1.84,0,0,0-1.52-.27,2.17,2.17,0,0,0-1.33,1A2.33,2.33,0,0,0,25.77,32a2.38,2.38,0,0,0,1.09,1.48l-.91,1.17a3.69,3.69,0,0,1-1.47-2.35,4,4,0,0,1,.7-2.73,3.66,3.66,0,0,1,2.19-1.76,2.94,2.94,0,0,1,2.43.43,3.49,3.49,0,0,1,1,1,5.51,5.51,0,0,1,.67,1.59,24.09,24.09,0,0,1,.52,3q.21,1.69.33,2.22a4.9,4.9,0,0,0,.32.94Z" transform="translate(-2.5)"/><path class="cls-4" d="M37.44,32.24l-8.18-9.51.61-1,8.19,9.51Z" transform="translate(-2.5)"/><path class="cls-4" d="M37.51,26l.61-1.33a3,3,0,0,0,1.9.25A2,2,0,0,0,41.23,24a2.46,2.46,0,0,0-.73-3.39,2.11,2.11,0,0,0-1.69-.34,2.2,2.2,0,0,0-1.4,1,4.25,4.25,0,0,0-.41.95l-1-.83.14-.19a3.06,3.06,0,0,0,.48-1.67,1.83,1.83,0,0,0-2.19-1.7,1.87,1.87,0,0,0-1.16.89A2,2,0,0,0,33,20.23a2.68,2.68,0,0,0,.92,1.48l-1,1.08a3.76,3.76,0,0,1-1.21-2.24,3.58,3.58,0,0,1,.58-2.41,3.82,3.82,0,0,1,1.28-1.27,2.85,2.85,0,0,1,1.58-.43,2.78,2.78,0,0,1,1.47.46,2.48,2.48,0,0,1,.92,1.1,2.9,2.9,0,0,1,.18,1.57,2.64,2.64,0,0,1,1.68-.83,2.91,2.91,0,0,1,1.86.55,3.5,3.5,0,0,1,1.55,2.37,4.08,4.08,0,0,1-.62,3,3.62,3.62,0,0,1-2.12,1.67A3.39,3.39,0,0,1,37.51,26Z" transform="translate(-2.5)"/><ellipse class="cls-13" cx="53.67" cy="50.25" rx="4.38" ry="2.52"/><path class="cls-14" d="M80.76,78.54,70.67,93.12,43,92.48,38.23,81.65l.35-.53c1.39,4.66,10.7,7.5,21.63,6.42,10.24-1,18.46-5.13,19.87-9.63" transform="translate(-2.5)"/><path class="cls-15" d="M58.63,70.44l-1.4,0" transform="translate(-2.5)"/><path class="cls-16" d="M54.51,70.63c-9.15.85-16.18,4.46-16.18,8.79l0,.16c0,5,9,9,20,9s22-5,22-9.92l0-.12c0-4.54-9.07-7.51-19.1-8" transform="translate(-2.5)"/><path class="cls-15" d="M59.9,70.49l-1.39,0" transform="translate(-2.5)"/><line class="cls-10" x1="53.61" y1="78.97" x2="55.24" y2="78.97"/><line class="cls-17" x1="58.29" y1="78.97" x2="75.11" y2="78.97"/><line class="cls-10" x1="76.64" y1="78.97" x2="78.27" y2="78.97"/><polygon class="cls-18" points="110.85 40.08 115.83 47.36 105.88 47.36 110.85 40.08"/><polygon class="cls-19" points="51.16 113.07 56.14 120.18 46.18 120.18 51.16 113.07"/><path class="cls-4" d="M68.41,62.48l-.66,2.65q-.18.69-.4,1.35t-.5,1.25a3.9,3.9,0,0,0,.61,1.15.92.92,0,0,0,.7.38.59.59,0,0,0,.47-.22,1.12,1.12,0,0,0,.24-.59h.33v.19a3.11,3.11,0,0,1-.27,1.47.88.88,0,0,1-.81.48,1.07,1.07,0,0,1-.92-.47,5.54,5.54,0,0,1-.65-1.78,5,5,0,0,1-1.47,1.72,3.27,3.27,0,0,1-1.87.53,3.53,3.53,0,0,1-2.72-1.2,4.34,4.34,0,0,1-1.09-3,4.18,4.18,0,0,1,1.12-2.89,3.45,3.45,0,0,1,2.64-1.24,2.72,2.72,0,0,1,2,.73,4.13,4.13,0,0,1,1.07,2.18l.61-2.66ZM66,66.21a6.88,6.88,0,0,0-1-2.63,1.88,1.88,0,0,0-3.19.17,5,5,0,0,0-.6,2.64,5.48,5.48,0,0,0,.57,2.76,1.81,1.81,0,0,0,1.65,1A1.77,1.77,0,0,0,65,69.28,9.13,9.13,0,0,0,66,66.21Z" transform="translate(-2.5)"/><path class="cls-4" d="M69.71,76.34l2.78-3.85L70,68.95h1.13l1.3,1.9a10.74,10.74,0,0,1,.58.91,9.58,9.58,0,0,1,.57-.84l1.44-2h1l-2.52,3.48,2.72,3.91H75.11L73.31,73.7,73,73.21l-.34.55-1.8,2.58Z" transform="translate(-2.5)"/><path class="cls-20" d="M226.79,118.18h132m-132,0v-1.32m52.8,1.32v-1.32m52.8,1.32v-1.32" transform="translate(-2.5)"/><path d="M229.32,125.77a7,7,0,0,1,.66,3.32,8,8,0,0,1-.59,3.31,2.91,2.91,0,0,1-2.82,1.88,2.82,2.82,0,0,1-2.62-1.53,7,7,0,0,1-.72-3.44,8.5,8.5,0,0,1,.43-2.87,3,3,0,0,1,2.92-2.23A2.89,2.89,0,0,1,229.32,125.77Zm-1.24,6.53a6.14,6.14,0,0,0,.57-3.16,7.81,7.81,0,0,0-.41-2.75,1.56,1.56,0,0,0-1.6-1.08,1.67,1.67,0,0,0-1.59,1,7.06,7.06,0,0,0-.5,3,7.42,7.42,0,0,0,.32,2.41,1.75,1.75,0,0,0,3.21.54Z" transform="translate(-2.5)"/><path d="M276.13,125.77a7,7,0,0,1,.66,3.32,8,8,0,0,1-.59,3.31,2.91,2.91,0,0,1-2.82,1.88,2.82,2.82,0,0,1-2.62-1.53,7,7,0,0,1-.72-3.44,8.5,8.5,0,0,1,.43-2.87,3,3,0,0,1,2.92-2.23A2.89,2.89,0,0,1,276.13,125.77Zm-1.24,6.53a6.14,6.14,0,0,0,.57-3.16,7.81,7.81,0,0,0-.41-2.75,1.56,1.56,0,0,0-1.6-1.08,1.67,1.67,0,0,0-1.59,1,7.06,7.06,0,0,0-.5,3,7.42,7.42,0,0,0,.32,2.41,1.75,1.75,0,0,0,3.21.54Z" transform="translate(-2.5)"/><path d="M278.57,132.51H280V134h-1.43Z" transform="translate(-2.5)"/><path d="M282.61,127.06v-.94a5,5,0,0,0,1.86-.43,2.14,2.14,0,0,0,.79-1.44h1V134h-1.31v-6.94Z" transform="translate(-2.5)"/><path d="M328.92,125.77a7,7,0,0,1,.66,3.32,8,8,0,0,1-.59,3.31,2.91,2.91,0,0,1-2.82,1.88,2.82,2.82,0,0,1-2.62-1.53,7,7,0,0,1-.72-3.44,8.5,8.5,0,0,1,.43-2.87,3,3,0,0,1,2.92-2.23A2.89,2.89,0,0,1,328.92,125.77Zm-1.24,6.53a6.14,6.14,0,0,0,.57-3.16,7.8,7.8,0,0,0-.41-2.75,1.56,1.56,0,0,0-1.59-1.08,1.67,1.67,0,0,0-1.59,1,7.07,7.07,0,0,0-.5,3,7.4,7.4,0,0,0,.32,2.41,1.75,1.75,0,0,0,3.21.54Z" transform="translate(-2.5)"/><path d="M331.37,132.51h1.43V134h-1.43Z" transform="translate(-2.5)"/><path d="M335,131.8a4.23,4.23,0,0,1,1.77-1.71l1.31-.76a6.19,6.19,0,0,0,1.24-.88,1.92,1.92,0,0,0,0-2.67,1.87,1.87,0,0,0-1.37-.5,1.79,1.79,0,0,0-1.75,1,3.46,3.46,0,0,0-.29,1.43h-1.25a4.41,4.41,0,0,1,.47-2.09,3,3,0,0,1,2.82-1.42,2.91,2.91,0,0,1,3.23,2.94,2.75,2.75,0,0,1-.83,2,8.09,8.09,0,0,1-1.72,1.18l-.94.52a6,6,0,0,0-1.05.71,2.57,2.57,0,0,0-.86,1.32h5.35V134H334.5A5.73,5.73,0,0,1,335,131.8Z" transform="translate(-2.5)"/><path class="cls-20" d="M226.79,118.18V1m0,117.18h1.32m-1.32-51h1.32m-1.32-51h1.32" transform="translate(-2.5)"/><path d="M220.52,113.44a7,7,0,0,1,.66,3.32,8,8,0,0,1-.59,3.31,2.91,2.91,0,0,1-2.82,1.88,2.82,2.82,0,0,1-2.62-1.53,7,7,0,0,1-.72-3.44,8.5,8.5,0,0,1,.43-2.87,3,3,0,0,1,2.92-2.23A2.89,2.89,0,0,1,220.52,113.44ZM219.29,120a6.14,6.14,0,0,0,.57-3.16,7.81,7.81,0,0,0-.41-2.75,1.56,1.56,0,0,0-1.6-1.08,1.67,1.67,0,0,0-1.59,1,7.06,7.06,0,0,0-.5,3,7.42,7.42,0,0,0,.32,2.41,1.75,1.75,0,0,0,3.21.54Z" transform="translate(-2.5)"/><path d="M206.95,68.5a4.24,4.24,0,0,1,1.77-1.7L210,66a6.14,6.14,0,0,0,1.24-.88,1.92,1.92,0,0,0,0-2.66A1.86,1.86,0,0,0,210,62a1.78,1.78,0,0,0-1.75,1,3.45,3.45,0,0,0-.29,1.43h-1.25a4.41,4.41,0,0,1,.47-2.09A3,3,0,0,1,210,60.86a2.91,2.91,0,0,1,3.23,2.94,2.76,2.76,0,0,1-.83,2A8.09,8.09,0,0,1,210.65,67l-.94.52a6.07,6.07,0,0,0-1.05.71,2.57,2.57,0,0,0-.86,1.32h5.35V70.7h-6.72A5.72,5.72,0,0,1,206.95,68.5Z" transform="translate(-2.5)"/><path d="M215.5,68.2a1.71,1.71,0,0,0,1,1.46,2.36,2.36,0,0,0,1,.21,1.9,1.9,0,0,0,1.62-.7,2.51,2.51,0,0,0,.53-1.55A2,2,0,0,0,219,66a2.17,2.17,0,0,0-1.5-.56,2.25,2.25,0,0,0-1.09.25,2.34,2.34,0,0,0-.78.68l-1.07-.06.75-5.28h5.09v1.19h-4.16L215.83,65a3.07,3.07,0,0,1,.65-.39,3.3,3.3,0,0,1,1.26-.23,3.23,3.23,0,0,1,2.28.87,2.88,2.88,0,0,1,.94,2.2,3.79,3.79,0,0,1-.86,2.45,3.32,3.32,0,0,1-2.74,1.06,3.49,3.49,0,0,1-2.12-.67,2.68,2.68,0,0,1-1-2.07Z" transform="translate(-2.5)"/><path d="M207.72,17.22a1.71,1.71,0,0,0,1,1.46,2.36,2.36,0,0,0,1,.21,1.9,1.9,0,0,0,1.62-.7,2.51,2.51,0,0,0,.53-1.55,2,2,0,0,0-.63-1.59,2.17,2.17,0,0,0-1.5-.56,2.25,2.25,0,0,0-1.09.25,2.34,2.34,0,0,0-.78.68l-1.07-.06.75-5.28h5.09v1.19h-4.16L208,14a3.07,3.07,0,0,1,.65-.39,3.3,3.3,0,0,1,1.26-.23,3.23,3.23,0,0,1,2.28.87,2.88,2.88,0,0,1,.94,2.2,3.79,3.79,0,0,1-.86,2.45A3.32,3.32,0,0,1,209.58,20a3.49,3.49,0,0,1-2.12-.67,2.68,2.68,0,0,1-1-2.07Z" transform="translate(-2.5)"/><path d="M220.31,11.48A7,7,0,0,1,221,14.8a8,8,0,0,1-.59,3.31A2.91,2.91,0,0,1,217.56,20a2.82,2.82,0,0,1-2.62-1.53,7,7,0,0,1-.72-3.44,8.5,8.5,0,0,1,.43-2.87,3,3,0,0,1,2.92-2.23A2.89,2.89,0,0,1,220.31,11.48ZM219.07,18a6.14,6.14,0,0,0,.57-3.16,7.81,7.81,0,0,0-.41-2.75,1.56,1.56,0,0,0-1.6-1.08A1.67,1.67,0,0,0,216,12a7.06,7.06,0,0,0-.5,3,7.41,7.41,0,0,0,.32,2.41,1.75,1.75,0,0,0,3.21.54Z" transform="translate(-2.5)"/><path class="cls-21" d="M229.43,94.49l2.64-.44,2.64-.87,2.64-1.2L240,90.41l2.64-1.64,2.64-1.7,2.64-1.92,2.64-2,2.64-1.68,2.64-1.49,2.64-1,2.64-.77,2.64-.21,2.64.29,2.64.65,2.64.92L274.31,81l2.64,1.17,2.64,1,2.64.66,2.64.34,2.64-.12,2.64-.53,2.64-1,2.64-1.18,2.64-1.5,2.64-1.31,2.64-1.22L306,76.4l2.64-.43,2.64.05,2.64.55,2.64,1,2.64,1.46,2.64,1.52,2.64,1.8L327.11,84l2.64,1.55,2.64,1L335,87l2.64.06,2.64-.54,2.64-1,2.64-1.31,2.64-1.39,2.64-1.52L353.51,80l2.64-1,2.64-.56m-2.64.56,2.64-.56" transform="translate(-2.5)"/><path class="cls-22" d="M229.43,94.34l2.64-1.6,2.64-3,2.64-3.84L240,81.18l2.64-4.65,2.64-4.4,2.64-4.26,2.64-4.11,2.64-2.71,2.64-2.18,2.64-1,2.64-.22,2.64.71L266.39,60,269,61.91l2.64,2.52,2.64,2.77,2.64,3L279.59,73l2.64,2.56,2.64,2.6,2.64,2.06,2.64,1.73,2.64,1.57,2.64,1.08,2.64.86,2.64.49,2.64.26,2.64,0,2.64-.13,2.64-.3,2.64-.38,2.64-.48,2.64-.51,2.64-.49,2.64-.51,2.64-.47,2.64-.47,2.64-.38,2.64-.28,2.64-.24,2.64-.15,2.64-.07h2.64l2.64.07,2.64.13,2.64.18,2.64.24,2.64.27M356.15,82l2.64.27" transform="translate(-2.5)"/><path class="cls-23" d="M229.43,94.27l2.64-2.2,2.64-4.22,2.64-5.4L240,75.72l2.64-6.87,2.64-6.74,2.64-6.86,2.64-7.12,2.64-5.27,2.64-5,2.64-3.13,2.64-2.82,2.64-1.43,2.64-.27,2.64.68,2.64,1.54,2.64,2.25,2.64,2.91,2.64,3.22,2.64,3.34,2.64,3.95,2.64,3.65,2.64,3.61,2.64,4,2.64,3.48,2.64,3.74,2.64,3.2,2.64,3.17L306,76.06l2.64,2.56,2.64,2.68,2.64,2.19,2.64,2.09,2.64,1.79,2.64,1.44,2.64,1.29,2.64,1,2.64.89,2.64.61L335,93l2.64.25,2.64.08,2.64-.07,2.64-.19,2.64-.27,2.64-.38,2.64-.44,2.64-.51,2.64-.54m-2.64.54,2.64-.54" transform="translate(-2.5)"/><path class="cls-24" d="M229.43,94.23l2.64-2.46,2.64-4.72L237.35,81,240,73.35l2.64-7.88,2.64-7.83,2.64-8.13,2.64-8.67,2.64-6.69,2.64-6.67,2.64-4.5,2.64-4.66,2.64-3.13,2.64-2,2.64-.81,2.64,0,2.64.78,2.64,1.5,2.64,2,2.64,2.28,2.64,2.94,2.64,2.9,2.64,3,2.64,3.56,2.64,3.26,2.64,3.7,2.64,3.35,2.64,3.51L306,48.82,308.63,52l2.64,3.62,2.64,3.19,2.64,3.31,2.64,3.15,2.64,2.81L324.47,71l2.64,2.64,2.64,2.73,2.64,2.41,2.64,2,2.64,2.14,2.64,1.89,2.64,1.84,2.64,1.6,2.64,1.35,2.64,1.31,2.64,1.14,2.64,1.05,2.64.89m-2.64-.89,2.64.89" transform="translate(-2.5)"/><path class="cls-25" d="M229.43,94.22l2.64-2.58,2.64-5,2.64-6.41L240,72.2l2.64-8.37,2.64-8.37,2.64-8.77,2.64-9.46,2.64-7.43,2.64-7.55L258.47,17l2.64-5.7,2.64-4.13,2.64-3.08L269,2.34l2.64-1.08L274.31,1l2.64.43,2.64,1,2.64,1.33,2.64,1.91,2.64,2,2.64,2.19,2.64,2.67L295.43,15,298.07,18l2.64,2.74,2.64,3L306,26.86l2.64,2.85L311.27,33l2.64,3,2.64,3.18,2.64,3.11,2.64,2.86,2.64,3L327.11,51l2.64,3.08,2.64,2.83L335,59.38l2.64,2.74,2.64,2.54,2.64,2.61,2.64,2.4,2.64,2.16L350.87,74l2.64,2.09,2.64,2.09,2.64,1.95m-2.64-1.95,2.64,1.95" transform="translate(-2.5)"/><path d="M238.13,139h1.46v9.48H245v1.28h-6.86Z" transform="translate(-2.5)"/><path d="M250.31,149.73v-2.56h-4.6v-1.29l4.8-6.67h1.11V146h1.55v1.15h-1.55v2.56Zm0-3.71v-4.76L246.93,146Z" transform="translate(-2.5)"/><path d="M258.85,141.89h1.25v1.35a3,3,0,0,1,.75-1,2,2,0,0,1,1.38-.57h.12l.3,0v1.39l-.22,0h-.22a1.88,1.88,0,0,0-1.53.64,2.24,2.24,0,0,0-.53,1.48v4.51h-1.32Z" transform="translate(-2.5)"/><path d="M268,145a.72.72,0,0,0,.61-.38,1.17,1.17,0,0,0,.09-.51,1.08,1.08,0,0,0-.48-1,2.56,2.56,0,0,0-1.37-.31,1.74,1.74,0,0,0-1.46.56,1.85,1.85,0,0,0-.31.92h-1.23a2.28,2.28,0,0,1,.94-2,3.85,3.85,0,0,1,2.1-.57,4.26,4.26,0,0,1,2.25.53,1.79,1.79,0,0,1,.86,1.64v4.52a.58.58,0,0,0,.08.33.41.41,0,0,0,.36.12h.2l.23,0v1a3.65,3.65,0,0,1-.47.11l-.44,0a1.08,1.08,0,0,1-1-.48,1.87,1.87,0,0,1-.23-.73,3.36,3.36,0,0,1-1.16.92,3.59,3.59,0,0,1-1.66.39,2.47,2.47,0,0,1-1.78-.66,2.2,2.2,0,0,1-.69-1.66,2.13,2.13,0,0,1,.68-1.69,3.25,3.25,0,0,1,1.79-.74Zm-2.78,3.56a1.55,1.55,0,0,0,1,.33,3,3,0,0,0,1.35-.32,1.81,1.81,0,0,0,1.1-1.75v-1.06a2.26,2.26,0,0,1-.62.26,5.29,5.29,0,0,1-.75.15l-.8.1a3.08,3.08,0,0,0-1.08.3,1.17,1.17,0,0,0-.61,1.1A1.08,1.08,0,0,0,265.23,148.55Z" transform="translate(-2.5)"/><path d="M272.41,139.7h1.33v2.19H275V143h-1.25v5.12a.55.55,0,0,0,.28.55,1.18,1.18,0,0,0,.51.08h.21l.26,0v1a3.06,3.06,0,0,1-.47.1,4.72,4.72,0,0,1-.53,0,1.43,1.43,0,0,1-1.25-.47,2.1,2.1,0,0,1-.33-1.23V143h-1.06v-1.08h1.06Z" transform="translate(-2.5)"/><path d="M281.16,142.11a3,3,0,0,1,1.19,1,3.5,3.5,0,0,1,.52,1.38,9.06,9.06,0,0,1,.12,1.73h-5.71a3.39,3.39,0,0,0,.56,1.92,1.86,1.86,0,0,0,1.62.72,2.08,2.08,0,0,0,1.63-.68,2.34,2.34,0,0,0,.48-.92h1.3a2.72,2.72,0,0,1-.34,1,3.45,3.45,0,0,1-.64.87,3,3,0,0,1-1.48.79,4.46,4.46,0,0,1-1.07.12,3.27,3.27,0,0,1-2.47-1.07,4.16,4.16,0,0,1-1-3,4.53,4.53,0,0,1,1-3.07,3.35,3.35,0,0,1,2.66-1.18A3.53,3.53,0,0,1,281.16,142.11Zm.47,3.08a3.44,3.44,0,0,0-.37-1.37,1.89,1.89,0,0,0-1.79-1,2,2,0,0,0-1.51.66,2.49,2.49,0,0,0-.65,1.67Z" transform="translate(-2.5)"/><path d="M289.44,141.89l1.51,6.18,1.53-6.18H294l1.54,6.14,1.6-6.14h1.32l-2.28,7.84h-1.37l-1.6-6.07-1.54,6.07h-1.37L288,141.89Z" transform="translate(-2.5)"/><path d="M299.66,139H301v1.49h-1.34Zm0,3H301v7.81h-1.34Z" transform="translate(-2.5)"/><path d="M307.3,142.13a3.56,3.56,0,0,1,.8.77v-4h1.27v10.8h-1.19v-1.09a2.84,2.84,0,0,1-1.09,1,3.1,3.1,0,0,1-1.44.32,2.9,2.9,0,0,1-2.26-1.1,4.32,4.32,0,0,1-1-2.93,5.08,5.08,0,0,1,.87-3,2.85,2.85,0,0,1,2.49-1.26A2.77,2.77,0,0,1,307.3,142.13ZM304.36,148a1.86,1.86,0,0,0,1.71.85,1.79,1.79,0,0,0,1.5-.79,3.73,3.73,0,0,0,.59-2.26,3.35,3.35,0,0,0-.6-2.2,1.88,1.88,0,0,0-1.49-.71,2,2,0,0,0-1.61.76,3.51,3.51,0,0,0-.62,2.24A3.91,3.91,0,0,0,304.36,148Z" transform="translate(-2.5)"/><path d="M311.6,139.7h1.33v2.19h1.25V143h-1.25v5.12a.55.55,0,0,0,.28.55,1.18,1.18,0,0,0,.51.08h.21l.26,0v1a3.09,3.09,0,0,1-.47.1,4.72,4.72,0,0,1-.53,0,1.43,1.43,0,0,1-1.25-.47,2.09,2.09,0,0,1-.33-1.23V143h-1.06v-1.08h1.06Z" transform="translate(-2.5)"/><path d="M315.5,138.94h1.32v4a3.83,3.83,0,0,1,.84-.83,2.85,2.85,0,0,1,1.59-.42,2.35,2.35,0,0,1,2.31,1.19,4.07,4.07,0,0,1,.33,1.81v5h-1.36v-4.94a2.77,2.77,0,0,0-.22-1.27,1.4,1.4,0,0,0-1.35-.64,2.25,2.25,0,0,0-1.49.56,2.71,2.71,0,0,0-.67,2.13v4.16H315.5Z" transform="translate(-2.5)"/><path d="M331.48,138.8a25.63,25.63,0,0,0-1.49,3.29,13.21,13.21,0,0,0,.07,7.59,23.33,23.33,0,0,0,1.44,3.12h-.89q-1.07-1.67-1.33-2.13a9.83,9.83,0,0,1-.56-1.25,10.24,10.24,0,0,1-.57-2.31,9.53,9.53,0,0,1-.08-1.22,10.29,10.29,0,0,1,.68-3.86,22.25,22.25,0,0,1,1.8-3.22Z" transform="translate(-2.5)"/><path class="cls-4" d="M340.11,142.06a3.75,3.75,0,0,1,1.54,1.4,3.91,3.91,0,0,1,.51,2,4.2,4.2,0,0,1-1.33,3.21,4.92,4.92,0,0,1-3.49,1.24A4.65,4.65,0,0,1,334,148.7a4.17,4.17,0,0,1-1.31-3.15,4.4,4.4,0,0,1,1.35-3.36,5,5,0,0,1,3.59-1.27q.45,0,1.67.07t2,.06a3.73,3.73,0,0,0,1.1-.12c.24-.08.37-.2.39-.37h.41a2,2,0,0,1-.36,1.28,1.63,1.63,0,0,1-1.21.35l-.46,0Zm.21,4.06a6,6,0,0,0-.86-3.42,2.63,2.63,0,0,0-2.28-1.28,2.31,2.31,0,0,0-1.94.9,4.09,4.09,0,0,0-.69,2.54,5.63,5.63,0,0,0,.87,3.26,2.62,2.62,0,0,0,2.25,1.26,2.42,2.42,0,0,0,2-.81A3.83,3.83,0,0,0,340.32,146.12Z" transform="translate(-2.5)"/><path class="cls-4" d="M343.2,156.06l3-4.13-2.62-3.8h1.21l1.4,2a11.53,11.53,0,0,1,.62,1,10.51,10.51,0,0,1,.61-.9l1.55-2.1h1.11l-2.7,3.74,2.91,4.19H349l-1.94-2.83-.34-.53c-.17.29-.29.49-.37.59l-1.93,2.76Z" transform="translate(-2.5)"/><path d="M350.85,152.79a25.74,25.74,0,0,0,1.5-3.31,12,12,0,0,0,.51-3.69,12.08,12.08,0,0,0-.59-3.87,23.64,23.64,0,0,0-1.44-3.12h.89q1.13,1.8,1.37,2.22a8.51,8.51,0,0,1,.52,1.16,9.41,9.41,0,0,1,.5,1.81,10.44,10.44,0,0,1,.15,1.72,10.24,10.24,0,0,1-.69,3.87,21.34,21.34,0,0,1-1.79,3.22Z" transform="translate(-2.5)"/><path d="M185.07,132.72V127.9a3.28,3.28,0,0,1,.81-2.31,2.94,2.94,0,0,1,2.27-.88,3.3,3.3,0,0,1,2.19.79,3,3,0,0,1,.93,2.4v3.37h4.55v1.46Zm1.48-5.66a3.14,3.14,0,0,0-.23,1.32v2.88H190v-2.88a2.74,2.74,0,0,0-.42-1.58,1.66,1.66,0,0,0-1.47-.61A1.62,1.62,0,0,0,186.55,127.06Z" transform="translate(-2.5)"/><path d="M188.2,118.17a3,3,0,0,1,1-1.19,3.51,3.51,0,0,1,1.38-.53,9.16,9.16,0,0,1,1.73-.12v5.71a3.39,3.39,0,0,0,1.92-.56,1.87,1.87,0,0,0,.72-1.62,2.09,2.09,0,0,0-.68-1.64,2.34,2.34,0,0,0-.92-.48v-1.3a2.72,2.72,0,0,1,1,.34,3.45,3.45,0,0,1,.87.65,3,3,0,0,1,.79,1.48,4.46,4.46,0,0,1,.12,1.07,3.28,3.28,0,0,1-1.07,2.47,4.16,4.16,0,0,1-3,1,4.53,4.53,0,0,1-3.07-1,3.36,3.36,0,0,1-1.18-2.67A3.54,3.54,0,0,1,188.2,118.17Zm3.08-.47a3.45,3.45,0,0,0-1.37.37,1.9,1.9,0,0,0-1,1.8,2,2,0,0,0,.66,1.51,2.49,2.49,0,0,0,1.67.65Z" transform="translate(-2.5)"/><path d="M191.08,110.45a.72.72,0,0,0-.38-.61,1.17,1.17,0,0,0-.51-.09,1.08,1.08,0,0,0-1,.48,2.56,2.56,0,0,0-.31,1.37,1.74,1.74,0,0,0,.56,1.46,1.85,1.85,0,0,0,.92.32v1.23a2.27,2.27,0,0,1-2-.94,3.86,3.86,0,0,1-.57-2.1,4.27,4.27,0,0,1,.53-2.25,1.79,1.79,0,0,1,1.64-.86h4.52a.58.58,0,0,0,.33-.08.41.41,0,0,0,.12-.36c0-.06,0-.12,0-.2s0-.15,0-.23h1a3.68,3.68,0,0,1,.11.47,3.43,3.43,0,0,1,0,.44,1.09,1.09,0,0,1-.48,1,1.87,1.87,0,0,1-.73.23,3.36,3.36,0,0,1,.92,1.16,3.59,3.59,0,0,1,.39,1.67,2.48,2.48,0,0,1-.66,1.79,2.2,2.2,0,0,1-1.66.69,2.13,2.13,0,0,1-1.69-.68,3.25,3.25,0,0,1-.74-1.79Zm3.56,2.78a1.56,1.56,0,0,0,.33-1,3,3,0,0,0-.32-1.35,1.81,1.81,0,0,0-1.75-1.1h-1.06a2.24,2.24,0,0,1,.26.62,5.17,5.17,0,0,1,.15.75l.1.8a3.09,3.09,0,0,0,.3,1.08,1.16,1.16,0,0,0,1.1.61A1.08,1.08,0,0,0,194.64,113.23Z" transform="translate(-2.5)"/><path d="M185.07,106.34v-1.27h6.25L188,101.68V100l2.92,3,4.93-3.19v1.69l-4,2.47,1,1.08h2.94v1.27Z" transform="translate(-2.5)"/><path d="M185.07,94.45V93h9.48V87.58h1.28v6.87Z" transform="translate(-2.5)"/><path d="M193.47,86.21a4.54,4.54,0,0,1-1.82-1.9l-.81-1.41a6.59,6.59,0,0,0-.94-1.33,1.93,1.93,0,0,0-1.39-.6,2,2,0,0,0-1.46.55A2,2,0,0,0,186.5,83a1.92,1.92,0,0,0,1,1.88,3.67,3.67,0,0,0,1.53.31v1.34a4.7,4.7,0,0,1-2.23-.51,3.18,3.18,0,0,1-1.52-3,3.12,3.12,0,0,1,3.14-3.47,2.94,2.94,0,0,1,2.15.89,8.71,8.71,0,0,1,1.26,1.84l.56,1a6.49,6.49,0,0,0,.75,1.13,2.74,2.74,0,0,0,1.41.92V79.56h1.25v7.21A6.11,6.11,0,0,1,193.47,86.21Z" transform="translate(-2.5)"/><path d="M185.07,75.46V74.35l10.76,3.42v1.11Z" transform="translate(-2.5)"/><path d="M195.09,73.51a3.79,3.79,0,0,1-2.49.84V73a3.41,3.41,0,0,0,1.48-.38,2,2,0,0,0,.83-1.86,2.44,2.44,0,0,0-.56-1.67,1.83,1.83,0,0,0-1.44-.63,1.67,1.67,0,0,0-1.52.66,3.36,3.36,0,0,0-.43,1.84c0,.09,0,.18,0,.27s0,.18,0,.27h-1.16c0-.14,0-.25,0-.34s0-.19,0-.3a2.76,2.76,0,0,0-.23-1.22,1.49,1.49,0,0,0-1.46-.84,1.43,1.43,0,0,0-1.21.56,2.08,2.08,0,0,0-.42,1.3,1.93,1.93,0,0,0,.88,1.83,3,3,0,0,0,1.38.32v1.31a4,4,0,0,1-2-.47,3,3,0,0,1-1.46-2.84,3.86,3.86,0,0,1,.71-2.49,2.51,2.51,0,0,1,2.07-.88,2.31,2.31,0,0,1,1.57.52,2.19,2.19,0,0,1,.59.84,2.28,2.28,0,0,1,.88-1.29,2.65,2.65,0,0,1,1.59-.47,3.23,3.23,0,0,1,2.45,1,3.91,3.91,0,0,1,.94,2.81A3.3,3.3,0,0,1,195.09,73.51Z" transform="translate(-2.5)"/><path d="M188,61.18V59.92h1.35a3,3,0,0,1-1-.76,2,2,0,0,1-.57-1.39s0-.07,0-.12l0-.3h1.39a2,2,0,0,0,0,.22c0,.07,0,.14,0,.22a1.89,1.89,0,0,0,.64,1.53,2.23,2.23,0,0,0,1.48.54h4.51v1.32Z" transform="translate(-2.5)"/><path d="M191.08,52a.72.72,0,0,0-.38-.61,1.17,1.17,0,0,0-.51-.09,1.08,1.08,0,0,0-1,.48,2.56,2.56,0,0,0-.31,1.37,1.74,1.74,0,0,0,.56,1.46,1.85,1.85,0,0,0,.92.31v1.23a2.27,2.27,0,0,1-2-.94,3.86,3.86,0,0,1-.57-2.1,4.27,4.27,0,0,1,.53-2.25A1.79,1.79,0,0,1,190,50h4.52a.58.58,0,0,0,.33-.08.41.41,0,0,0,.12-.36c0-.06,0-.12,0-.2s0-.15,0-.23h1a3.68,3.68,0,0,1,.11.47,3.43,3.43,0,0,1,0,.44,1.09,1.09,0,0,1-.48,1,1.87,1.87,0,0,1-.73.23,3.36,3.36,0,0,1,.92,1.16,3.59,3.59,0,0,1,.39,1.67,2.48,2.48,0,0,1-.66,1.79,2.2,2.2,0,0,1-1.66.69,2.13,2.13,0,0,1-1.69-.68,3.25,3.25,0,0,1-.74-1.79Zm3.56,2.78a1.55,1.55,0,0,0,.33-1,3,3,0,0,0-.32-1.35,1.81,1.81,0,0,0-1.75-1.1h-1.06a2.24,2.24,0,0,1,.26.62,5.17,5.17,0,0,1,.15.75l.1.8a3.09,3.09,0,0,0,.3,1.08,1.16,1.16,0,0,0,1.1.61A1.08,1.08,0,0,0,194.64,54.78Z" transform="translate(-2.5)"/><path d="M185.79,47.59V46.26H188V45h1.08v1.25h5.12a.55.55,0,0,0,.55-.28,1.19,1.19,0,0,0,.08-.51c0-.06,0-.13,0-.21s0-.16,0-.26h1a3,3,0,0,1,.1.47,4.51,4.51,0,0,1,0,.53,1.44,1.44,0,0,1-.47,1.25,2.1,2.1,0,0,1-1.23.33h-5.19v1.06H188V47.59Z" transform="translate(-2.5)"/><path d="M188.2,38.83a3,3,0,0,1,1-1.19,3.52,3.52,0,0,1,1.38-.52,9.11,9.11,0,0,1,1.73-.12v5.71a3.39,3.39,0,0,0,1.92-.56,1.87,1.87,0,0,0,.72-1.62,2.09,2.09,0,0,0-.68-1.64,2.34,2.34,0,0,0-.92-.48v-1.3a2.73,2.73,0,0,1,1,.34,3.46,3.46,0,0,1,.87.65,3,3,0,0,1,.79,1.48,4.46,4.46,0,0,1,.12,1.07A3.28,3.28,0,0,1,195,43.12a4.16,4.16,0,0,1-3,1,4.52,4.52,0,0,1-3.07-1,3.36,3.36,0,0,1-1.18-2.67A3.55,3.55,0,0,1,188.2,38.83Zm3.08-.47a3.43,3.43,0,0,0-1.37.37,1.9,1.9,0,0,0-1,1.8,2,2,0,0,0,.66,1.51,2.49,2.49,0,0,0,1.67.65Z" transform="translate(-2.5)"/><path d="M184.89,27.68a25.54,25.54,0,0,0,3.29,1.5,13.2,13.2,0,0,0,7.59-.07,23.46,23.46,0,0,0,3.12-1.45v.89q-1.67,1.07-2.13,1.33a9.88,9.88,0,0,1-1.25.56,10.3,10.3,0,0,1-2.31.57,9.7,9.7,0,0,1-1.22.08,10.26,10.26,0,0,1-3.86-.68,22.21,22.21,0,0,1-3.22-1.8Z" transform="translate(-2.5)"/><path d="M185.07,25.94V24.46h4.45V18.92h-4.45V17.45h10.76v1.47h-5v5.54h5v1.47Z" transform="translate(-2.5)"/><path d="M194.79,15.89l-5.62-4.67v4.32H188V9.45h1.08l5.59,4.64V9.31h1.18v6.58Z" transform="translate(-2.5)"/><path d="M198.89,8.24a25.87,25.87,0,0,0-3.31-1.5,13.21,13.21,0,0,0-7.57.08,23.45,23.45,0,0,0-3.12,1.44V7.37q1.8-1.13,2.22-1.37a8.64,8.64,0,0,1,1.16-.52,9.35,9.35,0,0,1,1.81-.5,10.39,10.39,0,0,1,1.72-.15,10.22,10.22,0,0,1,3.87.69,21.23,21.23,0,0,1,3.22,1.8Z" transform="translate(-2.5)"/></svg>